<?xml version="1.0" encoding="utf-8"?>
<!-- Generator: Adobe Illustrator 25.0.1, SVG Export Plug-In . SVG Version: 6.00 Build 0)  -->
<svg version="1.1" id="Layer_1" xmlns="http://www.w3.org/2000/svg" xmlns:xlink="http://www.w3.org/1999/xlink" x="0px" y="0px"
	 viewBox="0 0 525 350" style="enable-background:new 0 0 525 350;" xml:space="preserve">
<style type="text/css">
	.st0{fill:#010101;}
	.st1{fill:#FECD06;}
	.st2{fill:#06539B;}
	.st3{fill-rule:evenodd;clip-rule:evenodd;fill:#E01F26;}
	.st4{fill:#313131;}
	.st5{fill-rule:evenodd;clip-rule:evenodd;fill:#010101;}
</style>
<g id="Chablais">
	<rect class="st0" width="175" height="350"/>
	<rect x="175" class="st1" width="175" height="350"/>
	<rect x="350" class="st2" width="175" height="350"/>
	<g>
		<g>
			<g>
				<path class="st3" d="M208.359,88.311c-1.397,0.055-2.705,0.804-3.403,2.213c4.475-0.673,3.422,1.952,3.003,3.421l3.963,1.032
					c0.61-2.09,1.09-4.717-1.064-6.008C210.069,88.494,209.198,88.277,208.359,88.311z M217.236,91.891
					c-0.583,0.026-1.176,0.189-1.715,0.492c1.633,0.834,1.83,3.031,0.454,4.909l3.782,1.786c0.69-1.465,1.128-3.922,0.501-5.434
					C219.755,92.433,218.52,91.833,217.236,91.891L217.236,91.891z M198.543,94.509c-1.35,0.044-2.565,0.695-3.067,2.156
					c3.955-0.741,3.573,1.068,3.847,3.188l4.446-1.586c-0.647-1.993-2.377-3.385-4.277-3.694
					C199.173,94.52,198.855,94.498,198.543,94.509z M205.906,117.485c-0.783,1.172-1.375,3.014-4.827,2.068
					c1.64,4.753,7.033,2.662,7.998,1.6L205.906,117.485z M202.937,153.358c-2.637-0.083-4.929,1.277-5.446,3.85
					c2.232-0.623,4.34-0.332,5.444,1.102l3.865-3.099C206.089,154.13,204.632,153.412,202.937,153.358L202.937,153.358z
					 M197.613,161.829c-0.685-0.017-1.449,0.074-2.225,0.375c-2.185,0.849-3.102,2.884-2.669,5.085
					c3.014-2.992,3.786-1.203,5.7,0.208l1.821-5.069C200.238,162.428,199.119,161.866,197.613,161.829z M201.275,170.228
					c0,0-5.502,1.262-6.634,3.922c-1.207,2.837,1.004,3.17,1.85,3.424c0.114-2.076,2.598-2.658,5.299-2.626L201.275,170.228z
					 M221.096,173.35l-5.046,1.61c1.278,1.496,1.533,2.503-0.814,4.979c2.119,0.714,4.475-0.297,5.542-2.276
					C221.518,176.292,221.646,174.545,221.096,173.35z M211.955,212.844c-2.663,0.073-5.232,1.667-5.152,3.676
					c1.365-1.468,4.31-0.495,6.396,1.1c1.237-1.489,2.753-2.455,3.489-3.193C215.693,213.428,213.823,212.793,211.955,212.844z
					 M208.715,220.91c-1.06-0.02-2.463,0.185-3.869,0.905c-2.909,1.49-2.918,5.018-0.212,5.325c-0.069-2.634,2.399-2.57,4.531-2.068
					l1.015-3.944C209.864,221.015,209.351,220.922,208.715,220.91z M212.584,228.77c-1.657,0.171-3.271,0.838-4.384,2.404
					c-1.571,2.211-0.811,5.336,1.099,5.194c-0.315-3.383,2.851-3.028,5.251-3.314L212.584,228.77z M232.834,229.106l-4.006,2.305
					c1.769,1.284,3.193,3.176,2.32,4.93c1.629-0.175,2.909-1.193,3.038-2.752C234.338,231.752,233.506,229.977,232.834,229.106
					L232.834,229.106z M307.515,234.408l-3.007,3.906c2.481,0.049,3.451,1.791,2.494,3.531c1.734,0.166,3.311-1.165,3.441-2.9
					C310.611,236.7,309.182,235.316,307.515,234.408z M282.533,234.876c-1.151-0.031-2.257,0.161-3.314,0.774
					c-2.111,1.224-2.944,4.92,0.215,5.98c0.089-1.497,0.552-3.169,3.861-2.691l1.355-3.811
					C283.93,234.992,283.224,234.894,282.533,234.876z M286.673,242.036c-1.598,0.217-3.797,1.144-4.774,2.615
					c-1.551,2.334-0.655,5.165,0.719,6.092c0.337-2.919,0.861-3.731,4.833-5.108L286.673,242.036z M292.077,245.541
					c-1.255,0.974-2.318,2.221-2.303,4.061c0.029,3.466,2.895,3.423,4.673,2.82c-1.988-1.037-0.862-1.944,0.552-3.106
					c0.735-0.604,0.939-1.32,0.851-2.105L292.077,245.541z"/>
				<path class="st4" d="M292.643,253.221c-0.682,0-1.423-0.14-2.051-0.586c-0.857-0.608-1.297-1.628-1.308-3.029
					c-0.018-2.244,1.414-3.615,2.493-4.452l0.231-0.179l4.299,1.902l0.031,0.28c0.116,1.029-0.23,1.884-1.027,2.538l-0.027,0.022
					c-0.682,0.56-1.456,1.195-1.418,1.56c0.01,0.092,0.107,0.344,0.808,0.71l1.018,0.531l-1.087,0.369
					C294.279,252.996,293.509,253.221,292.643,253.221z M292.15,246.11c-1.313,1.081-1.897,2.166-1.886,3.488
					c0.009,1.069,0.31,1.822,0.896,2.238c0.568,0.403,1.369,0.466,2.128,0.36c-0.209-0.224-0.364-0.493-0.398-0.817
					c-0.092-0.89,0.771-1.599,1.771-2.419l0.027-0.022c0.473-0.389,0.693-0.828,0.691-1.398L292.15,246.11z M283.013,251.601
					l-0.669-0.451c-1.507-1.017-2.588-4.159-0.854-6.77c1.071-1.612,3.403-2.596,5.116-2.829l0.449-0.061l0.966,4.466l-0.41,0.142
					c-3.797,1.317-4.19,1.967-4.506,4.701L283.013,251.601z M286.293,242.599c-1.472,0.305-3.204,1.147-3.986,2.323
					c-1.114,1.677-0.8,3.66-0.036,4.774c0.398-2.252,1.271-3.179,4.609-4.38L286.293,242.599z M307.3,242.349
					c-0.115,0-0.229-0.005-0.344-0.017l-0.742-0.071l0.359-0.653c0.365-0.663,0.402-1.311,0.106-1.823
					c-0.349-0.603-1.143-0.961-2.18-0.981l-0.972-0.019l3.855-5.007l0.367,0.2c2.268,1.234,3.339,2.918,3.183,5.004
					c-0.073,0.972-0.531,1.86-1.292,2.501C308.97,242.048,308.15,242.349,307.3,242.349z M305.429,237.922
					c0.953,0.196,1.695,0.674,2.099,1.373c0.347,0.6,0.418,1.314,0.215,2.035c0.458-0.08,0.893-0.283,1.266-0.597
					c0.557-0.47,0.893-1.118,0.946-1.824c0.118-1.581-0.639-2.848-2.312-3.862L305.429,237.922z M279.885,242.298l-0.607-0.204
					c-1.416-0.475-2.27-1.477-2.407-2.822c-0.157-1.548,0.727-3.25,2.102-4.047c1.038-0.602,2.209-0.877,3.574-0.84
					c0.642,0.017,1.339,0.1,2.194,0.26l0.563,0.106l-1.681,4.729l-0.397-0.057c-1.219-0.176-2.095-0.054-2.607,0.363
					c-0.43,0.35-0.637,0.91-0.695,1.873L279.885,242.298z M282.301,235.363c-1.096,0-2.003,0.228-2.837,0.711
					c-1.04,0.603-1.736,1.936-1.618,3.1c0.056,0.555,0.315,1.265,1.17,1.741c0.109-0.674,0.361-1.382,0.982-1.889
					c0.676-0.551,1.649-0.756,2.966-0.623l1.028-2.892c-0.552-0.087-1.029-0.134-1.472-0.146h0
					C282.447,235.364,282.373,235.363,282.301,235.363z M230.311,236.924l0.399-0.801c0.93-1.869-1.425-3.775-2.169-4.315
					l-0.612-0.444l5.033-2.896l0.261,0.34c0.832,1.08,1.604,2.991,1.452,4.823c-0.143,1.733-1.507,2.989-3.475,3.199
					L230.311,236.924z M229.705,231.472c1.614,1.35,2.377,2.852,2.161,4.22c1.054-0.343,1.748-1.131,1.831-2.143
					c0.127-1.541-0.493-2.978-1.009-3.794L229.705,231.472z M209.175,236.863c-0.766,0-1.437-0.417-1.858-1.164
					c-0.645-1.144-0.687-3.163,0.483-4.809c1.078-1.517,2.671-2.395,4.733-2.608l0.35-0.036l2.393,5.215l-0.668,0.079
					c-0.367,0.044-0.754,0.073-1.128,0.102c-1.322,0.1-2.688,0.204-3.31,0.94c-0.33,0.391-0.455,0.96-0.382,1.74l0.046,0.497
					l-0.498,0.037C209.281,236.861,209.228,236.863,209.175,236.863z M212.288,229.301c-1.601,0.239-2.841,0.964-3.688,2.157
					c-0.923,1.298-0.909,2.906-0.428,3.759c0.125,0.222,0.322,0.469,0.616,0.59c0.017-0.765,0.226-1.376,0.632-1.857
					c0.887-1.051,2.462-1.17,3.986-1.286c0.14-0.011,0.277-0.021,0.411-0.032L212.288,229.301z M205.139,227.69l-0.56-0.064
					c-1.281-0.145-2.174-0.936-2.389-2.115c-0.283-1.555,0.717-3.255,2.432-4.134c1.698-0.87,3.299-0.97,4.102-0.959
					c0.631,0.012,1.206,0.099,1.62,0.245l0.424,0.149l-1.247,4.844l-0.467-0.11c-1.65-0.388-2.834-0.339-3.424,0.14
					c-0.358,0.291-0.523,0.762-0.505,1.439L205.139,227.69z M208.579,221.399c-0.744,0-2.087,0.123-3.51,0.852
					c-1.557,0.797-2.084,2.158-1.915,3.085c0.105,0.576,0.467,0.995,1.018,1.197c0.089-0.686,0.369-1.225,0.838-1.606
					c0.79-0.642,2.035-0.786,3.797-0.436l0.775-3.011c-0.26-0.046-0.564-0.075-0.878-0.081l0,0
					C208.666,221.4,208.623,221.399,208.579,221.399z M213.275,218.295l-0.374-0.286c-1.958-1.496-4.64-2.338-5.739-1.155
					l-0.802,0.863l-0.047-1.177c-0.032-0.809,0.289-1.598,0.929-2.282c1.051-1.124,2.852-1.853,4.7-1.904h0
					c1.999-0.059,3.994,0.623,5.093,1.727l0.345,0.346l-0.345,0.346c-0.276,0.276-0.635,0.568-1.051,0.905
					c-0.728,0.59-1.634,1.324-2.407,2.255L213.275,218.295z M208.677,215.314c1.4,0,3.044,0.663,4.447,1.644
					c0.756-0.837,1.571-1.498,2.242-2.041c0.212-0.172,0.409-0.331,0.582-0.479c-0.966-0.711-2.493-1.141-3.979-1.104h0
					c-1.572,0.043-3.146,0.669-4.011,1.593c-0.138,0.148-0.287,0.335-0.409,0.556C207.897,215.368,208.277,215.314,208.677,215.314z
					 M216.621,180.654c-0.517,0-1.037-0.081-1.541-0.251l-0.727-0.245l0.528-0.557c2.261-2.386,1.854-3.086,0.797-4.323
					l-0.479-0.561l6.162-1.966l0.181,0.394c0.614,1.336,0.481,3.245-0.331,4.751C220.281,179.619,218.469,180.654,216.621,180.654z
					 M216.159,179.647c1.647,0.199,3.353-0.668,4.188-2.217c0.583-1.08,0.75-2.442,0.452-3.471l-3.927,1.253
					C217.797,176.515,217.83,177.681,216.159,179.647z M196.946,178.223l-0.597-0.179c-0.063-0.019-0.134-0.038-0.211-0.059
					c-0.625-0.171-1.672-0.456-2.13-1.402c-0.331-0.683-0.27-1.566,0.181-2.625c1.216-2.857,6.741-4.154,6.976-4.207l0.537-0.123
					l0.635,5.818l-0.553-0.007c-2.132-0.022-4.703,0.329-4.804,2.162L196.946,178.223z M200.848,170.843
					c-1.727,0.481-4.999,1.717-5.757,3.499c-0.335,0.787-0.402,1.397-0.2,1.813c0.215,0.445,0.734,0.657,1.203,0.798
					c0.325-1.214,1.56-2.422,5.149-2.493L200.848,170.843z M198.657,168.283l-0.53-0.391c-0.336-0.248-0.63-0.499-0.913-0.742
					c-1.308-1.121-1.965-1.683-4.15,0.487l-0.65,0.645l-0.177-0.898c-0.498-2.529,0.669-4.741,2.972-5.636
					c0.752-0.292,1.567-0.43,2.415-0.409c1.597,0.04,2.783,0.626,2.833,0.651l0.389,0.195L198.657,168.283z M195.483,165.175
					c0.932,0,1.639,0.606,2.368,1.23c0.11,0.094,0.221,0.189,0.335,0.285l1.432-3.987c-0.426-0.153-1.157-0.362-2.018-0.384l0,0
					c-0.716-0.018-1.405,0.097-2.035,0.342c-1.582,0.615-2.474,1.956-2.462,3.612C194.064,165.473,194.829,165.175,195.483,165.175z
					 M202.851,159.006l-0.305-0.396c-0.914-1.187-2.754-1.534-4.923-0.929l-0.77,0.215l0.157-0.784
					c0.537-2.675,2.863-4.334,5.942-4.244c1.823,0.057,3.454,0.852,4.257,2.073l0.245,0.373L202.851,159.006z M199.603,156.409
					c1.389,0,2.572,0.42,3.388,1.227l3.125-2.506c-0.698-0.759-1.878-1.241-3.195-1.282h0c-2.252-0.075-4.026,0.965-4.723,2.693
					C198.684,156.453,199.154,156.409,199.603,156.409z M205.129,123.028c-0.364,0-0.73-0.033-1.092-0.107
					c-1.136-0.233-2.652-0.98-3.421-3.208l-0.303-0.878l0.896,0.246c2.694,0.739,3.333-0.31,4.009-1.42
					c0.094-0.155,0.186-0.305,0.281-0.447l0.357-0.535l3.877,4.483l-0.292,0.322C208.868,122.112,207.042,123.028,205.129,123.028z
					 M201.916,120.234c0.527,0.938,1.304,1.517,2.318,1.725c1.617,0.331,3.357-0.336,4.146-0.864l-2.41-2.787
					C205.334,119.346,204.44,120.619,201.916,120.234z M198.914,100.519l-0.078-0.603c-0.034-0.261-0.058-0.518-0.081-0.766
					c-0.082-0.875-0.147-1.567-0.575-1.89c-0.424-0.32-1.304-0.358-2.614-0.113l-0.828,0.155l0.274-0.797
					c0.525-1.524,1.806-2.43,3.515-2.486l0,0c0.341-0.012,0.692,0.012,1.044,0.069c2.153,0.35,3.984,1.931,4.664,4.027l0.147,0.453
					L198.914,100.519z M197.036,96.003c0.756,0,1.314,0.156,1.734,0.473c0.774,0.584,0.865,1.554,0.961,2.582
					c0.004,0.041,0.008,0.083,0.012,0.124l3.39-1.21c-0.666-1.526-2.081-2.65-3.72-2.917c-0.289-0.047-0.576-0.065-0.854-0.057l0,0
					c-0.6,0.02-1.574,0.195-2.211,1.042C196.594,96.016,196.823,96.003,197.036,96.003z M219.991,99.732l-4.763-2.25l0.351-0.479
					c0.687-0.937,0.961-1.978,0.753-2.854c-0.142-0.596-0.499-1.056-1.035-1.329l-0.815-0.416l0.797-0.448
					c0.591-0.332,1.26-0.524,1.933-0.555c1.576-0.067,2.949,0.735,3.497,2.056c0.68,1.64,0.245,4.228-0.511,5.831L219.991,99.732z
					 M216.694,97.09l2.811,1.328c0.547-1.425,0.796-3.388,0.3-4.585c-0.393-0.949-1.37-1.505-2.546-1.452l0,0
					c-0.253,0.011-0.506,0.053-0.751,0.121c0.38,0.383,0.648,0.867,0.779,1.42C217.523,94.919,217.308,96.049,216.694,97.09z
					 M212.26,95.571l-4.91-1.279l0.22-0.762c0.219-0.736,0.519-1.745,0.109-2.216c-0.247-0.284-0.908-0.569-2.65-0.306l-0.929,0.14
					l0.417-0.842c0.738-1.491,2.167-2.42,3.823-2.485l0,0c0.954-0.038,1.916,0.214,2.771,0.727c2.413,1.448,1.953,4.27,1.282,6.566
					L212.26,95.571z M208.573,93.597l3.008,0.783c0.522-1.948,0.72-3.976-0.974-4.992c-0.692-0.415-1.462-0.622-2.228-0.588l0,0
					c-0.976,0.038-1.828,0.441-2.441,1.132c1.191-0.049,2.009,0.193,2.482,0.738C209.128,91.485,208.844,92.669,208.573,93.597z"/>
			</g>
			<g>
				<path class="st5" d="M213.036,127.658c-0.097,1.971,0.804,4.347-0.79,6.114c-0.728,0.807-1.9,1.28-3.335,1.237
					c-1.358-0.04-3.301-0.88-4.456-0.825c-1.613,0.077-2.384,1.382-2.356,2.666c0.682-0.502,1.378-0.876,2.355-0.863
					c1.282,0.015,2.748,1.258,5.182,1.09c2.329-0.16,4.336-1.603,5.357-3.712c1.04-2.15,0.342-3.78,1.481-5.742
					c0.176,1.449,0.489,2.782,1.229,4.268c0.958,1.923,2.812,3.179,3.437,7.471c0.254,1.745-0.08,4.051-1.384,5.365
					c1.879,0.81,4.049-0.307,4.826-1.826c1.253,2.666,2.919,5.109,5.228,6.505c2.974,1.798,5.948,2.778,9.388,3.04l6.397-5.481
					l3.625-11.981c-1.864-0.64-4.017-1.506-5.619-2.112c-1.822-0.689-3.808-1.091-5.388-2.52c-1.908-1.725-3.674-4.058-5.437-6.066
					c-3.495-3.98-4.697-3.867-5.876-5.26c-1.219-1.439-1.744-3.42-5.183-7c-0.947-0.986-2.263-1.381-3.139-2.337
					c-0.853-0.932-1.182-2.275-1.088-3.427c0.264-3.245,2.154-3.851,2.706-5.549c0.817-2.512-1.53-4.38-3.953-3.798
					c-1.784,0.429-0.639,2.64-0.801,3.479c-0.238,1.234-1.279,2.306-1.31,3.271c-1.061-0.444-1.271-2.125-1.177-3.738
					c0.118-2.03,0.571-4.739-1.39-6.001c-1.521-0.978-4.023-0.941-4.668,0.973c-0.749,2.225,1.866,2.557,2.039,3.047
					c0.205,0.583,0.306,4.148,0.323,4.737c-0.681-0.307-1.264-0.761-2.06-1.273c-2.147-1.384-2.1-3.454-4.184-3.666
					c-1.921-0.195-4.379,1.159-3.692,3.182c0.827,2.433,3.653,1.955,4.271,2.182c0.702,0.258,5.733,2.899,5.564,10.881
					c-0.023,1.079-3.05,1.005-3.367,3.325c-0.315,2.307,1.084,4.132,3.275,4.007c1.639-0.093,2.655-1.209,3.076-2.31
					c0.465,2.742,1.849,4.641,1.923,5.622C214.117,125.348,213.093,126.498,213.036,127.658L213.036,127.658z M248.601,178.549
					c-1.99,1.276-5.812,2.366-8.826,4.089c-5.576,3.188-8.265,5.548-8.498,8.016c-0.024,0.252-0.749,2.75-3.99,5.059
					c-1.938,1.381-4.471,2.443-7.249,2.274c-1.848-0.112-4.424-0.726-5.245-2.941c-1.355-3.659,2.38-4.933,1.866-8.626
					c-0.233-1.671-1.781-2.275-2.278-2.1c0.71,0.744,1.079,1.772,0.884,2.801c-0.333,1.758-1.782,2.825-2.558,4.814
					c-0.748,1.918-0.746,4.913,1.827,6.811c2.407,1.775,6.592,2.476,10.569,1.301c3.965-1.172,5.401-2.862,6.723-4.394
					c-0.311,1.772,0.185,2.458-0.192,3.792c-0.712,2.519-2.756,3.823-5.1,4.75c2.854,1.761,5.798,0.299,6.934-1.626
					c1.069-1.812,1.668,3.471,0.761,6.785c-0.608,2.221-1.805,4.111-3.492,5.402c-3.78,2.894-6.991,3.107-10.562,2.163
					c-2.059-0.544-1.308-2.668-4.278-3.024c-1.327-0.159-3.044,1.723-3.065,3.146c-0.033,2.27,5.907,2.725,6.445,3.3
					c-1.36,0.924-3.449,1.355-5.303,1.266c-0.683-0.033-2.481-1.531-4.006-0.76c-0.922,0.466-2.657,2.387-1.179,4.235
					c1.548,1.936,3.853,0.168,5.021-0.214c0.95-0.311,5.297-0.091,7.168-0.459c-0.699,1.165-2.437,2.211-4.229,2.702
					c-2.133,0.585-3.491-0.002-4.416,1.39c-1.321,1.986,0.365,5.007,2.296,4.863c3.614-0.265,3.17-4.13,7.044-4.761
					c1.628-0.265,3.505-0.25,4.656,0.015c1.62,0.373-0.455,1.87,1.326,2.877c2.113,1.195,5.441-1.046,5.481-1.998
					c0.072-1.708-1.156-1.825-1.929-2.545c2.441,0.191,4.441,0.102,6.141-0.902c0.017,1.202-0.608,2.054-0.415,3.312
					c0.184,1.2,1.058,1.668,1.988,1.558c-0.221-2.806,1.822-3.403,3.113-5.114c0.643-0.852,1.064-1.659,1.49-2.497
					c0.211,2.149,0.418,5.185,4.624,4.199c-1.875-1.129-2.075-3.538-1.61-5.909c0.164-0.838,0.602-1.57,1.302-2.105
					c1.177-0.9,3.375,1.085,6.348-0.787c-1.264-0.371-1.622-1.097-1.516-1.85c0.138-0.979,0.661-1.84,0.688-2.596
					c0.055-1.502-0.888-2.704-1.625-3.749c-1.238-1.755-1.138-4.916-1.021-7.431c0.164-3.518,1.102-6.095,6.081-9.561
					c4.644-3.232,13.463-1.618,13.509-2.313c1.102-16.283-3.88-18.365-8.134-20.855c-2.044-1.197-2.8-1.546-7.441,2.371
					C252.836,174.324,251.39,176.761,248.601,178.549L248.601,178.549z"/>
				<path class="st4" d="M214.501,233.86c-0.973,0-1.938-0.63-2.55-1.678c-0.754-1.289-0.763-2.84-0.024-3.952
					c0.729-1.096,1.687-1.185,2.797-1.287c0.557-0.051,1.187-0.11,1.898-0.305c1.225-0.336,2.366-0.924,3.148-1.59
					c-0.858,0.063-1.86,0.084-2.84,0.104c-1.265,0.026-2.574,0.053-2.965,0.181c-0.206,0.067-0.482,0.198-0.773,0.336
					c-1.236,0.586-3.305,1.566-4.783-0.282c-0.59-0.737-0.802-1.582-0.615-2.442c0.278-1.276,1.322-2.216,1.956-2.536
					c1.272-0.643,2.634-0.003,3.536,0.42c0.254,0.119,0.602,0.283,0.714,0.288c1.438,0.066,2.943-0.195,4.101-0.694
					c-0.205-0.053-0.423-0.106-0.625-0.156c-2.178-0.535-5.16-1.269-5.132-3.233c0.014-0.921,0.601-2.02,1.495-2.802
					c0.699-0.611,1.453-0.904,2.118-0.824c1.886,0.226,2.495,1.147,2.984,1.887c0.354,0.535,0.634,0.958,1.361,1.15
					c3.92,1.035,6.857,0.433,10.139-2.079c1.581-1.21,2.728-2.988,3.317-5.142c0.66-2.413,0.444-5.451,0.104-6.356
					c-0.722,1.191-1.983,2.105-3.385,2.452c-1.425,0.352-2.876,0.107-4.199-0.709l-0.832-0.514l0.91-0.359
					c2.77-1.095,4.252-2.46,4.808-4.427c0.169-0.598,0.139-1.039,0.101-1.598c-0.014-0.206-0.029-0.421-0.034-0.656
					c-1.193,1.249-2.814,2.522-5.987,3.46c-3.899,1.152-8.319,0.599-10.999-1.377c-2.794-2.06-2.82-5.265-1.993-7.383
					c0.37-0.949,0.89-1.707,1.348-2.375c0.548-0.799,1.021-1.488,1.185-2.352c0.156-0.824-0.127-1.711-0.757-2.371l-0.524-0.549
					l0.716-0.252c0.394-0.139,0.975-0.02,1.516,0.31c0.451,0.275,1.235,0.924,1.41,2.185c0.263,1.887-0.496,3.214-1.164,4.384
					c-0.736,1.288-1.371,2.4-0.727,4.139c0.768,2.073,3.346,2.533,4.815,2.622c2.95,0.179,5.398-1.089,6.935-2.184
					c3.223-2.296,3.784-4.694,3.787-4.717c0.239-2.54,2.772-4.972,8.741-8.385c1.557-0.89,3.347-1.623,4.925-2.269
					c1.51-0.619,2.937-1.202,3.879-1.807h0c1.662-1.065,2.822-2.359,3.943-3.61c0.711-0.793,1.382-1.541,2.136-2.178
					c4.744-4.005,5.7-3.769,8.005-2.42c0.189,0.111,0.38,0.22,0.571,0.331c4.161,2.4,8.878,5.12,7.805,20.981
					c-0.046,0.681-0.726,0.674-2.747,0.65c-2.962-0.035-7.92-0.092-10.972,2.032c-4.756,3.31-5.709,5.689-5.872,9.181
					c-0.101,2.168-0.253,5.445,0.932,7.125l0.161,0.227c0.718,1.008,1.61,2.263,1.554,3.823c-0.017,0.466-0.177,0.923-0.347,1.407
					c-0.141,0.402-0.286,0.816-0.346,1.24c-0.032,0.23-0.131,0.929,1.169,1.311l1.043,0.306l-0.92,0.579
					c-1.928,1.213-3.574,0.936-4.776,0.734c-0.762-0.129-1.244-0.196-1.536,0.028c-0.588,0.449-0.975,1.075-1.119,1.809
					c-0.365,1.862-0.422,4.309,1.382,5.395l1.033,0.622l-1.174,0.275c-1.565,0.367-2.744,0.245-3.606-0.372
					c-0.887-0.636-1.247-1.667-1.431-2.712c-0.234,0.398-0.492,0.794-0.799,1.2c-0.41,0.543-0.877,0.969-1.328,1.381
					c-1.019,0.929-1.824,1.664-1.688,3.399l0.037,0.47l-0.468,0.056c-1.309,0.156-2.326-0.636-2.531-1.97
					c-0.123-0.8,0.039-1.436,0.196-2.052c0.043-0.168,0.085-0.332,0.12-0.497c-1.228,0.509-2.563,0.651-3.91,0.636
					c0.45,0.396,0.814,0.973,0.771,1.995c-0.032,0.751-1.035,1.569-1.885,2.041c-1.569,0.872-3.187,1.008-4.327,0.363
					c-1.224-0.692-1.055-1.666-0.954-2.247c0.087-0.504,0.087-0.504-0.24-0.579c-1.103-0.254-2.94-0.258-4.467-0.009
					c-1.742,0.284-2.502,1.276-3.306,2.327c-0.861,1.126-1.752,2.29-3.781,2.439C214.611,233.858,214.556,233.86,214.501,233.86z
					 M221.968,223.715l-0.568,0.946c-0.735,1.224-2.509,2.371-4.519,2.923c-0.794,0.218-1.47,0.28-2.067,0.335
					c-1.082,0.1-1.621,0.178-2.071,0.854c-0.648,0.975-0.376,2.179,0.054,2.915c0.457,0.782,1.148,1.242,1.798,1.188
					c1.59-0.117,2.278-1.016,3.075-2.057c0.844-1.103,1.8-2.353,3.927-2.699c1.666-0.271,3.612-0.263,4.845,0.021
					c1.232,0.284,1.072,1.207,0.986,1.702c-0.094,0.545-0.152,0.874,0.471,1.226c1.118,0.632,2.563,0.041,3.133-0.243
					c1.01-0.503,1.59-1.148,1.617-1.352c0.04-0.958-0.377-1.218-1.009-1.611c-0.256-0.16-0.522-0.325-0.765-0.551l-1.028-0.957
					l1.401,0.109c2.354,0.184,4.248,0.112,5.853-0.836l0.727-0.43l0.012,0.845c0.008,0.597-0.12,1.099-0.243,1.584
					c-0.139,0.544-0.27,1.058-0.177,1.66c0.125,0.814,0.596,1.072,0.997,1.138c0.029-1.85,1.041-2.773,2.022-3.668
					c0.418-0.381,0.851-0.776,1.207-1.247c0.603-0.799,0.995-1.539,1.444-2.424l0.761-1.498l0.177,1.803
					c0.119,1.228,0.268,2.756,1.201,3.425c0.428,0.307,1.023,0.433,1.774,0.38c-1.112-1.224-1.438-3.164-0.943-5.692
					c0.191-0.973,0.704-1.803,1.486-2.4c0.645-0.494,1.446-0.359,2.294-0.216c0.949,0.16,2.001,0.337,3.232-0.155
					c-0.935-0.634-0.941-1.526-0.882-1.945c0.073-0.519,0.242-1.002,0.391-1.427c0.144-0.412,0.281-0.801,0.292-1.118
					c0.045-1.227-0.708-2.285-1.373-3.218l-0.164-0.231c-1.273-1.804-1.246-4.811-1.11-7.736c0.174-3.728,1.228-6.416,6.291-9.941
					c3.309-2.303,8.464-2.243,11.543-2.208c0.671,0.007,1.415,0.017,1.776-0.021c0.96-14.996-3.256-17.429-7.335-19.78
					c-0.193-0.111-0.385-0.222-0.576-0.334c-1.871-1.095-2.436-1.426-6.877,2.323c-0.703,0.593-1.352,1.317-2.039,2.084
					c-1.111,1.239-2.37,2.644-4.144,3.781h0c-1.018,0.652-2.484,1.253-4.037,1.889c-1.627,0.666-3.308,1.355-4.81,2.213
					c-5.656,3.233-8.047,5.445-8.253,7.636c-0.049,0.515-0.947,3.1-4.194,5.413c-1.667,1.187-4.335,2.561-7.563,2.364
					c-1.707-0.104-4.714-0.665-5.675-3.261c-0.803-2.168,0.01-3.591,0.796-4.966c0.648-1.135,1.261-2.207,1.044-3.763
					c-0.082-0.589-0.351-0.982-0.623-1.235c0.247,0.628,0.32,1.306,0.196,1.96c-0.202,1.067-0.754,1.872-1.339,2.725
					c-0.449,0.655-0.914,1.332-1.243,2.176c-0.701,1.796-0.686,4.507,1.662,6.238c2.445,1.802,6.52,2.295,10.139,1.225
					c3.796-1.122,5.15-2.691,6.46-4.208l1.192-1.381l-0.307,1.751c-0.142,0.809-0.104,1.368-0.068,1.908
					c0.041,0.602,0.079,1.17-0.136,1.931c-0.7,2.476-2.58,3.801-4.397,4.647c1.011,0.369,1.904,0.298,2.531,0.143
					c1.171-0.29,2.22-1.055,2.806-2.048c0.437-0.741,0.929-0.634,1.12-0.553c1.224,0.517,1.227,5.191,0.536,7.717
					c-0.646,2.363-1.914,4.321-3.667,5.662c-3.506,2.684-6.791,3.357-10.985,2.248c-1.088-0.288-1.534-0.962-1.928-1.557
					c-0.455-0.688-0.848-1.282-2.283-1.454c-0.381-0.048-0.876,0.169-1.356,0.589c-0.674,0.589-1.151,1.443-1.16,2.078
					c-0.017,1.185,2.739,1.862,4.386,2.267c1.153,0.283,1.674,0.42,1.927,0.691l0.391,0.418l-0.474,0.322
					c-1.373,0.932-3.518,1.45-5.602,1.35c-0.305-0.014-0.649-0.176-1.084-0.38c-0.816-0.383-1.832-0.86-2.677-0.432
					c-0.468,0.237-1.249,0.994-1.44,1.87c-0.124,0.57,0.018,1.115,0.423,1.621c0.92,1.15,2.122,0.707,3.597,0.008
					c0.32-0.152,0.623-0.295,0.888-0.382c0.505-0.165,1.564-0.195,3.25-0.23c1.431-0.029,3.054-0.063,3.976-0.244L221.968,223.715z
					 M234.009,202.657C234.009,202.657,234.009,202.657,234.009,202.657S234.009,202.657,234.009,202.657z M239.362,152.95
					l-0.202-0.015c-3.484-0.265-6.535-1.253-9.605-3.109c-1.955-1.182-3.61-3.134-5.045-5.953c-1.112,1.295-3.149,2.081-4.949,1.305
					l-0.661-0.285l0.507-0.511c1.185-1.194,1.48-3.346,1.247-4.949c-0.427-2.937-1.449-4.389-2.35-5.671
					c-0.384-0.547-0.748-1.063-1.041-1.652c-0.423-0.849-0.73-1.677-0.952-2.593c-0.063,0.348-0.1,0.697-0.137,1.053
					c-0.098,0.931-0.2,1.894-0.74,3.01c-1.109,2.291-3.318,3.819-5.764,3.988c-1.576,0.107-2.769-0.333-3.727-0.688
					c-0.575-0.213-1.071-0.396-1.494-0.401c-0.832-0.007-1.423,0.299-2.059,0.768l-0.76,0.56l-0.02-0.944
					c-0.033-1.505,0.926-3.076,2.823-3.167c0.67-0.031,1.499,0.184,2.376,0.412c0.745,0.194,1.516,0.395,2.118,0.413
					c1.247,0.042,2.297-0.345,2.956-1.075c1-1.109,0.876-2.511,0.744-3.996c-0.053-0.601-0.108-1.223-0.079-1.814
					c0.035-0.716,0.362-1.379,0.651-1.965c0.184-0.373,0.392-0.796,0.377-0.998c-0.024-0.316-0.269-0.862-0.554-1.495
					c-0.337-0.751-0.767-1.708-1.083-2.839c-0.619,0.772-1.565,1.402-2.845,1.475c-1.115,0.064-2.121-0.324-2.829-1.09
					c-0.794-0.859-1.144-2.125-0.96-3.473c0.222-1.625,1.527-2.25,2.481-2.706c0.329-0.157,0.879-0.42,0.882-0.564
					c0.174-8.188-5.189-10.391-5.243-10.411c-0.073-0.026-0.333-0.043-0.541-0.056c-1.144-0.076-3.274-0.217-4.025-2.428
					c-0.285-0.839-0.139-1.683,0.413-2.376c0.797-1.001,2.354-1.597,3.793-1.451c1.395,0.142,2.015,1.022,2.615,1.874
					c0.455,0.646,0.926,1.314,1.785,1.868c0.229,0.147,0.44,0.29,0.641,0.425c0.223,0.15,0.432,0.291,0.637,0.42
					c-0.078-2.241-0.178-3.355-0.252-3.673c-0.078-0.055-0.248-0.143-0.376-0.209c-0.764-0.396-2.354-1.22-1.681-3.217
					c0.283-0.84,0.882-1.441,1.734-1.74c1.128-0.395,2.567-0.195,3.664,0.511c1.991,1.281,1.808,3.763,1.661,5.758
					c-0.017,0.234-0.034,0.463-0.047,0.683c-0.075,1.29,0.069,2.267,0.403,2.816c0.124-0.307,0.29-0.613,0.46-0.929
					c0.271-0.501,0.552-1.019,0.653-1.542c0.03-0.154-0.032-0.508-0.087-0.82c-0.172-0.984-0.461-2.631,1.255-3.043
					c1.448-0.348,2.927,0.064,3.861,1.075c0.829,0.897,1.074,2.119,0.673,3.352c-0.233,0.716-0.655,1.236-1.101,1.787
					c-0.702,0.865-1.428,1.76-1.582,3.65c-0.092,1.137,0.276,2.308,0.961,3.056c0.395,0.432,0.908,0.746,1.452,1.08
					c0.573,0.351,1.166,0.715,1.679,1.249c2.295,2.389,3.333,4.111,4.092,5.368c0.401,0.665,0.718,1.19,1.112,1.655
					c0.404,0.477,0.811,0.759,1.375,1.15c0.963,0.668,2.282,1.582,4.495,4.103c0.519,0.591,1.048,1.222,1.559,1.831
					c1.236,1.474,2.514,2.997,3.838,4.195c1.145,1.035,2.509,1.493,3.953,1.978c0.421,0.141,0.856,0.287,1.279,0.447
					c0.467,0.177,0.981,0.375,1.52,0.584c1.299,0.502,2.771,1.072,4.084,1.523l0.447,0.153l-3.804,12.571L239.362,152.95z
					 M224.6,141.787l0.425,0.905c1.434,3.052,3.082,5.111,5.038,6.294c2.874,1.738,5.729,2.679,8.97,2.954l6.133-5.255l3.447-11.394
					c-1.21-0.427-2.51-0.93-3.673-1.38c-0.537-0.208-1.049-0.406-1.514-0.581c-0.406-0.153-0.832-0.296-1.244-0.435
					c-1.476-0.495-3.002-1.008-4.299-2.18c-1.375-1.243-2.675-2.793-3.932-4.292c-0.508-0.605-1.032-1.231-1.544-1.814
					c-2.134-2.43-3.396-3.305-4.317-3.944c-0.578-0.401-1.077-0.747-1.565-1.322c-0.444-0.525-0.796-1.107-1.203-1.782
					c-0.775-1.285-1.741-2.885-3.96-5.196c-0.425-0.443-0.94-0.758-1.484-1.092c-0.577-0.354-1.174-0.72-1.663-1.253
					c-0.876-0.957-1.331-2.377-1.215-3.798c0.178-2.192,1.076-3.299,1.798-4.188c0.404-0.498,0.754-0.929,0.93-1.472
					c0.292-0.899,0.129-1.745-0.461-2.383c-0.683-0.739-1.825-1.047-2.911-0.787c-0.696,0.167-0.741,0.648-0.518,1.92
					c0.079,0.453,0.148,0.843,0.084,1.175c-0.13,0.671-0.461,1.283-0.754,1.823c-0.275,0.508-0.535,0.988-0.548,1.371l-0.023,0.711
					l-0.656-0.275c-1.1-0.46-1.611-1.919-1.477-4.219c0.013-0.225,0.03-0.459,0.048-0.698c0.135-1.826,0.287-3.896-1.214-4.862
					c-0.839-0.54-1.968-0.705-2.809-0.41c-0.564,0.198-0.944,0.577-1.129,1.128c-0.375,1.114,0.262,1.546,1.203,2.034
					c0.402,0.208,0.72,0.373,0.833,0.694c0.153,0.433,0.271,2.076,0.35,4.881l0.022,0.783l-0.714-0.316
					c-0.526-0.237-0.978-0.542-1.5-0.894c-0.196-0.132-0.401-0.271-0.624-0.414c-1.02-0.657-1.57-1.438-2.056-2.128
					c-0.58-0.823-0.963-1.366-1.913-1.463c-1.086-0.109-2.346,0.357-2.927,1.086c-0.346,0.435-0.43,0.923-0.251,1.45
					c0.541,1.591,2.118,1.695,3.161,1.764c0.356,0.024,0.613,0.041,0.815,0.115c0.061,0.022,6.073,2.483,5.885,11.352
					c-0.016,0.747-0.739,1.093-1.439,1.427c-0.876,0.419-1.782,0.852-1.932,1.954c-0.144,1.057,0.114,2.032,0.708,2.675
					c0.513,0.555,1.223,0.825,2.053,0.777c1.786-0.101,2.477-1.553,2.646-1.996l0.641-1.678l0.301,1.771
					c0.264,1.559,0.834,2.826,1.291,3.844c0.335,0.747,0.6,1.336,0.637,1.824c0.035,0.469-0.202,0.949-0.476,1.505
					c-0.246,0.5-0.526,1.066-0.551,1.58c-0.026,0.524,0.024,1.085,0.077,1.679c0.138,1.553,0.294,3.313-0.992,4.739
					c-0.855,0.948-2.174,1.441-3.714,1.399c-0.713-0.021-1.538-0.236-2.336-0.444c-0.767-0.199-1.563-0.405-2.082-0.381
					c-0.907,0.043-1.464,0.55-1.721,1.195c0.478-0.228,1.025-0.373,1.703-0.372c0.592,0.007,1.19,0.228,1.822,0.462
					c0.916,0.339,1.956,0.724,3.32,0.629c2.097-0.144,3.993-1.461,4.949-3.436c0.465-0.961,0.554-1.799,0.647-2.686
					c0.103-0.976,0.21-1.984,0.851-3.089l0.734-1.265l0.176,1.452c0.195,1.61,0.549,2.838,1.181,4.108
					c0.26,0.522,0.602,1.009,0.965,1.525c0.916,1.304,2.057,2.926,2.518,6.094c0.218,1.501,0.053,3.641-1.02,5.178
					c1.453,0.245,2.954-0.646,3.54-1.793L224.6,141.787z"/>
			</g>
			<g>
				<path class="st5" d="M261.124,170.806c3.116,2.949,5.181,8.537,4.928,12.034c-3.096,5.238-2.264,8.243,0.728,8.401
					c2.441,0.13,2.956-2.595,2.931-5.925c-0.023-2.971-0.389-5.448-1.582-8.023C266.499,173.778,263.807,172.13,261.124,170.806
					L261.124,170.806z"/>
				<path class="st4" d="M266.945,191.735c-0.063,0-0.127-0.002-0.192-0.005c-1.284-0.068-2.233-0.606-2.743-1.557
					c-0.869-1.62-0.315-4.274,1.56-7.481c0.183-3.233-1.674-8.588-4.783-11.53l0.554-0.796c2.583,1.274,5.485,2.949,7.232,6.719
					c1.115,2.407,1.602,4.867,1.628,8.226c0.023,3.01-0.405,4.771-1.388,5.71C268.316,191.496,267.688,191.735,266.945,191.735z
					 M263.225,172.523c2.259,3.232,3.517,7.567,3.315,10.352l-0.008,0.115l-0.059,0.099c-1.715,2.903-2.298,5.316-1.599,6.62
					c0.344,0.642,0.994,0.992,1.931,1.042c0.554,0.031,0.99-0.114,1.33-0.439c0.749-0.716,1.104-2.349,1.084-4.993
					c-0.025-3.21-0.484-5.549-1.537-7.821C266.573,175.103,264.933,173.611,263.225,172.523z"/>
			</g>
			<g>
				<path class="st5" d="M302.125,189.931c2.225-0.15,4.57-2.674,8.502,1.513c0.755-1.623,0.624-3.689-1.172-4.886
					c2.555-1.75,4.877-5.08,5.092-8.475c0.259-4.101,1.848-9.256,5.187-10.568c1.771-0.696,3.476,0.546,3.377,2.746
					c-0.215,4.775-4.661,6.079-4.939,11.419c-0.153,2.944,1.766,5.937,5.104,4.18c-1.92-0.828-3.192-2.068-3.096-3.607
					c0.289-4.624,6.044-8.405,6.418-12.774c0.44-5.14-2.5-6.687-4.584-6.833c-2.791-0.196-6.139,1.641-8.102,5.168
					c-1.21-5.035,2.21-10.047,5.993-12.498c3.17-2.054,6.783-3.872,8.503-6.759c1.94-3.255,1.432-7.278-0.689-9.213
					c-0.058,1.92-1.32,5.173-5.291,7.335c-4.82,2.624-9.504,4.178-13.268,11.407c-1.146-12.737,12.418-18.052,18.006-22.143
					c6.936-5.079,4.363-15.703,2.184-17.108c0.169,1.786,0.313,4.584-1.737,7.95c-2.371,3.893-6.641,5.738-11.773,8.73
					c-5.105,2.976-9.288,7.63-11.206,12.453c-0.642-3.206,1.627-7.931,4.551-11.273c3.028-3.461,6.673-6.521,8.743-8.365
					c4.123-3.674,10.136-8.768,10.502-19.617c0.259-7.63-3.668-12.87-9.041-14.964c-3.151-1.228-7.728-1.309-10.859-0.525
					c-1.571,0.393-3.132,0.977-4.588,1.903c-1.025,0.651-2.831,0.311-2.696-1.509c0.159-2.145,3.213-2.38,3.476-4.896
					c0.217-2.076-1.398-3.699-3.084-4.481c0.448,1.257,0.875,2.738,0.038,4.227c-1.091,1.94-3.675,1.801-3.92,5.426
					c-0.121,1.813,1.137,3.822,2.863,4.286c0.206,0.119-0.288,0.384-0.427,0.586c-1.826,2.64-2.082,6.079-1.831,8.453
					c0.419,3.965,1.829,5.331,1.939,9.009c0.034,1.147,0.115,4.453-1.21,6.667c-1.634,2.729-3.064,3.83-4.664,4.717
					c2.291,0.086,4.724-0.505,6.419-1.212c3.133-1.306,5.721-5.28,6.19-7.883c0.312-1.733,0.192-3.344-0.074-4.908
					c1.562,0.485,4.261,0.492,6.116-0.804c1.905-1.331,2.909-4.129,1.423-6.511c-0.431,2.462-2.046,3.391-4.503,3.55
					c-2.337,0.151-4.244-1.263-4.512-3.797c-0.395-3.736,2.721-6.542,7.097-6.704c5.796-0.214,9.053,3.963,8.885,9.539
					c-0.169,5.589-2.832,9.766-6.659,13.186c-3.288,2.938-6.754,5.799-10.163,9.354c-2.659,2.773-7.887,8.642-7.877,16.25
					c0.007,5.638,1.761,10.153,4.429,14.194c2.668,4.041,4.273,7.423,5.448,10.579c1.411,3.793,0.925,9.03-2.746,10.587
					c-3.802,1.613-9.073-0.555-11.049-5.516c-1.382-3.471-3.47-7.125-5.376-10.588c-2.036-3.698-5.802-7.075-7.181-11.954
					c-1.222-4.325-1.076-9.362-0.837-11.912c0.654-6.988-1.674-13.492-8.328-15.57s-12.187-0.217-15.782,3.085
					c-3.645,3.348-4.247,7.749-7.829,11.656c-3.435,3.746-9.482,4.947-13.612,7.263c-4.108,2.304-7.44,5.495-11.029,8.036
					c-0.971,0.688-2.737,2.058-6.671,2.076c-1.401,0.006-3.252-0.357-4.823-1.191c-2.708-1.438-1.97-2.896-3.842-3.346
					c-2.442-0.587-4.787,1.53-4.707,3.516c0.094,2.367,2.544,1.39,3.681,1.475c1.683,0.126,0.61,1.557,4.864,2.838
					c-1.917,0.613-4.239,0.738-6.466,0.54c-1.494-0.132-2.648-1.629-4.633-1.201c-2.3,0.496-3.96,3.407-2.161,5.218
					c1.123,1.132,3.754-0.132,4.885-0.211c0.611-0.042,3.689,0.684,5.982,0.656c-0.711,0.731-1.784,1.341-3.241,1.466
					c-1.754,0.15-2.725-0.13-3.92,0.299c-2.981,1.07-2.462,5.674,0.999,5.563c1.649-0.052,3.059-0.696,3.788-1.575
					c0.984-1.186,2.631-3.07,6.562-2.865c3.869,0.202,1.587,2.699,1.96,3.679c0.65,1.705,4.785,0.893,6.033-0.732
					c0.716-0.932,0.38-2.058-0.196-2.652c1.824,0.12,3.484,0.056,5.025-0.244c0.131,0.443-0.254,1.912-0.527,2.492
					c1.978-0.158,2.524-1.354,4.056-2.077c1.389-0.656,3.448-1.405,5.516-3.358c0.02,1.192-0.563,2.467-0.527,4.019
					c0.037,1.627,1.361,2.616,2.743,2.75c-0.185-3.254,0.048-5.399,2.27-6.708c1.083-0.638,2.456-1.148,3.615-1.588
					c1.863-0.707,3.411-1.908,4.385-3.167c0.275-0.356,2.065-2.089,2.472-1.634c0.472,0.812,0.908,1.646,2.641,3.322
					c1.658,1.603,3.429,2.89,5.401,4.004c2.26,1.278,5.014,2.904,6.56,4.04c1.746,1.283,3.072,2.879,3.961,5.34
					c0.847,2.345,1.234,5.202,1.1,7.732c-0.1,1.895-0.238,3.493-0.032,5.229c0.225,1.898,1.654,2.677,1.581,4.441
					c-0.03,0.731-1.87,1.607-1.929,3.681c-0.081,2.816,1.305,3.98,1.243,5.744c-0.05,1.421-1.041,2.502-2.157,3.012
					c1.131,1.709,4.017,0.339,4.772-1.733c1.112,1.404,1.911,3.618,1.797,6.14c-0.3,3.394-2.676,5.359-6.75,7.286
					c-2.776,1.312-7.935,4.57-8.12,8.516c-0.079,1.717,0.304,3.037,1.266,4.087c-0.266-1.605-0.047-3.27,1.028-4.94
					c2.521-3.914,7.51-5.13,11.246-7.498c3.489-2.212,4.906-5.039,5.037-8.162c0.105-2.452-0.875-6.124-0.88-6.99
					c1.068,1.441,1.967,2.49,3.239,3.422c1.557,1.141,3.473,1.892,5.047,2.733c1.879,1.004,3.485,2.445,4.956,3.738
					c1.197,1.052,2.681,2.43,3.548,3.861c0.208,0.343,0.658,1.899,0.638,3.48c-0.012,0.921-0.048,3.042-0.229,4.579
					c-0.23,1.955-0.92,4.122-2.232,5.913c-0.796,1.087-1.942,1.932-3.325,2.449c-1.788,0.669-2.956-0.205-4.26-0.127
					c-2.11,0.127-3.057,2.817-1.883,4.361c0.999,1.314,2.571,0.073,3.693-0.547c1.032-0.57,3.023-0.617,4.979-1.341
					c-2.627,4.077-3.833,2.739-5.026,3.824c-1.433,1.303-0.656,5.203,1.341,4.749c2.133-0.484,1.661-2.115,1.96-2.36
					c0.653-0.537,2.855-1.656,4.791-4.03c0,0,0.012,1.719-0.395,2.637c-0.498,1.123-2.571,1.442-2.727,3.125
					c-0.216,2.327,2.315,2.925,4.102,2.11c2.986-1.362,0.563-4.221,1.516-5.43c1.003-1.273,1.749,0.053,4.869-4.296
					c0.341,0.653,1.155,1.015,2.023,0.908c2.258-0.279,4.615-3.098,3.013-4.787c-0.884-0.931-3.767,0.049-3.038-0.73
					c1.285-1.374,2.316-4.435,2.648-5.387c0.614,1.223,1.367,2.685,3.548,2.387c-1.614-3.515,0.888-3.355,0.995-5.897
					c0.03-0.725-0.273-1.585-0.64-2.161c2.445,1.267,7.407,1.811,6.952-2.39c-2.554,1.907-4.168,0.856-5.866-0.215
					c-1.168-0.737-2.482-1.922-2.376-4.142c0.112-2.372,1.694-1.749,1.921-4.378c0.074-0.859-0.13-1.925-0.863-2.311
					c-1.127-0.594-2.544,0.174-2.301-1.76c0.129-1.026,3.043-2.93,4.465-3.763c-0.926-0.078-2.717,0.012-4.051,0.44
					c-1.126,0.361-2.936,1.505-4.717,1.303c-1.101-0.125-2.551-1.367-3.887-2.769c-1.83-1.92-3.352-4.369-4.341-7.25
					c-0.785-2.285-1.19-6.459-0.575-6.362C297.536,189.121,299.583,190.102,302.125,189.931L302.125,189.931z"/>
				<path class="st4" d="M294.382,248.233c-0.733,0-1.433-0.194-1.969-0.575c-0.757-0.538-1.122-1.396-1.027-2.418
					c0.112-1.216,1.026-1.845,1.76-2.351c0.441-0.304,0.857-0.591,1.007-0.928c0.123-0.278,0.205-0.666,0.259-1.057
					c-1.229,1.241-2.444,2.045-3.237,2.57c-0.248,0.164-0.452,0.299-0.591,0.404c-0.011,0.051-0.023,0.125-0.032,0.185
					c-0.098,0.616-0.301,1.898-2.199,2.329c-0.892,0.201-1.719-0.245-2.216-1.197c-0.683-1.31-0.67-3.387,0.436-4.393
					c0.478-0.435,0.958-0.555,1.423-0.671c0.717-0.179,1.513-0.378,2.712-1.908c-0.51,0.127-1.004,0.225-1.464,0.317
					c-0.857,0.17-1.596,0.318-2.057,0.572c-0.15,0.083-0.309,0.177-0.473,0.275c-1.084,0.645-2.72,1.621-3.847,0.139
					c-0.691-0.909-0.804-2.223-0.287-3.348c0.487-1.061,1.434-1.734,2.532-1.799c0.549-0.033,1.063,0.079,1.56,0.188
					c0.804,0.176,1.564,0.342,2.557-0.03c1.29-0.483,2.363-1.271,3.102-2.28c1.131-1.544,1.891-3.561,2.141-5.68
					c0.124-1.061,0.2-2.585,0.225-4.528c0.019-1.539-0.429-2.991-0.567-3.22c-0.815-1.344-2.202-2.648-3.452-3.746l-0.184-0.162
					c-1.44-1.267-2.929-2.576-4.679-3.512c-0.482-0.258-0.993-0.505-1.534-0.766c-1.211-0.586-2.464-1.192-3.571-2.004
					c-0.836-0.613-1.516-1.274-2.173-2.041c0.288,1.55,0.663,3.619,0.594,5.234c-0.15,3.557-1.921,6.436-5.265,8.555
					c-1.186,0.752-2.509,1.396-3.789,2.02c-2.775,1.352-5.646,2.75-7.308,5.33c-0.919,1.426-1.232,2.93-0.957,4.594l0.269,1.628
					l-1.114-1.217c-1.039-1.134-1.482-2.545-1.395-4.441c0.227-4.833,7.037-8.292,8.4-8.937c4.403-2.081,6.217-4.012,6.471-6.885
					c0.083-1.857-0.374-3.727-1.241-5.143c-0.685,1.067-1.87,1.885-3.028,2.022c-0.941,0.114-1.732-0.233-2.221-0.972l-0.317-0.478
					l0.522-0.238c0.875-0.4,1.825-1.288,1.871-2.583c0.024-0.681-0.212-1.29-0.485-1.995c-0.378-0.975-0.806-2.08-0.758-3.745
					c0.042-1.484,0.893-2.436,1.456-3.066c0.193-0.216,0.458-0.512,0.473-0.623c0.033-0.787-0.297-1.355-0.677-2.013
					c-0.367-0.634-0.783-1.352-0.901-2.348c-0.184-1.545-0.104-2.944-0.013-4.564l0.042-0.749c0.132-2.496-0.269-5.315-1.072-7.54
					c-0.791-2.19-1.96-3.766-3.79-5.111c-1.683-1.237-4.802-3.042-6.511-4.008c-2.078-1.175-3.877-2.509-5.5-4.078
					c-1.637-1.583-2.165-2.462-2.607-3.225c-0.455,0.192-1.491,1.113-1.778,1.484c-1.099,1.421-2.775,2.633-4.598,3.326
					l-0.162,0.062c-1.116,0.423-2.381,0.903-3.377,1.49c-1.951,1.149-2.214,3.009-2.029,6.257l0.033,0.572l-0.57-0.056
					c-1.502-0.147-3.139-1.219-3.185-3.227c-0.02-0.889,0.149-1.692,0.298-2.4c0.031-0.15,0.063-0.297,0.091-0.442
					c-1.491,1.174-2.928,1.82-4.03,2.316c-0.23,0.103-0.447,0.201-0.65,0.297c-0.512,0.242-0.901,0.539-1.312,0.854
					c-0.744,0.569-1.514,1.157-2.914,1.269l-0.843,0.067l0.361-0.765c0.206-0.437,0.404-1.198,0.478-1.699
					c-1.11,0.172-2.304,0.236-3.618,0.196c0.292,0.743,0.265,1.642-0.329,2.415c-0.946,1.232-3.328,2.085-5.094,1.826
					c-0.902-0.132-1.536-0.565-1.785-1.218c-0.165-0.433-0.029-0.922,0.114-1.44c0.147-0.53,0.299-1.078,0.072-1.393
					c-0.151-0.209-0.57-0.471-1.713-0.53c-3.766-0.197-5.264,1.61-6.159,2.688c-0.851,1.026-2.442,1.698-4.15,1.752
					c-1.748,0.062-3.078-0.971-3.392-2.617c-0.267-1.399,0.312-3.215,2.212-3.897c0.822-0.295,1.541-0.287,2.371-0.281
					c0.482,0.005,1.028,0.01,1.672-0.045c0.777-0.066,1.401-0.279,1.894-0.542c-1.102-0.089-2.228-0.269-3.123-0.412
					c-0.622-0.099-1.264-0.201-1.436-0.19c-0.273,0.019-0.704,0.133-1.159,0.255c-1.382,0.368-3.102,0.825-4.108-0.188
					c-0.824-0.83-1.1-1.964-0.76-3.113c0.426-1.436,1.698-2.614,3.165-2.93c1.366-0.294,2.375,0.205,3.266,0.646
					c0.521,0.258,1.014,0.502,1.514,0.546c1.277,0.113,3.012,0.156,4.733-0.145c-1.42-0.629-1.938-1.26-2.311-1.713
					c-0.303-0.368-0.416-0.506-0.901-0.542c-0.214-0.015-0.526,0.018-0.854,0.054c-0.852,0.094-1.912,0.211-2.621-0.4
					c-0.409-0.352-0.631-0.89-0.659-1.599c-0.044-1.102,0.532-2.255,1.541-3.084c1.097-0.902,2.471-1.24,3.77-0.928
					c1.1,0.264,1.475,0.845,1.871,1.46c0.377,0.585,0.805,1.249,2.086,1.929c1.575,0.836,3.381,1.133,4.559,1.133
					c0.011,0,0.021,0,0.032,0c3.627-0.017,5.283-1.197,6.273-1.902l0.117-0.083c1.289-0.913,2.521-1.891,3.825-2.927
					c2.258-1.793,4.593-3.648,7.248-5.137c1.449-0.813,3.086-1.473,4.818-2.172c3.193-1.288,6.494-2.62,8.672-4.995
					c1.655-1.805,2.671-3.745,3.654-5.621c1.144-2.184,2.225-4.246,4.205-6.065c4.27-3.922,10.196-5.085,16.26-3.192
					c6.19,1.933,9.431,7.946,8.67,16.083c-0.146,1.556-0.516,7.002,0.821,11.733c0.858,3.037,2.672,5.481,4.425,7.844
					c1.011,1.362,1.965,2.648,2.713,4.007l0.637,1.154c1.733,3.133,3.524,6.373,4.765,9.489c0.927,2.328,2.728,4.192,4.941,5.116
					c1.849,0.772,3.839,0.818,5.461,0.131c3.299-1.399,3.855-6.262,2.478-9.964c-1.34-3.602-3.055-6.932-5.397-10.479
					c-3.07-4.65-4.504-9.246-4.51-14.463c-0.011-8.221,6.029-14.52,8.013-16.59c2.611-2.723,5.256-5.042,7.814-7.285
					c0.8-0.701,1.593-1.396,2.376-2.096c4.224-3.774,6.348-7.973,6.495-12.835c0.086-2.85-0.763-5.311-2.391-6.928
					c-1.478-1.467-3.55-2.198-5.985-2.106c-2.254,0.083-4.234,0.924-5.433,2.306c-0.935,1.078-1.348,2.411-1.195,3.856
					c0.231,2.183,1.795,3.502,3.993,3.359c2.482-0.161,3.694-1.101,4.052-3.145l0.221-1.262l0.678,1.087
					c1.654,2.652,0.506,5.729-1.559,7.172c-1.648,1.151-4.015,1.387-5.802,1.052c0.22,1.622,0.206,2.986-0.039,4.345
					c-0.522,2.896-3.252,6.902-6.484,8.249c-2.065,0.861-4.543,1.326-6.626,1.249l-1.757-0.066l1.538-0.853
					c1.629-0.903,2.946-1.977,4.481-4.54c0.843-1.407,1.226-3.56,1.141-6.401c-0.056-1.872-0.466-3.138-0.9-4.479
					c-0.409-1.264-0.833-2.571-1.036-4.494c-0.166-1.568-0.312-5.564,1.915-8.783c0.018-0.027,0.039-0.053,0.06-0.078
					c-1.568-0.774-2.705-2.702-2.582-4.548c0.171-2.527,1.414-3.42,2.51-4.208c0.579-0.416,1.125-0.809,1.472-1.426
					c0.729-1.297,0.364-2.599-0.072-3.822l-0.393-1.101l1.061,0.492c1.71,0.792,3.617,2.571,3.366,4.976
					c-0.158,1.507-1.16,2.292-2.044,2.986c-0.735,0.576-1.37,1.074-1.431,1.895c-0.04,0.534,0.117,0.911,0.467,1.12
					c0.412,0.247,1.033,0.221,1.478-0.061c1.362-0.865,2.909-1.508,4.732-1.964c2.953-0.739,7.732-0.79,11.156,0.544
					c6.104,2.379,9.601,8.15,9.353,15.438c-0.364,10.801-6.147,15.946-10.369,19.702l-0.297,0.264
					c-0.315,0.281-0.666,0.59-1.047,0.924c-2.155,1.893-5.106,4.487-7.654,7.399c-2.472,2.826-4.127,6.164-4.471,8.81
					c2.21-4.202,6.015-8.116,10.51-10.737c0.906-0.528,1.783-1.019,2.63-1.494c3.959-2.217,7.085-3.969,8.972-7.067
					c1.818-2.985,1.876-5.44,1.668-7.649l-0.095-1.005l0.848,0.547c1.331,0.858,2.449,4.076,2.545,7.326
					c0.078,2.611-0.431,7.459-4.705,10.589c-1.035,0.758-2.352,1.565-3.747,2.42c-5.951,3.646-13.972,8.561-14.124,17.57
					c3.126-5.172,6.769-7.05,10.606-9.027c0.656-0.338,1.334-0.688,2.003-1.052c3.623-1.972,4.977-4.96,5.036-6.919l0.032-1.066
					l0.788,0.719c2.411,2.199,2.754,6.515,0.78,9.826c-1.463,2.455-4.213,4.155-6.873,5.799c-0.591,0.365-1.201,0.742-1.784,1.12
					c-3.395,2.199-6.339,6.455-5.983,10.73c1.994-2.806,5.026-4.499,7.859-4.3c1.428,0.1,2.758,0.755,3.649,1.797
					c1.125,1.316,1.593,3.189,1.389,5.568c-0.194,2.272-1.737,4.37-3.23,6.399c-1.499,2.037-3.048,4.144-3.187,6.365
					c-0.102,1.626,1.711,2.656,2.801,3.126l0.942,0.406l-0.908,0.478c-1.794,0.944-3.073,0.565-3.83,0.081
					c-1.315-0.842-2.097-2.694-1.992-4.72c0.15-2.885,1.435-4.626,2.678-6.309c1.112-1.507,2.163-2.93,2.261-5.107
					c0.041-0.912-0.274-1.677-0.864-2.099c-0.513-0.366-1.185-0.428-1.844-0.169c-3,1.179-4.611,5.944-4.877,10.143
					c-0.221,3.495-2.474,6.667-4.77,8.457c1.53,1.402,1.541,3.498,0.805,5.079l-0.306,0.657l-0.496-0.529
					c-2.758-2.937-4.569-2.351-6.319-1.785c-0.611,0.198-1.188,0.384-1.792,0.425l0,0c-2.123,0.141-3.933-0.485-5.682-1.093
					c-0.328-0.114-0.658-0.228-0.992-0.339c-0.106,0.912,0.174,3.721,0.826,5.619c0.924,2.69,2.388,5.136,4.233,7.071
					c1.955,2.051,3.03,2.557,3.588,2.621c1.173,0.135,2.427-0.412,3.434-0.85c0.388-0.169,0.755-0.328,1.078-0.432
					c1.485-0.476,3.35-0.537,4.242-0.462l1.541,0.13l-1.335,0.781c-2.299,1.347-4.156,2.841-4.226,3.401
					c-0.065,0.513,0.019,0.686,0.058,0.736c0.089,0.115,0.382,0.151,0.693,0.19c0.377,0.047,0.846,0.105,1.291,0.34
					c0.962,0.507,1.211,1.772,1.123,2.787c-0.13,1.502-0.697,2.11-1.153,2.598c-0.402,0.432-0.72,0.772-0.767,1.761
					c-0.097,2.022,1.097,3.041,2.148,3.704l0.047,0.029c1.678,1.059,3.004,1.897,5.264,0.207l0.688-0.514l0.093,0.854
					c0.197,1.815-0.556,2.739-1.221,3.195c-1.322,0.905-3.48,0.784-5.266,0.18c0.12,0.399,0.195,0.831,0.177,1.249
					c-0.048,1.136-0.512,1.799-0.922,2.383c-0.571,0.815-0.983,1.403-0.117,3.289l0.276,0.601l-0.655,0.089
					c-1.902,0.261-2.89-0.684-3.518-1.677c-0.433,1.175-1.125,2.864-1.966,4.014c0.849-0.038,1.997-0.082,2.615,0.569
					c0.663,0.699,0.835,1.622,0.485,2.6c-0.535,1.492-2.201,2.814-3.793,3.01c-0.789,0.099-1.547-0.131-2.064-0.59
					c-1.876,2.495-2.891,2.908-3.644,3.216c-0.369,0.15-0.592,0.241-0.859,0.58c-0.222,0.282-0.121,0.876-0.013,1.505
					c0.222,1.291,0.524,3.06-1.685,4.068C295.605,248.103,294.983,248.233,294.382,248.233z M295.477,238.158l0.009,1.362
					c0,0.074,0.007,1.836-0.437,2.838c-0.262,0.59-0.814,0.971-1.347,1.338c-0.653,0.45-1.269,0.874-1.34,1.634
					c-0.063,0.678,0.145,1.192,0.618,1.528c0.689,0.489,1.837,0.526,2.793,0.09c1.522-0.694,1.338-1.767,1.125-3.01
					c-0.139-0.813-0.283-1.653,0.209-2.277c0.427-0.542,0.831-0.707,1.259-0.881c0.692-0.282,1.64-0.669,3.597-3.397l0.464-0.647
					l0.369,0.706c0.245,0.47,0.859,0.73,1.528,0.648c1.235-0.153,2.576-1.215,2.99-2.368c0.226-0.629,0.134-1.166-0.273-1.594
					c-0.317-0.334-1.302-0.29-1.889-0.263c-0.695,0.032-1.155,0.052-1.348-0.366c-0.079-0.172-0.109-0.445,0.197-0.773
					c1.166-1.247,2.172-4.145,2.502-5.098l0.421-1.21l0.52,1.035c0.511,1.018,1.038,2.065,2.39,2.15
					c-0.698-1.92-0.101-2.772,0.479-3.599c0.365-0.521,0.709-1.012,0.745-1.862c0.027-0.642-0.264-1.406-0.563-1.878l-0.975-1.535
					l1.615,0.837c1.64,0.849,4.185,1.237,5.438,0.378c0.46-0.315,0.729-0.794,0.804-1.429c-2.384,1.353-4.082,0.282-5.598-0.675
					l-0.047-0.029c-0.678-0.427-2.74-1.728-2.604-4.579c0.064-1.349,0.577-1.899,1.03-2.384c0.425-0.455,0.792-0.848,0.893-2.013
					c0.06-0.698-0.102-1.571-0.603-1.834c-0.287-0.151-0.626-0.193-0.955-0.234c-0.473-0.059-1.008-0.125-1.347-0.561
					c-0.259-0.333-0.341-0.797-0.257-1.46c0.12-0.953,1.773-2.242,3.204-3.191c-0.704,0.059-1.479,0.18-2.154,0.396
					c-0.276,0.089-0.621,0.239-0.986,0.398c-1.114,0.485-2.501,1.087-3.936,0.925c-1.06-0.12-2.43-1.075-4.187-2.918
					c-1.941-2.037-3.48-4.606-4.45-7.429c-0.619-1.801-1.28-5.987-0.615-6.781c0.148-0.177,0.359-0.259,0.58-0.225l0.072,0.017
					c0.467,0.147,0.924,0.306,1.378,0.464c1.734,0.602,3.371,1.172,5.295,1.041l0,0c0.483-0.032,1.004-0.201,1.555-0.38
					c1.742-0.563,3.883-1.258,6.784,1.491c0.322-1.195,0.151-2.653-1.249-3.586l-0.604-0.403l0.599-0.41
					c2.199-1.506,4.664-4.683,4.88-8.101c0.264-4.179,1.862-9.565,5.496-10.993c0.975-0.383,1.986-0.279,2.773,0.284
					c0.865,0.619,1.329,1.69,1.273,2.94c-0.111,2.476-1.301,4.087-2.452,5.646c-1.21,1.639-2.352,3.186-2.487,5.777
					c-0.086,1.654,0.533,3.198,1.541,3.843c0.534,0.342,1.169,0.426,1.87,0.257c-1.631-0.949-2.469-2.196-2.382-3.583
					c0.157-2.509,1.793-4.733,3.376-6.884c1.477-2.008,2.872-3.904,3.043-5.901c0.18-2.107-0.209-3.738-1.158-4.847
					c-1.025-1.198-2.42-1.417-2.972-1.456c-2.352-0.163-5.622,1.292-7.64,4.917l-0.611,1.098l-0.294-1.222
					c-1.287-5.354,2.314-10.504,6.204-13.024c0.592-0.384,1.207-0.764,1.802-1.131c2.56-1.582,5.207-3.218,6.547-5.467
					c1.502-2.521,1.482-5.794,0.079-7.82c-0.458,2.123-2.046,4.795-5.404,6.624c-0.679,0.37-1.362,0.722-2.023,1.063
					c-4.052,2.088-7.879,4.061-11.045,10.141l-0.773,1.485l-0.15-1.667c-0.965-10.718,7.987-16.203,14.524-20.208
					c1.377-0.844,2.678-1.641,3.681-2.375c3.912-2.865,4.376-7.35,4.304-9.769c-0.069-2.341-0.636-4.274-1.248-5.437
					c0.017,1.662-0.273,4.026-1.9,6.698c-2.021,3.318-5.408,5.216-9.33,7.413c-0.844,0.473-1.716,0.961-2.615,1.486
					c-5.006,2.918-9.117,7.483-10.998,12.21l-0.611,1.537l-0.325-1.622c-0.712-3.557,1.917-8.554,4.662-11.692
					c2.59-2.96,5.569-5.578,7.745-7.49c0.378-0.332,0.728-0.64,1.042-0.919l0.297-0.265c4.09-3.639,9.691-8.622,10.041-19.003
					c0.233-6.853-3.031-12.27-8.73-14.491c-2.853-1.112-7.295-1.324-10.562-0.506c-1.719,0.431-3.172,1.033-4.444,1.841
					c-0.752,0.478-1.783,0.509-2.507,0.075c-0.391-0.234-1.032-0.809-0.941-2.034c0.093-1.253,0.963-1.934,1.804-2.594
					c0.802-0.629,1.559-1.223,1.673-2.316c0.149-1.426-0.715-2.594-1.757-3.364c0.253,1.064,0.29,2.219-0.375,3.401
					c-0.453,0.806-1.115,1.281-1.755,1.741c-1.01,0.726-1.964,1.412-2.104,3.478c-0.109,1.626,1.06,3.392,2.501,3.779l0.062,0.017
					l0.056,0.032c0.169,0.098,0.275,0.26,0.292,0.445c0.031,0.332-0.218,0.545-0.418,0.715c-0.05,0.043-0.125,0.107-0.147,0.134
					c-2.094,3.028-1.864,6.98-1.743,8.119c0.192,1.821,0.6,3.078,0.994,4.294c0.456,1.409,0.887,2.74,0.947,4.752
					c0.034,1.129,0.138,4.567-1.28,6.934c-1.142,1.907-2.207,3.066-3.328,3.917c1.502-0.148,3.085-0.537,4.473-1.116
					c2.893-1.206,5.429-4.93,5.896-7.517c0.26-1.442,0.237-2.904-0.075-4.739l-0.134-0.787l0.763,0.237
					c1.289,0.4,3.869,0.535,5.69-0.738c1.393-0.973,2.279-2.85,1.794-4.687c-0.719,1.624-2.199,2.465-4.561,2.618
					c-2.719,0.177-4.745-1.526-5.031-4.235c-0.182-1.722,0.312-3.314,1.429-4.602c1.376-1.587,3.613-2.551,6.137-2.644
					c2.72-0.099,5.037,0.726,6.712,2.39c1.823,1.811,2.775,4.529,2.68,7.653c-0.155,5.146-2.387,9.573-6.822,13.537
					c-0.785,0.702-1.58,1.399-2.383,2.102c-2.542,2.229-5.171,4.533-7.753,7.226c-1.917,1.999-7.751,8.084-7.74,15.91
					c0.006,5.017,1.388,9.442,4.348,13.924c2.384,3.611,4.131,7.004,5.498,10.678c1.569,4.216,0.87,9.562-3.014,11.209
					c-1.863,0.79-4.131,0.743-6.222-0.128c-2.455-1.025-4.451-3.087-5.474-5.658c-1.218-3.059-2.994-6.271-4.712-9.377l-0.638-1.155
					c-0.717-1.301-1.652-2.562-2.642-3.896c-1.806-2.434-3.674-4.952-4.581-8.162c-1.383-4.894-1.003-10.492-0.854-12.091
					c0.715-7.643-2.27-13.271-7.986-15.056c-5.721-1.786-11.299-0.701-15.304,2.978c-1.854,1.703-2.896,3.692-3.999,5.798
					c-1.012,1.931-2.058,3.929-3.8,5.828c-2.327,2.538-5.734,3.913-9.027,5.241c-1.703,0.687-3.311,1.336-4.706,2.118
					c-2.586,1.451-4.89,3.28-7.118,5.049c-1.257,0.999-2.558,2.031-3.868,2.959l-0.115,0.082c-1.013,0.722-2.899,2.066-6.837,2.084
					c-1.676-0.005-3.569-0.459-5.055-1.248c-1.507-0.8-2.052-1.646-2.45-2.264c-0.348-0.54-0.559-0.866-1.276-1.038
					c-0.998-0.239-2.061,0.028-2.919,0.732c-0.762,0.626-1.215,1.502-1.184,2.287c0.017,0.427,0.124,0.728,0.319,0.895
					c0.385,0.332,1.177,0.245,1.874,0.168c0.375-0.041,0.73-0.081,1.035-0.057c0.903,0.068,1.234,0.471,1.585,0.898
					c0.433,0.527,1.027,1.25,3.384,1.959l1.513,0.455l-1.505,0.481c-2.331,0.745-4.907,0.717-6.659,0.562
					c-0.684-0.06-1.283-0.357-1.863-0.644c-0.819-0.405-1.593-0.789-2.624-0.566c-1.11,0.239-2.11,1.165-2.432,2.25
					c-0.139,0.467-0.256,1.366,0.515,2.143c0.606,0.61,2.082,0.218,3.16-0.069c0.524-0.139,0.977-0.26,1.344-0.285
					c0.274-0.018,0.756,0.056,1.659,0.2c1.248,0.199,2.948,0.469,4.351,0.455l1.181-0.014l-0.823,0.847
					c-0.633,0.651-1.764,1.46-3.55,1.612c-0.691,0.059-1.262,0.053-1.765,0.049c-0.798-0.007-1.374-0.013-2.031,0.223
					c-1.358,0.488-1.771,1.788-1.58,2.791c0.174,0.912,0.897,1.871,2.398,1.821c1.436-0.046,2.749-0.582,3.427-1.398
					c0.946-1.14,2.708-3.262,6.965-3.041c1.246,0.065,2.05,0.371,2.457,0.937c0.502,0.697,0.267,1.546,0.078,2.228
					c-0.081,0.294-0.193,0.697-0.143,0.829c0.15,0.393,0.632,0.542,1.011,0.597c1.386,0.203,3.455-0.516,4.175-1.453
					c0.581-0.757,0.223-1.618-0.159-2.012l-0.888-0.914l1.272,0.084c1.853,0.122,3.455,0.045,4.899-0.236l0.437-0.085l0.127,0.427
					c0.13,0.439-0.045,1.309-0.251,2.001c0.648-0.192,1.104-0.541,1.611-0.929c0.434-0.332,0.883-0.675,1.489-0.961
					c0.208-0.098,0.431-0.198,0.666-0.304c1.346-0.606,3.021-1.359,4.723-2.967l0.808-0.763l0.019,1.111
					c0.01,0.608-0.116,1.207-0.25,1.841c-0.145,0.688-0.295,1.4-0.277,2.175c0.027,1.165,0.838,1.884,1.731,2.159
					c-0.117-2.74,0.116-5.098,2.542-6.528c1.069-0.629,2.375-1.125,3.527-1.562l0.162-0.061c1.659-0.63,3.179-1.727,4.171-3.009
					c0.14-0.181,1.713-1.866,2.637-1.899c0.231-0.006,0.443,0.076,0.588,0.239l0.058,0.08l0.081,0.14
					c0.439,0.759,0.892,1.543,2.477,3.076c1.562,1.511,3.296,2.796,5.301,3.93c2.111,1.193,4.971,2.868,6.609,4.071
					c1.997,1.467,3.271,3.184,4.132,5.568c0.858,2.377,1.269,5.265,1.129,7.924l-0.042,0.753c-0.089,1.574-0.166,2.933,0.007,4.392
					c0.094,0.795,0.426,1.367,0.776,1.973c0.419,0.724,0.853,1.473,0.808,2.547c-0.019,0.447-0.344,0.811-0.721,1.233
					c-0.524,0.586-1.175,1.316-1.208,2.441c-0.042,1.468,0.331,2.431,0.693,3.363c0.299,0.772,0.582,1.501,0.551,2.384
					c-0.05,1.438-0.905,2.491-1.844,3.108c0.243,0.145,0.541,0.198,0.893,0.155c1.069-0.127,2.218-1.08,2.615-2.17l0.3-0.825
					l0.545,0.688c1.3,1.641,2.011,4.059,1.902,6.466c-0.335,3.8-3.052,5.826-7.03,7.707c-3.519,1.664-7.684,4.783-7.84,8.096
					c-0.037,0.81,0.035,1.511,0.222,2.126c0.117-1.146,0.507-2.239,1.17-3.268c1.811-2.811,4.806-4.27,7.703-5.68
					c1.313-0.639,2.553-1.244,3.693-1.966c3.099-1.964,4.672-4.505,4.81-7.769c0.066-1.55-0.32-3.628-0.603-5.145
					c-0.16-0.859-0.275-1.479-0.277-1.822l-0.009-1.5l0.893,1.205c1.023,1.38,1.904,2.417,3.134,3.318
					c1.035,0.759,2.247,1.345,3.419,1.912c0.55,0.266,1.069,0.517,1.569,0.784c1.851,0.989,3.452,2.398,4.865,3.64l0.184,0.162
					c1.305,1.147,2.759,2.517,3.643,3.975c0.259,0.427,0.73,2.088,0.709,3.74c-0.026,1.978-0.103,3.535-0.232,4.63
					c-0.269,2.284-1.094,4.467-2.323,6.145c-0.852,1.163-2.079,2.069-3.549,2.619c-1.264,0.472-2.245,0.259-3.109,0.07
					c-0.452-0.098-0.879-0.191-1.292-0.167c-0.741,0.045-1.361,0.493-1.699,1.23c-0.367,0.8-0.298,1.721,0.177,2.345
					c0.509,0.671,1.202,0.424,2.565-0.387c0.174-0.104,0.342-0.204,0.501-0.291c0.593-0.327,1.402-0.488,2.339-0.675
					c0.837-0.167,1.786-0.355,2.706-0.696l1.379-0.511l-0.797,1.236c-1.881,2.919-3.115,3.227-4.107,3.475
					c-0.41,0.103-0.705,0.177-1.001,0.445c-0.727,0.661-0.719,2.271-0.227,3.215c0.202,0.387,0.562,0.822,1.129,0.694
					c1.25-0.283,1.359-0.973,1.447-1.526c0.045-0.284,0.087-0.552,0.309-0.735c0.174-0.143,0.424-0.309,0.741-0.518
					c0.954-0.631,2.551-1.689,3.982-3.443L295.477,238.158z"/>
			</g>
			<g>
				<path class="st3" d="M270.113,115.315c-2.811,0.072-5.522,0.145-7.88-0.49c-2.197-0.591-5.289-0.283-7.657,0.704
					c-3.81,1.587-6.247,2.75-10.402,2.819c-3.499,0.058-4.84-1.542-4.772-4.797c1.034,1.643,2.381,2.237,3.565,2.242
					c1.524,0.007,4.13-0.603,6.056-1.684C258.995,108.513,266.376,109.514,270.113,115.315L270.113,115.315z"/>
				<path class="st4" d="M243.992,118.839c-1.746,0-3.005-0.412-3.847-1.258c-0.869-0.873-1.273-2.194-1.234-4.041l0.034-1.636
					l0.871,1.385c0.813,1.293,1.933,2.008,3.153,2.013c0.008,0,0.015,0,0.023,0c1.411,0,3.91-0.566,5.791-1.621
					c9.738-5.465,17.663-4.966,21.742,1.368l0.472,0.733l-0.922,0.024c-2.858,0.073-5.557,0.142-7.971-0.508
					c-2.071-0.558-5.022-0.283-7.341,0.683l-0.859,0.36c-3.364,1.412-5.795,2.432-9.723,2.497
					C244.117,118.839,244.054,118.839,243.992,118.839z M239.985,115.043c0.137,0.801,0.42,1.41,0.855,1.847
					c0.674,0.677,1.764,0.992,3.325,0.968c3.74-0.061,6.097-1.051,9.36-2.42l0.862-0.361c2.504-1.043,5.708-1.335,7.973-0.725
					c2.039,0.549,4.363,0.552,6.828,0.495c-3.902-5.13-11.101-5.262-19.925-0.31c-2.048,1.149-4.697,1.747-6.271,1.747
					c-0.009,0-0.018,0-0.027,0C242.27,116.281,241.1,116.089,239.985,115.043z"/>
			</g>
			<g>
				<path class="st5" d="M252.119,117.803c-0.077,0.996,0.382,2.181,0.938,2.863l2.049-0.815
					C253.936,119.424,252.84,118.696,252.119,117.803L252.119,117.803z M249.944,111.721c-1.893-0.607-2.375-3.348-2.143-4.29
					l3.086-0.256C250.464,108.186,249.984,110.114,249.944,111.721z"/>
				<path class="st4" d="M252.904,121.254l-0.227-0.279c-0.569-0.699-1.14-2.001-1.047-3.21l0.095-1.231l0.776,0.961
					c0.642,0.796,1.653,1.487,2.773,1.896l1.208,0.441L252.904,121.254z M252.797,119.136c0.114,0.344,0.269,0.668,0.436,0.933
					l0.62-0.246C253.477,119.618,253.122,119.387,252.797,119.136z M250.418,112.388l-0.624-0.2c-2.209-0.708-2.74-3.776-2.47-4.874
					l0.084-0.342l4.243-0.352l-0.312,0.745c-0.411,0.98-0.868,2.844-0.905,4.369L250.418,112.388z M248.24,107.887
					c-0.017,0.803,0.315,2.327,1.261,3.054c0.107-1.126,0.371-2.307,0.664-3.214L248.24,107.887z"/>
			</g>
			<g>
				<path class="st5" d="M285.939,157.565c-1.189-1.3-1.374-3.506-1.085-5.394c0.393-2.573,1.876-4.851,2.038-7.664
					c0.187-3.291-1.539-3.816-1.528-5.426c1.692,2.164,5.672,3.705,6.477,0.072c-2.008,0.022-3.984-1.012-4.899-2.755
					c-1.648-3.14,0.992-4.717,0.956-7.997c-0.042-3.87-1.907-4.538-2.244-5.911c1.711,0.249,3.686,0.159,3.656-1.901
					c-0.961,0.533-2.045,0.43-2.859-0.593c-0.976-1.227-0.63-3.092-1.112-4.515c-0.896-2.642-2.114-2.335-2.561-3.742
					c1.857,0.609,4.173,0.46,3.802-2.317c-0.72,0.641-1.747,0.869-2.691,0.464c-1.697-0.728-1.154-2.706-1.991-4.315
					c-0.606-1.165-1.829-1.883-2.104-2.938c1.552,0.178,3.345,0.192,3.092-1.643c-0.724,0.464-1.706,0.273-2.393-0.326
					c-3.212-2.802-5.544-5.956-8.809-7.586c-2.647-1.322-9.001-1.527-13.832-1.083c-3.56,0.327-6.324,2.31-8.319,3.75
					c-1.739,1.255-0.412,2.054,0.22,2.902c-1.643,0.048-3.367,0.546-4.802,1.372c-0.828,0.477-1.861,1.398-1.693,1.879
					c0.097,0.278,1.17-0.106,1.654-0.528c0.135,1.115,0.01,2.432,0.219,3.578c0.275,1.507,1.353,2.761,2.633,2.887
					c3.396,0.333,6.368-0.296,9.203-1.905c3.838-2.179,5.475-0.068,6.18,2.371c0.711,2.459,0.361,5.693-1.599,7.982
					c-1.018,1.189-2.93,3.07-5.035,3.296c-1.181,0.127-2.404-0.284-3.363,0.324c-0.489,0.31-0.447,1.5-0.46,2.469
					c-0.011,0.756,0.618,1.075,1.431,1.145c1.883,0.164,1.702,2.131,2.832,2.267c-0.003-0.507,0.174-2.571,0.618-2.652
					c1.785-0.325,5.826-1.465,5.803-0.768c-0.061,1.753-4.241,6.255-7.837,6.452c-2.011,0.111-6.317-0.82-8.795-0.625
					c-5.197,0.406-7.877-0.003-7.934-3.859c-4.479,3.413-0.136,6.871,4.215,8.734c-1.459,0.024-3.024,0.373-4.712,0.922
					c-2.508,0.815-5.365,0.161-7.336-1.624c0.166,6.21,1.789,9.492,5.173,11.021c4.021,1.817,6.499,1.009,9.048,1.077
					c-1.925,1.38-3.938,3.897-5.581,5.938c-1.846,2.294-4.712,4.341-8.192,4.407c1.876,2.722,4.902,4.108,8.34,4.17
					c4.639,0.084,8.216-1.717,11.01-4.451c-0.095,2.979-2.932,4.45-2.988,8.042c-0.05,3.209,1.785,5.812,5.043,6.084
					c-1.615-4.889,5.635-7.409,8.453-8.901c2.667-1.412,4.91-3.176,6.593-5.811c0.743,2.921-2.903,5.573-0.449,9.663
					c1.651,2.75,4.847,3.599,8.124,3.126c-2.303-1.11-3.221-3.953-2.145-6.76c1.544-4.031,4.12-4.603,6.219-9.333
					c0.557-1.255,0.786-3.235,0.926-5.117c1.438,1.904,1.038,3.88,0.873,5.592C281.111,154.327,281.773,158.487,285.939,157.565
					L285.939,157.565z"/>
				<path class="st4" d="M253.525,169.205l-0.739-0.062c-3.342-0.279-5.549-2.923-5.492-6.58c0.032-2.026,0.902-3.441,1.669-4.69
					c0.408-0.663,0.801-1.304,1.051-2c-2.96,2.458-6.402,3.672-10.261,3.596c-3.732-0.067-6.834-1.623-8.735-4.382l-0.518-0.751
					l0.912-0.017c2.852-0.054,5.702-1.594,7.819-4.224l0.071-0.088c1.315-1.635,2.89-3.592,4.476-5.022
					c-0.145,0.008-0.291,0.016-0.439,0.025c-1.992,0.114-4.249,0.246-7.395-1.176c-3.608-1.63-5.293-5.163-5.461-11.454
					l-0.031-1.146l0.85,0.77c1.85,1.676,4.54,2.273,6.855,1.521c1.134-0.368,2.137-0.624,3.056-0.776
					c-1.976-1.047-4.487-2.793-4.761-5.001c-0.168-1.355,0.524-2.634,2.056-3.802l0.773-0.589l0.015,0.972
					c0.018,1.198,0.309,2.038,0.89,2.568c1.106,1.008,3.405,1.053,6.516,0.81c1.391-0.11,3.267,0.115,5.08,0.332
					c1.465,0.175,2.849,0.34,3.726,0.292c3.243-0.178,6.866-4.074,7.326-5.7c-0.001,0-0.001,0-0.002,0
					c-0.7,0-2.483,0.401-3.498,0.63c-0.574,0.129-1.119,0.252-1.555,0.335c-0.177,0.349-0.34,1.597-0.336,2.189l0.004,0.557
					l-0.553-0.067c-0.727-0.088-1.067-0.651-1.367-1.148c-0.339-0.562-0.631-1.047-1.449-1.118c-1.714-0.149-1.885-1.197-1.878-1.64
					l0.003-0.284c0.009-1.067,0.018-2.169,0.685-2.592c0.757-0.48,1.6-0.438,2.416-0.397c0.386,0.02,0.785,0.039,1.157-0.001
					c1.952-0.21,3.792-2.05,4.715-3.127c2.029-2.37,2.077-5.536,1.501-7.527c-0.427-1.476-1.084-2.403-1.953-2.757
					c-0.897-0.365-2.08-0.137-3.514,0.677c-2.93,1.663-6.035,2.308-9.493,1.967c-1.456-0.143-2.747-1.525-3.068-3.287
					c-0.124-0.683-0.137-1.406-0.149-2.105c-0.004-0.248-0.009-0.489-0.017-0.723c-0.433,0.202-0.916,0.332-1.245,0.246
					c-0.213-0.056-0.374-0.2-0.442-0.394c-0.394-1.123,1.888-2.453,1.911-2.466c1.233-0.71,2.641-1.18,4.046-1.36
					c-0.334-0.398-0.624-0.851-0.564-1.417c0.056-0.516,0.401-0.997,1.057-1.471c1.93-1.393,4.847-3.499,8.561-3.841
					c4.81-0.443,11.273-0.277,14.096,1.133c2.246,1.121,4.043,2.919,5.946,4.823c0.937,0.938,1.907,1.908,2.967,2.833
					c0.56,0.489,1.302,0.605,1.805,0.282l0.645-0.414l0.105,0.759c0.096,0.699-0.051,1.255-0.438,1.651
					c-0.532,0.545-1.403,0.657-2.306,0.62c0.164,0.218,0.366,0.439,0.583,0.676c0.384,0.419,0.82,0.895,1.122,1.475
					c0.343,0.659,0.476,1.365,0.592,1.988c0.209,1.115,0.366,1.762,1.157,2.102c0.726,0.312,1.558,0.166,2.171-0.38l0.689-0.614
					l0.122,0.915c0.156,1.169-0.101,2.04-0.764,2.591c-0.689,0.573-1.624,0.633-2.417,0.54c0.038,0.034,0.079,0.069,0.12,0.105
					c0.553,0.484,1.241,1.087,1.798,2.73c0.204,0.602,0.271,1.259,0.336,1.893c0.096,0.943,0.186,1.834,0.696,2.474
					c0.822,1.033,1.755,0.738,2.238,0.47l0.716-0.397l0.012,0.819c0.012,0.79-0.232,1.409-0.722,1.84
					c-0.565,0.496-1.421,0.71-2.605,0.644c0.085,0.125,0.181,0.256,0.285,0.397c0.676,0.918,1.601,2.177,1.63,4.932
					c0.016,1.431-0.444,2.563-0.85,3.563c-0.578,1.424-1.035,2.548-0.162,4.212c0.797,1.519,2.519,2.493,4.398,2.493
					c0.02,0,0.041,0,0.061,0l0.618-0.007l-0.133,0.603c-0.385,1.735-1.398,2.311-2.18,2.488c-1.161,0.263-2.469-0.174-3.56-0.9
					c0.45,0.803,0.907,1.848,0.802,3.687c-0.095,1.643-0.614,3.093-1.115,4.495c-0.391,1.093-0.761,2.126-0.927,3.215
					c-0.323,2.112,0.037,3.977,0.962,4.989l0.572,0.626l-0.828,0.183c-1.474,0.327-2.674,0.092-3.564-0.697
					c-1.79-1.584-1.678-4.921-1.547-6.282c0.017-0.175,0.036-0.352,0.056-0.532c0.118-1.09,0.24-2.206-0.104-3.313
					c-0.15,1.314-0.389,2.658-0.815,3.616c-1.089,2.453-2.33,3.851-3.425,5.085c-1.054,1.187-2.05,2.309-2.784,4.225
					c-0.98,2.557-0.18,5.14,1.9,6.143l1.447,0.697l-1.59,0.229c-3.858,0.557-6.999-0.667-8.614-3.359
					c-1.584-2.639-0.821-4.725-0.148-6.564c0.243-0.664,0.468-1.278,0.57-1.871c-1.478,1.892-3.39,3.427-5.917,4.764
					c-0.406,0.215-0.906,0.453-1.436,0.705c-3.199,1.521-8.034,3.82-6.781,7.609L253.525,169.205z M251.301,153.326l-0.039,1.219
					c-0.049,1.54-0.768,2.71-1.464,3.842c-0.736,1.197-1.497,2.434-1.524,4.192c-0.045,2.891,1.463,4.974,3.898,5.487
					c-0.734-4.153,4.365-6.578,7.48-8.059c0.52-0.247,1.011-0.481,1.398-0.686c2.892-1.531,4.928-3.323,6.409-5.642l0.609-0.954
					l0.279,1.097c0.337,1.327-0.124,2.589-0.571,3.809c-0.627,1.713-1.275,3.485,0.068,5.723c1.216,2.025,3.468,3.085,6.294,3.01
					c-1.641-1.507-2.155-4.057-1.193-6.567c0.798-2.083,1.851-3.269,2.967-4.526c1.099-1.238,2.235-2.517,3.262-4.831
					c0.55-1.238,0.762-3.298,0.885-4.955l0.097-1.297l0.784,1.038c1.41,1.867,1.196,3.834,1.024,5.414
					c-0.019,0.176-0.038,0.35-0.055,0.52c-0.117,1.211-0.232,4.168,1.221,5.454c0.491,0.435,1.139,0.631,1.93,0.585
					c-1.046-1.754-0.846-4.089-0.691-5.1c0.181-1.182,0.583-2.308,0.973-3.397c0.478-1.337,0.973-2.72,1.06-4.221
					c0.103-1.82-0.414-2.705-0.871-3.485c-0.341-0.583-0.664-1.134-0.658-1.916l0.01-1.407l0.867,1.109
					c0.944,1.208,2.809,2.32,4.172,2.012c0.581-0.132,1.006-0.526,1.267-1.174c-2.008-0.185-3.801-1.314-4.682-2.991
					c-1.084-2.066-0.471-3.576,0.122-5.036c0.389-0.958,0.791-1.949,0.778-3.183c-0.026-2.44-0.81-3.506-1.44-4.362
					c-0.337-0.459-0.656-0.892-0.79-1.438l-0.174-0.707l0.72,0.105c1.334,0.194,2.244,0.087,2.707-0.319
					c0.108-0.095,0.193-0.209,0.256-0.343c-0.97,0.197-1.924-0.166-2.619-1.041c-0.689-0.865-0.798-1.943-0.904-2.985
					c-0.062-0.607-0.12-1.18-0.289-1.678c-0.473-1.394-1.027-1.879-1.516-2.307c-0.402-0.352-0.817-0.715-1.048-1.443l-0.29-0.913
					l0.91,0.298c1.172,0.384,2.224,0.354,2.745-0.079c0.239-0.199,0.384-0.495,0.434-0.886c-0.76,0.346-1.627,0.366-2.414,0.028
					c-1.31-0.562-1.535-1.763-1.734-2.822c-0.109-0.583-0.223-1.187-0.498-1.716c-0.243-0.466-0.615-0.873-0.975-1.266
					c-0.485-0.529-0.986-1.076-1.168-1.775l-0.18-0.692l0.711,0.081c0.524,0.06,1.916,0.219,2.383-0.258
					c0.027-0.028,0.079-0.081,0.122-0.183c-0.729,0.121-1.545-0.114-2.183-0.671c-1.085-0.947-2.067-1.929-3.016-2.878
					c-1.845-1.845-3.587-3.589-5.69-4.639c-2.533-1.264-8.742-1.477-13.568-1.033c-3.447,0.317-6.123,2.249-8.077,3.66
					c-0.406,0.293-0.633,0.563-0.656,0.78c-0.03,0.276,0.279,0.619,0.577,0.952c0.138,0.154,0.281,0.313,0.405,0.48l0.562,0.755
					l-0.941,0.027c-1.541,0.045-3.207,0.521-4.571,1.307c-0.468,0.269-0.875,0.605-1.141,0.882c0.193-0.087,0.391-0.2,0.535-0.325
					l0.698-0.609l0.111,0.92c0.062,0.514,0.072,1.068,0.081,1.603c0.011,0.66,0.023,1.343,0.134,1.946
					c0.244,1.34,1.169,2.386,2.199,2.487c3.25,0.319,6.166-0.284,8.914-1.844c1.708-0.97,3.178-1.216,4.367-0.732
					c1.162,0.473,2.011,1.614,2.526,3.393c0.848,2.931,0.182,6.242-1.697,8.438c-1.243,1.452-3.181,3.231-5.355,3.465
					c-0.449,0.049-0.887,0.026-1.311,0.005c-0.723-0.036-1.348-0.068-1.842,0.246c-0.216,0.138-0.226,1.283-0.23,1.772l-0.003,0.29
					c-0.002,0.154-0.008,0.564,0.983,0.65c1.315,0.114,1.829,0.966,2.204,1.588c0.053,0.087,0.101,0.165,0.145,0.234
					c0.086-0.881,0.323-2.084,0.97-2.202c0.435-0.079,1.019-0.211,1.637-0.35c2.972-0.669,4.04-0.826,4.509-0.437
					c0.156,0.129,0.241,0.318,0.234,0.518c-0.069,1.984-4.363,6.709-8.3,6.925c-0.963,0.053-2.388-0.117-3.897-0.298
					c-1.766-0.211-3.592-0.43-4.887-0.328c-3.461,0.27-5.882,0.187-7.253-1.063c-0.602-0.549-0.975-1.3-1.129-2.28
					c-0.74,0.749-1.066,1.515-0.971,2.286c0.206,1.662,2.37,3.528,5.788,4.992l-0.185,0.941c-1.296,0.021-2.747,0.306-4.568,0.898
					c-2.301,0.747-4.923,0.331-6.953-1.049c0.3,5.27,1.775,8.147,4.841,9.533c2.927,1.322,4.964,1.204,6.935,1.091
					c0.658-0.038,1.28-0.074,1.925-0.057l1.458,0.039l-1.185,0.85c-1.843,1.321-3.822,3.782-5.413,5.759l-0.071,0.088
					c-2.072,2.574-4.811,4.187-7.632,4.525c1.739,2.051,4.335,3.199,7.407,3.254c4.078,0.076,7.658-1.376,10.658-4.311
					L251.301,153.326z"/>
			</g>
			<g>
				<path class="st5" d="M266.106,118.256c0.09,0.947,0.022,1.841-0.182,2.76 M261.358,103.393c0.464,0.298,1.562,1.159,2.59,1.106
					c2.218-0.114,3.35-0.216,4.14,0.267c0.938,0.574,1.025,2.055,2.17,4.253 M271.633,99.31c0.418,0.803,0.687,1.742,0.87,2.643
					 M270.945,98.393c0.555-1.078,1.467-1.874,2.659-1.899c2.145-0.044,2.559,4.099,1.471,6.011 M250.991,98.989
					c0.739-1.583,2.292-2.57,4.035-2.495c2.51,0.107,1.366,2.585,5.691,2.158 M252.872,99.054c1.647-0.837,2.455,0.017,2.575,1.008
					c0.107,0.883-0.839,2.066-2.612,1.055"/>
				<path class="st4" d="M265.924,121.506c-0.035,0-0.071-0.004-0.106-0.012c-0.265-0.059-0.431-0.32-0.373-0.585
					c0.198-0.893,0.254-1.746,0.173-2.607c-0.026-0.27,0.172-0.509,0.442-0.534c0.265-0.028,0.509,0.172,0.534,0.442
					c0.092,0.965,0.029,1.918-0.191,2.912C266.352,121.35,266.15,121.506,265.924,121.506z M270.258,109.509
					c-0.177,0-0.348-0.096-0.435-0.264c-0.468-0.898-0.767-1.686-1.006-2.319c-0.338-0.893-0.562-1.483-0.985-1.742
					c-0.603-0.368-1.589-0.316-3.381-0.221l-0.479,0.025c-1.057,0.052-2.111-0.662-2.677-1.047
					c-0.077-0.053-0.146-0.099-0.204-0.136c-0.228-0.146-0.294-0.45-0.147-0.677c0.147-0.228,0.45-0.294,0.677-0.147
					c0.064,0.041,0.14,0.092,0.225,0.15c0.471,0.32,1.35,0.917,2.075,0.878l0.478-0.025c1.987-0.105,3.082-0.163,3.944,0.364
					c0.709,0.434,1.01,1.227,1.39,2.231c0.243,0.641,0.518,1.367,0.959,2.214c0.125,0.24,0.032,0.536-0.208,0.661
					C270.412,109.491,270.335,109.509,270.258,109.509z M275.074,102.995c-0.082,0-0.166-0.021-0.242-0.064
					c-0.235-0.134-0.318-0.433-0.184-0.669c0.689-1.211,0.69-3.446,0.004-4.599c-0.277-0.466-0.621-0.695-1.038-0.679
					c-1.224,0.025-1.924,1.034-2.233,1.633c-0.124,0.241-0.419,0.335-0.66,0.211c-0.241-0.124-0.335-0.42-0.211-0.66
					c0.695-1.35,1.819-2.138,3.084-2.164c0.765-0.022,1.447,0.395,1.901,1.158c0.867,1.457,0.87,4.067,0.006,5.586
					C275.411,102.906,275.245,102.995,275.074,102.995z M272.502,102.443c-0.228,0-0.432-0.16-0.48-0.393
					c-0.206-1.012-0.483-1.858-0.824-2.513c-0.125-0.24-0.032-0.536,0.208-0.661c0.239-0.125,0.537-0.032,0.661,0.208
					c0.389,0.748,0.689,1.654,0.915,2.771c0.054,0.265-0.117,0.524-0.383,0.578C272.567,102.44,272.535,102.443,272.502,102.443z
					 M254.094,101.996c-0.407,0-0.908-0.115-1.502-0.453c-0.235-0.134-0.317-0.434-0.183-0.669c0.134-0.235,0.433-0.317,0.669-0.183
					c0.625,0.356,1.166,0.421,1.524,0.183c0.286-0.19,0.387-0.524,0.359-0.753c-0.047-0.388-0.219-0.688-0.473-0.823
					c-0.323-0.173-0.805-0.105-1.394,0.193c-0.241,0.122-0.537,0.026-0.659-0.215s-0.026-0.537,0.215-0.659
					c1.12-0.569,1.868-0.414,2.299-0.184c0.54,0.288,0.899,0.86,0.985,1.57c0.078,0.643-0.239,1.322-0.789,1.688
					C254.93,101.833,254.578,101.996,254.094,101.996z M250.99,99.479c-0.069,0-0.14-0.015-0.207-0.046
					c-0.245-0.114-0.351-0.406-0.237-0.652c0.826-1.77,2.594-2.86,4.5-2.778c1.253,0.053,1.777,0.637,2.24,1.151
					c0.57,0.634,1.11,1.233,3.382,1.009c0.272-0.027,0.509,0.17,0.536,0.44c0.027,0.269-0.17,0.509-0.44,0.536
					c-2.768,0.275-3.566-0.615-4.208-1.329c-0.413-0.459-0.711-0.791-1.553-0.827c-1.528-0.064-2.901,0.782-3.57,2.213
					C251.352,99.375,251.175,99.479,250.99,99.479z"/>
			</g>
		</g>
	</g>
</g>
</svg>
