<?xml version="1.0" encoding="utf-8"?>
<!-- Generator: Adobe Illustrator 25.0.1, SVG Export Plug-In . SVG Version: 6.00 Build 0)  -->
<svg version="1.1" id="Layer_1" xmlns="http://www.w3.org/2000/svg" xmlns:xlink="http://www.w3.org/1999/xlink" x="0px" y="0px"
	 viewBox="0 0 525 350" style="enable-background:new 0 0 525 350;" xml:space="preserve">
<style type="text/css">
	.st0{fill:#FFFFFF;}
	.st1{fill:#ED2224;}
</style>
<path class="st0" d="M0,0h525v350H0V0z"/>
<path class="st1" d="M227.5,0h70v350h-70V0z M0,140h525v70H0V140z"/>
<path id="a" class="st1" d="M101.4,34.2c8.2,1.1,16.4,1.1,24.6,0c-4.7,23.6-4.7,48,0,71.6c-8.2-1.1-16.4-1.1-24.6,0
	C106.2,82.2,106.2,57.8,101.4,34.2L101.4,34.2z"/>
<path id="a_1_" class="st1" d="M375.4,292.3c1.1-8.2,1.1-16.4,0-24.6c23.6,4.7,48,4.7,71.6,0c-1.1,8.2-1.1,16.4,0,24.6
	C423.4,287.6,399.1,287.6,375.4,292.3L375.4,292.3z"/>
<path id="a_2_" class="st1" d="M398.9,34.2c8.2,1.1,16.4,1.1,24.6,0c-4.7,23.6-4.7,48,0,71.6c-8.2-1.1-16.4-1.1-24.6,0
	C403.7,82.2,403.7,57.8,398.9,34.2L398.9,34.2z"/>
<path id="a_3_" class="st1" d="M77.9,292.3c1.1-8.2,1.1-16.4,0-24.6c23.6,4.7,48,4.7,71.6,0c-1.1,8.2-1.1,16.4,0,24.6
	C125.9,287.6,101.6,287.6,77.9,292.3L77.9,292.3z"/>
<path id="a_4_" class="st1" d="M101.4,244.2c8.2,1.1,16.4,1.1,24.6,0c-4.7,23.6-4.7,48,0,71.6c-8.2-1.1-16.4-1.1-24.6,0
	C106.2,292.2,106.2,267.8,101.4,244.2L101.4,244.2z"/>
<path id="a_5_" class="st1" d="M375.4,82.3c1.1-8.2,1.1-16.4,0-24.6c23.6,4.7,48,4.7,71.6,0c-1.1,8.2-1.1,16.4,0,24.6
	C423.4,77.6,399.1,77.6,375.4,82.3L375.4,82.3z"/>
<path id="a_6_" class="st1" d="M398.9,244.2c8.2,1.1,16.4,1.1,24.6,0c-4.7,23.6-4.7,48,0,71.6c-8.2-1.1-16.4-1.1-24.6,0
	C403.7,292.2,403.7,267.8,398.9,244.2L398.9,244.2z"/>
<path id="a_7_" class="st1" d="M77.9,82.3c1.1-8.2,1.1-16.4,0-24.6c23.6,4.7,48,4.7,71.6,0c-1.1,8.2-1.1,16.4,0,24.6
	C125.9,77.6,101.6,77.6,77.9,82.3L77.9,82.3z"/>
</svg>
