<?xml version="1.0" encoding="utf-8"?>
<!-- Generator: Adobe Illustrator 25.0.1, SVG Export Plug-In . SVG Version: 6.00 Build 0)  -->
<svg version="1.1" id="Layer_1" xmlns="http://www.w3.org/2000/svg" xmlns:xlink="http://www.w3.org/1999/xlink" x="0px" y="0px"
	 viewBox="0 0 525 350" style="enable-background:new 0 0 525 350;" xml:space="preserve">
<style type="text/css">
	.st0{fill:#FFFFFF;}
	.st1{fill:#1660AD;}
</style>
<g id="Kypros">
	<rect x="0" class="st0" width="525" height="350"/>
	<g>
		<path class="st1" d="M459.371,140c-23.503,0-35.588-14.73-44.411-25.486C406.919,104.711,402.657,100,393.742,100
			s-13.176,4.712-21.217,14.514C363.702,125.269,351.618,140,328.115,140c-23.502,0-35.586-14.73-44.409-25.486
			c-8.04-9.802-12.301-14.514-21.215-14.514c-8.913,0-13.173,4.712-21.213,14.513C232.455,125.269,220.372,140,196.87,140
			s-35.586-14.73-44.409-25.486C144.421,104.711,140.16,100,131.246,100c-8.913,0-13.174,4.712-21.214,14.513
			C101.209,125.269,89.125,140,65.622,140c-23.502,0-35.585-14.73-44.408-25.486C13.174,104.711,8.914,100,0,100V70
			c23.503,0,35.586,14.731,44.409,25.487c8.04,9.802,12.3,14.513,21.213,14.513c8.914,0,13.175-4.712,21.215-14.514
			C95.66,84.73,107.744,70,131.246,70c23.503,0,35.587,14.73,44.41,25.487c8.04,9.801,12.301,14.513,21.214,14.513
			s13.173-4.712,21.213-14.513C226.906,84.73,238.989,70,262.491,70c23.503,0,35.587,14.73,44.41,25.487
			c8.04,9.801,12.301,14.513,21.214,14.513c8.915,0,13.176-4.712,21.217-14.514C358.155,84.73,370.239,70,393.742,70
			s35.588,14.73,44.411,25.486c8.041,9.802,12.303,14.514,21.218,14.514s13.177-4.712,21.218-14.514
			C489.412,84.73,501.497,70,525,70v30c-8.915,0-13.177,4.712-21.218,14.514C494.959,125.269,482.874,140,459.371,140z"/>
		<path class="st1" d="M459.371,280c-23.503,0-35.588-14.73-44.411-25.486C406.919,244.712,402.657,240,393.742,240
			s-13.176,4.712-21.217,14.514C363.702,265.27,351.618,280,328.115,280c-23.502,0-35.586-14.73-44.409-25.486
			c-8.04-9.802-12.301-14.514-21.215-14.514c-8.913,0-13.173,4.712-21.213,14.513C232.455,265.27,220.372,280,196.87,280
			s-35.586-14.73-44.409-25.486C144.421,244.712,140.16,240,131.246,240c-8.913,0-13.174,4.712-21.214,14.513
			C101.209,265.27,89.125,280,65.622,280c-23.502,0-35.585-14.73-44.408-25.486C13.174,244.712,8.914,240,0,240v-30
			c23.503,0,35.586,14.731,44.409,25.487C52.449,245.29,56.709,250,65.622,250c8.914,0,13.175-4.712,21.215-14.514
			C95.66,224.731,107.744,210,131.246,210c23.503,0,35.587,14.73,44.41,25.487c8.04,9.801,12.301,14.513,21.214,14.513
			s13.173-4.712,21.213-14.513C226.906,224.731,238.989,210,262.491,210c23.503,0,35.587,14.73,44.41,25.487
			c8.04,9.801,12.301,14.513,21.214,14.513c8.915,0,13.176-4.712,21.217-14.514c8.823-10.756,20.907-25.486,44.41-25.486
			s35.588,14.73,44.411,25.486c8.041,9.802,12.303,14.514,21.218,14.514s13.177-4.712,21.218-14.514
			C489.412,224.731,501.497,210,525,210v30c-8.915,0-13.177,4.712-21.218,14.514C494.959,265.27,482.874,280,459.371,280z"/>
		<path class="st1" d="M459.371,210c-23.503,0-35.588-14.73-44.411-25.486C406.919,174.712,402.657,170,393.742,170
			s-13.176,4.712-21.217,14.514C363.702,195.27,351.618,210,328.115,210c-23.502,0-35.586-14.73-44.409-25.486
			c-8.04-9.802-12.301-14.514-21.215-14.514c-8.913,0-13.173,4.712-21.213,14.513C232.455,195.27,220.372,210,196.87,210
			s-35.586-14.73-44.409-25.486C144.421,174.712,140.16,170,131.246,170c-8.913,0-13.174,4.712-21.214,14.513
			C101.209,195.27,89.125,210,65.622,210c-23.502,0-35.585-14.73-44.408-25.486C13.174,174.712,8.914,170,0,170v-30
			c23.503,0,35.586,14.731,44.409,25.487C52.449,175.29,56.709,180,65.622,180c8.914,0,13.175-4.712,21.215-14.514
			C95.66,154.731,107.744,140,131.246,140c23.503,0,35.587,14.73,44.41,25.487c8.04,9.801,12.301,14.513,21.214,14.513
			s13.173-4.712,21.213-14.513C226.906,154.731,238.989,140,262.491,140c23.503,0,35.587,14.73,44.41,25.487
			c8.04,9.801,12.301,14.513,21.214,14.513c8.915,0,13.176-4.712,21.217-14.514c8.823-10.756,20.907-25.486,44.41-25.486
			s35.588,14.73,44.411,25.486c8.041,9.802,12.303,14.514,21.218,14.514s13.177-4.712,21.218-14.514
			C489.412,154.731,501.497,140,525,140v30c-8.915,0-13.177,4.712-21.218,14.514C494.959,195.27,482.874,210,459.371,210z"/>
	</g>
</g>
</svg>
