<?xml version="1.0" encoding="utf-8"?>
<!-- Generator: Adobe Illustrator 25.0.1, SVG Export Plug-In . SVG Version: 6.00 Build 0)  -->
<svg version="1.1" id="Layer_1" xmlns="http://www.w3.org/2000/svg" xmlns:xlink="http://www.w3.org/1999/xlink" x="0px" y="0px"
	 viewBox="0 0 525 350" style="enable-background:new 0 0 525 350;" xml:space="preserve">
<style type="text/css">
	.st0{fill-rule:evenodd;clip-rule:evenodd;fill:#CF2827;}
	.st1{fill-rule:evenodd;clip-rule:evenodd;fill:#231F20;}
	.st2{fill-rule:evenodd;clip-rule:evenodd;fill:#FFFFFF;}
	.st3{fill-rule:evenodd;clip-rule:evenodd;fill:#2DABE2;}
	.st4{fill-rule:evenodd;clip-rule:evenodd;fill:#FCB918;}
</style>
<g id="Lithuanua">
	<polygon id="_79506496" class="st0" points="0,0 525,0 525,350 0,350 	"/>
	<g>
		<path id="_79506904" class="st1" d="M259.962,142.821c6.102,0.122,10.896,0.222,17.503-0.138c0.62,1.241-0.413,2.205-0.827,3.308
			l0,0l-7.098,8.752l0,0c-2.136-3.584-6.133-5.513-10.061-6.133C259.537,146.818,259.754,144.613,259.962,142.821L259.962,142.821
			L259.962,142.821L259.962,142.821z M200.054,113.528c2.687,1.378,5.835,2.762,9.143,2.693c0.758,2.963,0.59,7.186-0.857,10.08
			c-3.101-0.413-6.646-1.634-9.334-3.082c2.561-3.609,0.495-5.177-1.398-8.655C198.339,113.679,199.364,113.432,200.054,113.528
			L200.054,113.528z M138.057,197.192l-3.148,4.664C132.955,199.191,136.221,196.661,138.057,197.192z M158.38,174.002
			c1.856-0.869,13.915,1.12,15.736,2.965c1.115,1.47,3.727,4.79,5.149,5.89c4.41-10.68,7.512-21.846,13.369-31.905
			c4.404-3.729,7.448-8.777,10.423-13.517c-1.888-0.637-7.679-2.395-10.408-3.41c-0.488,0.362,0.21,1.232,0.285,2.164
			c-0.605,3.569-2.831,6.173-6.958,4.417c-5.45-3.656-1.615-8.911,2.581-8.652c1.862-3.445,4.834-7.463,6.557-10.979
			c0.601-1.037-0.304-3.326-1.751-3.808c-2.202,1.618-2.253,4.811-5.418,7.077c-2.128,0.291-3.151,1.201-7.004,1.036
			c-0.55-0.705-2.075-2.841-0.774-3.494c1.31-0.62-0.628-1.361-0.076-2.257c1.721-0.412,3.59-1.524,5.039-2.628
			c-0.966-1.032-1.133-1.462-1.133-2.701c-1.79-0.483-3.906,0.23-5.424,0.988c-1.584,1.31-2.48,2.781-2.342,4.781
			c-0.094,0.642-3.92,0.788-3.988-0.039c-0.356-5.196-3.37-11.792,0.197-15.975c6.754-7.166,14.403-12.542,21.708-19.156
			c3.721-4.342,9.235-4.962,13.713-7.787c-3.307-1.31-6.338-1.724-9.577-3.171c-0.268-0.128-0.101-2.788,0.421-2.577
			c2.89,0.741,1.739-2.883,2.318-2.684c3.991,2.252,16.978-3.106,18.561,4.66c25.402,9.859,39.46,35.887,40.394,62.14
			c5.852,0.488,11.9,1.162,17.781,0.689l0.014-24.963c-4.341-3.101-10.771-6.776-15.249-9.74c-0.634,0.125-0.612,1.458-1.295,1.416
			l-9.134-3.766l-2.14-10.282c0.475-0.003,0.831-0.072,0.885-0.399l-7.267-13.323c-0.192-0.658-0.704-1.393-1.185-1.462
			l-8.316-0.015c1.241-3.929,2.688-7.174,4.41-10.965c0.766-1.333,0.719-2.137,0.46-2.925c-1.998-1.861-3.446-3.507-4.48-5.919l0,0
			h-10.307l-0.022,3.783c-9.938-0.432-9.462-13.468,0.053-13.705l0.007,3.697l0,0l9.924-0.484c1.867-3.27,5.656-5.255,9.648-6.254
			c0.104-0.517,0.381-0.744,0.75-0.82c3.284,0.695,4.868,1.232,7.619,1.103c1.101-4.272,3.483-9.327,7.343-11.898l5.383,6.692
			c-1.682-0.218-5.856,0.31-6.027,3.339l0.032,4.517l97.962,0.008l4.984,4.984c-1.448,1.929-2.671,3.391-4.325,5.253l-98.615,2.493
			l0.076,4.182c0.116,2.727,4.513,4.688,6.664,3.837l-4.402,6.642c-1.536,1.401,0.646,1.612-0.414,2.531l-1.807,0.037l6.668,9.266
			c2.426-0.657,4.648,2.146,3.981,4.177c1.52,1.515,7.021,3.123,8.852,3.756c0.082-1.303,0.765-0.485,1.616-1.012
			c9.072,2.18,9.795-4.974,11.448-9.779c-1.501-0.274-0.253-2.235-0.116-3.407c0.171-0.799,1.178-2.231,0.629-3.055l-4.877-0.098
			l6.814-14.443c0.859,1.272,1.462,2.052,2.289,2.506c3.305-2.001,7.427-3.777,11.655-5.201c4.801,5.489,11.265,9.968,11.017,16.23
			c-0.301,3.149-2.921,5.407,0.482,9.16c-0.237,0.26-1.223,0.398-1.592,0.635c1.273,6.767,9.158,8.224,13.017,7.359
			c0.211,0.677,0.579,1.119,1.05,1.418c2.038,1.302,5.817,1.11,6.566,4.855l22.403,0.005c2.439,28.724-0.068,59.288-27.331,74.212
			c-10.405-6.202-18.331-16.264-23.361-27.288c-1.033,1.17-3.376,1.033-3.101,2.687c2.87,4.47,5.599,11.195,7.788,18.194
			c1.791,0.481,3.998,0.287,4.826,2.973c0.287,2.62,0.356,5.596-0.816,7.938c9.166,0.76,19.213-0.178,27.206,4.44
			c11.108,5.144,33.315,19.453,35.952,19.307c1.807-0.391,4.164-2.676,3.889-5.502c-0.257-7.902-9.016-15.438-13.565-23.291
			c-4.409-7.375-5.111-17.987-0.287-25.29c5.546-8.737,12.542-12.757,20.342-15.884c3.621-0.951,4.575,1.574,3.85,2.42
			c-2.713,1.751-5.045,3.884-6.009,6.987c-3.432,8.71,6.327,20.376,11.032,26.704c-0.167-2.681,1.731-4.081,3.656-5.665
			c0.24,2.313-0.273,4.457,1.514,6.73c6.715,12.752,6.767,30.218-2.341,39.213l2.912-0.854c-0.689,2.274-1.326,4.713-2.912,6.641
			c-5.1,5.582-11.909,8.577-19.985,6.272c-6.89-2.343-13.492-9.134-15.697-16.231c-1.053-1.157-2.848-2.353-4.889-2.85
			c2.802,6.504,6.783,11.882,5.897,22.852c-0.861,8.831-3.857,16.239-1.696,22.077c1.501,4.181,9.952,11.337,13.043,11.692
			c2.249,2.316,4.624,6.33,6.594,8.844c-1.136,1.685-1.172,24.628,0.278,27.658c2.894,4.755,4.19,10.094,2.881,15.675
			c-1.572-0.399-3.914-2.234-6.051-0.716c-2.739,2.338-1.697,7.522-1.146,9.933c0.413,1.787,0.511,3.429,0.099,4.925l-21.762,0.015
			l-0.016-4.802h-9.505l0.096-4.791c3.317-7.215,12.723-9.698,13.443-19.563c0.052-9.632-1.925-22.997-10.952-30.852
			c-8.269-7.1-18.025-10.45-27.327-15.688c-3.032-2.826-4.204-6.823-6.617-9.923c-3.652-0.621-8.012,2.566-9.461,0.434
			c-0.965-1.24-2.425-3.191-3.596-4.225c-5.433,0.429-12.275,1.449-16.63,2.22l-0.661,34.268l-6.552,5.209l-6.333-5.096
			l0.035-32.713c-11.103,0.865-22.302,2.12-34.105,1.365c-2.03,1.926-5.207,4.67-5.985,7.63l10.024,3.954l3.446-10.014l4.552,11.283
			l18.57-1.433l-17.411,7.47l2.135,17.794l-9.717-15.599l-14.186,4.796l10.333-9.979l-9.484-3.445
			c-1.033,0.552,0.529,2.618-0.986,2.618c-1.448-0.344-2.688-1.24-4.271-1.104c-0.139,0.277-0.485,0.942-0.347,1.356h-18.4
			c-0.414-1.656,1.379-3.148,1.86-4.663c-3.72-0.689-7.028,1.447-9.922,3.583c-1.447-0.623-1.86-2.617-3.17-3.583
			c5.509-5.577,12.681-9.919,20.674-10.474l1.999-2.757c-5.786-0.91-11.829-3.256-17.413-4.691c-2.826,2.55-5.109,4.829-8.898,4.14
			c-8.406-5.79-16.76-11.923-22.479-19.985c-2.192-4.866-3.997-10.517-9.235-13.55c-3.62-3.227-6.751-2.255-10.659-1.197
			c-3.239,2.756-5.641,6.444-8.19,9.89c-2.153,1.958,3.365,9.474-3.327,14.283c-2.277-3.104-3.964-2.081-6.329,0.286
			c-1.795,4.05,4.383,6.228,6.876,10.402L127.2,248.083l-3.055-4.285c-2.413-6.209-0.704-15.462-0.492-22.623
			c-0.986,0.403-7.581,3.619-7.581,3.514c-0.758-1.448-1.447-3.24-2.344-4.824c2.262-9.976,6.071-18.54,10.291-28.383
			C125.838,188.283,146.958,178.164,158.38,174.002L158.38,174.002z"/>
		<path id="_79508200" class="st2" d="M119.036,207.116c1.804-1.481,9.292-0.187,11.233,1.171l0,0l-3.928,5.995l-11.003,4.668
			C115.795,215.16,117.045,210.492,119.036,207.116L119.036,207.116L119.036,207.116z M307.965,57.725
			c3.839,3.881,8.633,7.683,10.128,13.334c0.46,3.407-2.783,7.713,0.191,10.319c-4.879,1.632-17.737,1.757-16.488-7.868
			c1.265-0.561,2.959-0.454,3.99,0.12c0.2,1.743,4.083,2.84,5.569-0.286c1.241-2.801-2.147-5.196-4.006-4.196
			c-3.133-1.34-7.742-4.208-10.265-6.852C298.101,60.99,306.627,57.2,307.965,57.725z M297.859,75.233
			c0.214-0.498,0.194-0.996-0.058-1.495c1.087-0.16,2.254-0.01,2.721,0.452L297.859,75.233z M293.553,83.722
			c-0.184-0.577,0.509-1.154,0.877-0.97c2.748,0.636,2.661,3.686,3.95,4.975c-1.289,0.859-2.9,0.913-4.192,0.239
			c-0.809-0.377-1.139-1.071-0.863-1.9C295.198,84.669,293.986,83.554,293.553,83.722z M293.325,80.044
			c3.509-0.752,4.512,1.749,5.524,3.498c0,0.461,0.092,0.829,0.46,1.105c0.368-0.092,0.829-0.46,0.921-0.921l0,0v-1.105l0,0
			c1.105-0.276,2.496,1.228,2.865,1.965c0.056,1.145-1.204,2.532-3.083,2.618c-2.555-0.138-2.416-3.804-4.119-4.926
			c-0.509-0.257-1.237-0.288-2.461-0.115C291.959,81.737,292.225,79.995,293.325,80.044L293.325,80.044L293.325,80.044
			L293.325,80.044z M296.38,74.189v1.516c1.875,0.664,3.659-0.832,4.311-0.227l0,0c0.46,2.415,2.414,5.05,4.348,6.409
			c0,0.644-0.793,1.529-1.345,1.99c-0.737-1.473-3.279-2.875-4.568-1.77c-1.284-0.738-2.225-1.584-2.614-2.565
			c-0.5-1.261-0.452-2.378-2.082-2.315c0.184,0.921,1.551,0.822,0.836,1.841c-1.012,0.277-2.564-0.397-3.584-0.085
			C292.657,76.612,292.791,71.888,296.38,74.189L296.38,74.189L296.38,74.189L296.38,74.189z M307.668,69.874
			c0.989-0.604,3.766,0.175,3.04,3.204c-1.168,2.521-4.119,1.904-4.531-0.454h-17.688l5.631-11.933
			C296.111,62.859,304.207,69.054,307.668,69.874z M370.981,306.935c4.106,1.044,6.943,3.057,10.374,5.412l0.982,4.315
			l-19.023,0.011C364.548,313.473,367.945,309.172,370.981,306.935z M370.192,269.445c5.036,8.176,5.116,17.678,4.083,27.808
			c0.092,2.499-1.45,6.407-3.424,8.157c-0.228,0.202-0.987,1.054-1.241,1.053c-1.947-1.762-5.275-4.347-7.148-4.154
			c2.134-3.467,3.818-5.713,4.426-8.43c0.717-12.226-2.796-29.156-13.429-35.928C358.965,260.618,366.95,262.96,370.192,269.445
			L370.192,269.445z M361.526,303.042c3.885-0.177,7.05,3.519,7.649,3.997c-1.058,0.899-2.816,2.757-4.066,4.196h-11.425
			C355.253,308.341,358.614,304.877,361.526,303.042L361.526,303.042L361.526,303.042z M382.2,200.018
			c2.757-1.309,5.237-4.066,5.1-7.443c-2.205-13.369-17.779-20.674-17.297-35.558c-0.551-8.063,4.272-15.092,9.854-20.122
			c3.27-2.333,11.042-7.869,14.885-7.443l0,0l0.689,1.103c-3.79,1.929-5.995,5.513-6.753,9.441
			c-0.896,13.989,13.093,21.225,14.678,33.905c1.654-3.515-2.412-6.822-0.965-10.406c0.689-0.896,1.241-2.067,1.998-2.825
			c-0.138,1.86,0,3.928,1.103,5.444c9.523,19.084,3.249,34.919-4.617,40.038c1.723,0.551,3.239-0.345,4.824-0.482
			c-1.447,3.514-4.577,7.109-8.023,8.9c-6.117,3.754-14.46,1.949-20.079-2.398c-3.859-2.894-7.112-7.399-7.94-12.292
			c-2.618-1.034-4.824-2.687-7.443-4.135c-0.758,0.758-0.069,1.723,0.138,2.481c2.067,3.308,3.239,7.029,4.824,10.543
			c-10.294-7.234-19.193-10.139-23.181-11.426c0.188-6.969-2.175-15.036-5.208-19.929C352.915,182.17,368.556,194.092,382.2,200.018
			L382.2,200.018L382.2,200.018L382.2,200.018z M331.479,92.377c2.274,0.345,5.134,1.73,6.236,3.66l-8.235,0.07
			C330.514,95.005,329.55,92.653,331.479,92.377L331.479,92.377C331.479,92.377,331.479,92.377,331.479,92.377z M331.691,176.588
			c5.031,5.995,5.417,12.107,6.382,19.757c-3.808-0.603-7.322-0.923-11.248-0.927c-0.207-7.443-2.163-13.593-6.023-19.519
			C324.248,175.968,328.245,176.312,331.691,176.588L331.691,176.588L331.691,176.588L331.691,176.588z M320.662,233.923
			c-2.55,0.414-5.51,0.648-7.922,1.268c-1.034-0.896-2.274-2.55-3.308-3.652c2.963-0.756,6.819-1.056,9.782-0.234l0,0
			L320.662,233.923z M316.578,179.705c2.547,3.602,4.491,10.556,4.159,15.368l-23.229-0.307l5.43-4.538
			C311.537,185.989,313.931,183.282,316.578,179.705L316.578,179.705z M305.926,145.784c3.446,5.582,5.927,12.029,7.443,18.238l0,0
			l-17.447,0C295.1,155.523,303.336,147.097,305.926,145.784L305.926,145.784L305.926,145.784z M308.403,164.974
			c0.15,3.752-7.586,11.094-12.822,11.991l-0.06-11.995L308.403,164.974z M300.137,146.611L300.137,146.611l2.805,0.34
			c-5.44,5.373-8.149,9.573-8.49,17.131l-0.004,20.086c0.139,1.739,0.128,5.665-2.606,6.133l0.016-25.98
			C291.889,157.286,294.025,152.568,300.137,146.611z M300.826,139.375c0.069-1.654,1.447-3.997-1.171-4.341
			c-1.378-0.275-2.412,0.482-3.652,0.482c1.24-1.103,1.145-3.42,3.195-3.816c1.449-0.386,5.53-0.372,7.779,0.026
			c0.552,3.515,1.681,6.59,2.714,10.036c-1.999,1.18-5.075,4.78-8.727,3.678c-2.619-0.827-5.375-1.447-7.581-3.308
			C295.796,141.443,299.103,141.787,300.826,139.375L300.826,139.375L300.826,139.375L300.826,139.375z M291.57,200.283
			l29.314,0.539c-0.735,7.469,0.83,13.544,5.845,17.734c1.034-0.62,2.619-0.207,3.652-0.345c0.482-1.378,0.03-2.8,0.237-4.523
			c-3.79-2.067-4.353-9.611-3.544-12.534c2.11,0.219,8.589,0.597,10.812,1.365c-0.413,5.927,1.255,12.866,4.563,17.346l4.111,0.674
			l1.844-4.251c-4.269-1.808-4.673-9.396-4.398-12.635c6.962,1.087,18.697,7.839,24.522,12.367
			c0.356,8.542-3.151,16.234-2.661,23.553c0,7.443,7.374,10.544,12.06,15.712c4.505,0.58,5.35,5.335,7.718,8.258
			c0,9.923-1.088,19.792,1.393,29.095c1.681,1.306,3.949,8.955,2.343,12.266c-0.827,0-2.205-0.99-3.308-1.059
			c-3.568,1.524-5.28,5.992-4.469,7.768c-1.788-1.289-7.93-5.36-9.934-5.36c2.688-2.687,3.708-7.001,4.052-10.792
			c0.276-12.611,0.452-26.895-11.401-33.993c-7.793-3.758-32.425-13.887-37.68-18.907c-2.753-5.734-7.978-13.724-10.827-19.293
			c-0.643-1.143-1.538-1.901-2.733-2.232l-0.345,0.345c3.101,1.723,3.997,5.513,5.651,8.407c-7.443-0.482-20.66,1.56-27.34,2.326
			L291.57,200.283L291.57,200.283z M362.02,248.463c0.138,1.103,1.447,1.654,1.447,2.825c2.963,2.343,6.133,6.202,9.441,7.649
			c1.723,0.344,3.721,1.034,4.479,2.756c0.896,2.549-0.137,5.168-1.86,6.822c-0.132-0.111-0.309-0.173-0.483,0.001
			c1.033-1.654,2.067-3.446,1.654-5.444c-0.344-1.24-1.378-2.618-2.618-3.032c-1.585-0.414-3.652-0.62-5.306,0.207l0,0l0,0
			c-0.353,0.16-1.085,0.615-1.309,0.345l0,0l2.619-1.654c-2.688-3.239-6.34-5.72-7.787-9.441
			C362.02,249.083,361.607,248.946,362.02,248.463L362.02,248.463L362.02,248.463L362.02,248.463z M289.345,267.042l-5.471,4.569
			l-5.017-4.576l-0.124-82.421l12.06,0.037L289.345,267.042L289.345,267.042z M290.884,178.493l0-5.74
			C286.402,172.554,286.728,178.206,290.884,178.493z M278.684,178.627l0-5.74C283.165,172.688,282.839,178.339,278.684,178.627z
			 M291.297,142.124c0.758,0.207,1.328,0.49,1.535,1.179c1.792,1.378,4.273,1.792,5.789,2.963
			c-4.389,4.732-7.77,11.029-7.667,17.746c0,0.013-7.834,0.16-13.054,0.267c-3.484-0.162-7.446-3.334-9.016-6.114
			c1.702-3.574,7.912-9.766,9.576-12.947l0.531-2.539C282.863,142.432,287.652,142.346,291.297,142.124z M289.042,88.587
			c1.24-1.998,2.205-4.135,2.963-6.271l0,0l0.827,0.482l0,0c-0.207,0.138-0.207,0.482-0.482,0.62
			c2.688,1.93-2.013,2.825,0.743,4.824c1.493,0.957,2.473,1.095,3.66,0.98c4.257-0.497,7.452-3.389,9.173-7.113
			c3.446,1.516,7.511,0.551,11.233,0.827c1.053,6.322,7.11,7.752,12.314,7.925c0,1.516,0.207,4.273-1.516,5.168l-22.098,0.036
			l-0.37,13.815c-7.472,1.718-25.927-2.858-25.94-19.03C280.761,91.234,285.307,92.694,289.042,88.587z M279.323,95.685
			c2.355,10.695,15.714,17.451,26.035,15.055c0.298,7.029,0.323,13.2,1.309,19.815c-3.032,0.069-6.393-0.827-9.012,0.551l0,0
			l-2.998,4.514c-2.572,0.444-12.846,0.408-15.765,0.242l0.07-40.498L279.323,95.685L279.323,95.685L279.323,95.685z
			 M277.672,193.746c-2.103,2.071-4.725,5.547-7.357,7.167c-1.598-1.158-3.331-1.379-4.795-3.472
			c3.628-5.442,8.046-12.553,12.063-15.803L277.672,193.746z M268.813,88.089c2.274,1.723,6.706,2.657,9.118,4.035l-0.038,17.442
			c-4.93-2.91-10.825-6.485-15.833-9.556C262.506,95.542,264.973,90.6,268.813,88.089L268.813,88.089z M275.329,165.287l2.357,0.207
			l0.031,15.005c-1.998,0.069-11.404,13.796-13.109,16.504c-2.685-1.554-4.499-3.792-5.127-8.097
			C262.165,179.803,270.121,167.492,275.329,165.287L275.329,165.287L275.329,165.287L275.329,165.287z M259.164,50.341
			l101.356-1.08l-3.132,3.829l-98.163,2.504C258.932,53.765,259.064,51.653,259.164,50.341L259.164,50.341z M356.516,44.514
			l4.02,3.959l-101.348,1.064c-0.345-1.447-0.291-3.63,0.169-5.138L356.516,44.514L356.516,44.514z M258.413,188.89
			c1.426,8.853,8.915,11.295,11.889,13.223c2.071,3.095-0.732,6.885-3.792,5.143c-4.064-1.355-6.869-5.974-13.844-5.265
			c-2.346-2.197-3.548-4.147-3.27-8.26C252.462,190.812,255.687,189.245,258.413,188.89L258.413,188.89z M265.543,84.108
			c1.426-1.226,3.881,1.402,3.039,2.635c-4.135,3.859-7.656,8.391-7.656,14.731l-7.94-3.323l-1.776-8.254
			C256.516,90.172,261.271,87.278,265.543,84.108L265.543,84.108L265.543,84.108z M258.79,142.683
			c-0.276,1.998-0.069,4.273-0.827,6.064c-2.757,0.482-6.271,1.447-8.27,3.859c1.309-3.377,1.103-7.098,2.343-10.13l0,0
			L258.79,142.683z M272.022,222.827c1.792-2.412,3.328-5.602,5.602-7.669v18.706c-10.072,1.19-22.326,2.206-32.727,1.713
			c4.882-4.408,10.659-7.576,14.853-12.749L272.022,222.827L272.022,222.827z M264.104,82.592
			c-0.506,3.579-9.409,6.246-12.122,5.919c-2.489-5.271-5.652-9.453-7.663-15.083l13.186-0.053
			C259.887,76.317,261.836,79.568,264.104,82.592z M246.784,47.814c-1.776,1.333-3.821,3.262-6.095,3.193
			c-1.86-0.758-4.411-2.412-5.513-3.998c2.352-3.528,4.852-4.247,8.515-5.229C244.036,45.725,248.437,44.965,246.784,47.814z
			 M241.424,58.817c-1.723,0.769-6.294-3.087-5.406-5.016l5.199-0.13c0.94-0.218,0.676-1.306,0.651-1.875
			c1.274-0.133,5.945-3.632,5.942-3.767l0.016-2.886c-1.61,0.188-4.227-2.933-2.865-4.434c0.41,0.461,7.015,1.706,6.938,1.187
			c-1.929,9.554-0.673,22.252,8.047,29.058c-0.069,0.827,0.574,1.899-0.391,1.692l-24.265-0.039
			C237.083,67.921,238.875,63.021,241.424,58.817L241.424,58.817L241.424,58.817z M260.205,204.955
			c1.642,0.993,3.218,2.192,4.929,2.984c-3.032,7.373-5.173,14.889-12.477,20.195c-5.927,4.204-12.128,8.408-16.057,14.541
			c-0.767,2.047-2.014,0.611-3.928-0.183C240.122,228.012,255.095,223.1,260.205,204.955z M232.011,232.163l21.015-28.76
			c1.925-0.317,4.764-0.064,6.349,1.176c-4.221,17.291-20.683,23.767-27.557,37.608l-3.037-0.96
			C227.743,236.768,232.523,236.486,232.011,232.163z M230.05,248.859c-0.845-0.634-1.127-1.409-0.846-2.325l5.52,1.792
			l-0.423,1.893C233.175,249.804,231.254,249.092,230.05,248.859L230.05,248.859z M249.528,199.199
			c0.596,1.532,1.289,2.598,2.221,3.783l-20.386,27.978c-0.551-0.965-1.723-1.723-3.032-1.654L249.528,199.199z M219.931,74.755
			c24.279,8.897,38.744,36.134,38.759,60.486l-6.171-0.552c-1.847-28.042-11.917-44.626-33.285-56.963
			C219.806,76.869,219.944,76.208,219.931,74.755L219.931,74.755z M210.345,115.67c5.26-0.666,9.091-3.479,12.539-7.887
			c1.172-1.93,3.061-0.008,3.942-0.038c-1.593-2.909-3.208-1.516-3.773-2.281c-0.099-4.132-2.079-9.231-3.476-11.121
			c3.239-2.619,6.667-6.456,6.598-10.729c16.783,10.664,25.657,31.977,24.927,50.918c-14.63-0.541-27.708-3.501-41.81-7.443
			C210.946,123.644,210.896,119.46,210.345,115.67L210.345,115.67L210.345,115.67L210.345,115.67z M211.516,76.665
			c0,1.93,2.234,2.789,3.446,3.17c2.144,0.252,4.808-2.655,5.927,1.103c0.138,3.514-1.585,6.547-4.41,8.476
			c-3.308-3.79-7.142-7.491-10.795-10.248C206.593,78.6,209.673,77.088,211.516,76.665L211.516,76.665z M220.061,238.508
			l-4.892,7.22c-2.842-0.422-7.666,1.175-11.229,3.709c-0.689-0.689-2.279-2.109-0.9-3.005
			C206.161,243.121,215.389,237.948,220.061,238.508L220.061,238.508z M219.117,73.885c0.345,1.585-0.227,2.988-1.33,4.297
			c-2.108,2.423-6.856-0.593-5.448-3.113c0.758-0.551,2.501,1.84,2.639,0.186c-4.237-2.431-9.362-1.884-13.794-3.754l0.49-2.136
			C206.845,71.627,216.798,66.11,219.117,73.885z M211.172,75.701c-0.666,0.219-1.789,0.672-2.22,0.627
			c-1.774-0.323-8.285-2.342-10.006-2.889l0.158-1.637c3.466,1.155,10.383,2.379,12.128,2.906
			C211.232,74.708,211.172,75.701,211.172,75.701z M199.291,86.791c0.069,1.034,1.062,1.727,1.613,2.279
			c-1.205,1.02-3.273,1.35-4.921,0.689C196.157,89.431,198.178,84.908,199.291,86.791L199.291,86.791z M215.307,97.684
			c2.343,3.997,3.721,9.027,2.618,13.851c-4.065,3.514-11.082,4.312-15.975,1.969c-1.034-0.344-1.427-1.414-2.708-1.062
			c-0.936,0.268-1.438,0.515-2.334,1.273c-0.456-1.122-2.436-2.043-0.836-3.157C202.688,106.217,208.691,101.681,215.307,97.684
			L215.307,97.684L215.307,97.684L215.307,97.684z M195.115,150.402c3.583-3.79,6.527-8.576,9.077-12.779
			c16.222,3.318,30.361,4.677,46.403,4.972v-0.001c-0.225,0.605-0.577,8.364-3.245,12.15c-1.792,2.894-3.859,5.927-3.928,9.441
			c-16.056-1.447-30.459-1.792-45.826,0.62c-3.997,0.965-7.925,1.93-11.577,3.652C188.086,162.048,190.498,155.639,195.115,150.402
			L195.115,150.402L195.115,150.402z M193.599,86.933c0.069,1.654,1.034,3.377,2.687,3.928c1.861,0.276,4.273-0.344,5.927-1.103
			c0.62-0.896,1.93-1.723,2.481-0.551c0.482-0.069,1.171-0.413,0.689-0.965c-2.205-1.171-4.686-3.239-7.305-2.619
			c-1.378,0.689-1.585,2.825-2.825,3.101c-1.524-1.654-0.373-3.863,1.171-4.917c1.494-1.006,3.039-2.278,6.701-0.081
			c3.395,2.225,6.575,5.867,8.877,9.076c0.001,0.251-18.471,13.02-20.065,14.122c-2.894-3.721-6.133-7.279-10.475-9.692
			C184.977,93.444,189.947,90.379,193.599,86.933L193.599,86.933L193.599,86.933L193.599,86.933z M187.275,116.335
			c-0.016,2.262-3.641,4.23-5.772,4.665l-0.466-0.887C183.285,119.176,186.212,117.513,187.275,116.335L187.275,116.335z
			 M180.713,122.63c2.585-1.298,5.487-2.069,6.782-4.333c0.345-1.171,0.868-2.282,1.143-3.11c1.698-1.328,3.222-0.96,3.352-0.34
			c0.399,0.427,0.823,1.034,1.034,1.471c-2.679,1.861-2.918,6.105-6.522,7.345C184.734,123.967,180.506,125.869,180.713,122.63
			L180.713,122.63L180.713,122.63L180.713,122.63z M177.364,100.704c3.799,2.463,7.613,5.568,10.075,9.258
			c0.412,1.119-0.444,2.416-2.547,2.931c-3.652,0.413-7.163,0.563-8.954,4.215c-0.418,2.468-0.511,2.708-2.886,2.201
			c-0.15-1.837-2.044-6.27,1.39-5.914c0.482-1.24-1.252-3.685,1.354-4.504c1.915-0.912,2.679,2.06,2.298,2.85
			c0.965,0.138,0.981-1.021,1.05-1.435c-0.207-1.034-0.993-2.193-2.165-2.4c-1.654-0.138-2.542,0.527-3.3,1.974
			c-0.62,1.309,1.013,2.825-1.719,2.647C170.619,104.373,174.03,104.265,177.364,100.704L177.364,100.704z M130.476,210.768
			c5.72-8.407,11.233-16.746,17.504-24.602c3.583-2.343,7.305-2.894,11.439-3.997c2.55-0.413,4.548,0,6.616,1.309
			c9.579,6.065,17.627,11.917,26.012,20.145c2.219,1.516,4.378,2.527,6.515,2.045c-3.763-1.126-7.732-3.823-10.213-6.855
			c5.513-1.447,13.107-1.966,17.862,1.548c0.414-0.207,0.414-0.758,0.138-0.965c-5.031-3.584-10.971-2.991-16.759-2.164
			c-3.408,0.773-8.134-4.417-10.126-6.226c-0.069-0.964,0.019-2.004,0.156-3.383c7.649-3.377,15.978-5.594,24.73-6.765
			c13.438-1.998,26.807-1.24,39.693,0c-2.756,7.443-7.098,13.782-10.061,21.156l0,0l-14.541,29.77l0,0
			c-3.997-0.276-7.856-1.861-11.577-3.308l0,0l-0.345-0.827c2.55-4.411,6.133-9.234,10.888-10.75
			c0.207-0.413-0.276-0.482-0.483-0.689c-9.51,2.136-10.268,14.541-19.984,16.401c-10.061-6.684-21.638-14.816-25.635-26.6
			c-2.136-4.065-5.582-6.271-9.096-8.821c-3.032-1.24-6.202,0.207-9.097,0.689c-3.721,3.239-6.547,7.305-9.441,10.888
			c-0.664,3.383,0.688,4.544,0.597,8.536c-0.069,1.447-1.176,2.931-2.003,3.896c-5.172-3.692-9.652,3.835-7.445,5.457
			c-2.509-0.337-8.641,0.182-10.803,1.443l-0.482-0.689C124.292,219.767,127.064,215.386,130.476,210.768L130.476,210.768
			L130.476,210.768L130.476,210.768z M161.197,186.72c-3.91,2.176-8.416,5.667-12.344,3.239c-0.013,0.555,0.015,1.621,0.585,2.096
			C157.138,191.292,157.749,188.949,161.197,186.72L161.197,186.72z M135.437,227.619c1.585,0.482,3.225,1.994,4.052,3.234
			l-14.399,12.078c-1.144-2.912-1.277-8.141-0.657-12.138C125.542,227.08,133.093,227.939,135.437,227.619L135.437,227.619z
			 M132.268,187.476c7.8-5.151,18.843-9.292,27.628-12.459c5.063,0.298,9.805,1.148,13.076,2.623l5.467,6.529l0,0
			c0.413,1.998-0.069,3.997-0.345,5.926c-6.684-3.446-11.784-11.026-20.053-9.234c-4.204,2.067-9.717,1.447-12.68,6.271l0,0
			l-6.34,8.959l0,0c-4.322-1.019-7.433,3.792-4.755,6.754c-1.447,1.378-2.067,5.306-4.824,3.79
			c-0.283-0.686-8.756-2.078-9.579-1.998C122.069,198.364,124.48,189.681,132.268,187.476L132.268,187.476L132.268,187.476
			L132.268,187.476z"/>
		<path id="_79506784" class="st3" d="M189.465,168.112c17.526-5.57,38.369-4.482,53.752-2.619
			c-0.199,3.308,0.924,6.261,1.516,9.441c-34.48-4.089-53.884,2.034-63.505,5.707C183.639,176.576,183.607,168.732,189.465,168.112
			L189.465,168.112L189.465,168.112z M194.878,123.338c31.717,11.182,57.744,14.436,94.371,13.683
			c3.082,0.05,6.684-0.057,9.717-0.953c1.447-0.207,1.24,1.447,1.034,2.274c-1.072,2.22-5.138,2.408-7.668,2.73
			c-27.681,1.323-76.059,1.921-102.633-9.476L194.878,123.338L194.878,123.338z M211.991,93.901c-0.227,1.626,1.772,2.514,1.792,3.3
			l-18.802,12.914c-0.069-0.965-1.252-1.96-1.872-2.718L211.991,93.901L211.991,93.901z M204.912,79.736
			c3.396,2.374,8.212,6.439,10.417,10.023c-1.172-0.069-2.228,1.034-2.986,1.654c-3.514-3.584-6.903-7.811-11.176-10.085
			C202.399,80.198,203.51,79.78,204.912,79.736z M221.685,107.745l-2.343,2.818c-0.088-4.016-0.551-9.671-3.308-13.116
			c1.511-0.619,2.256-1.022,3.2-2.017C221.091,98.703,222.973,102.531,221.685,107.745L221.685,107.745z M221.704,80.896
			c1.219,0.126,2.28,0.728,3.182,1.803c1.056,4.066-2.066,7.592-5.337,10.279c-0.276-1.171-1.378-2.462-2.343-2.944
			C219.482,88.299,222.616,83.868,221.704,80.896z M225.23,222.846c1.654-0.551,4.472,0.12,6.126-0.018l-3.769,5.694
			c-2.248,1.064-3.554,2.454-3.482,4.389c-1.232,0.411-2.318-0.791-3.544-0.859L225.23,222.846L225.23,222.846z M248.17,193.276
			c-0.06,2.144,0.264,3.543,0.62,5.063l-16.328,23.22l-6.534-0.049l20.803-42.839c1.693,2.804,7.807,7.934,11.216,8.765
			C254.308,188.445,250.67,190.457,248.17,193.276z M268.693,155.76c-0.466,1.103-1.134,1.257-1.289,1.946
			c1.378,2.963,3.786,5.558,6.672,7.021c-5.379,2.866-13.513,16.66-14.536,21.578c-13.989-3.92-18.841-19.789-12.189-29.563
			C252.274,149.018,264.032,146.957,268.693,155.76L268.693,155.76z M266.557,208.336c3.58,1.555,6.486-2.937,5.103-6.527
			c1.447-2.276,3.879-4.509,5.881-5.879l0.262,17.318c-3.628,3.596-5.249,6.165-6.001,8.307l-11.64,0.138
			C262.81,218.14,264.209,211.155,266.557,208.336L266.557,208.336z M320.574,196.256c-0.429,1.102-0.475,2.397-0.138,3.5
			l-27.264-0.454c0.345-1.516,2.025-2.715,3.059-3.748l0,0L320.574,196.256L320.574,196.256z M291.523,198.578l0.004-6.421
			l9.064-1.419C298.576,191.782,293.616,196.705,291.523,198.578L291.523,198.578z M309.923,165.287
			c2.481-0.276,5.444-0.896,8.063,0.344c2.274,4.135,0.207,9.096-1.792,12.611c-3.38,6.615-13.467,11.694-22.226,12.522l1.216-2.541
			l0.592-10.005C301.576,176.7,307.834,171.001,309.923,165.287L309.923,165.287z M319.631,175.899
			c4.28,5.567,6.217,12.849,6.118,19.379c-1.283-0.702-2.661-0.479-3.886,0c-0.345-5.263-1.681-11.871-4.575-16.299
			C317.499,177.829,318.322,175.835,319.631,175.899L319.631,175.899L319.631,175.899L319.631,175.899z M320.885,134.399
			l7.722,0.025l0.02-10.69h-7.531c-1.793,0.246-2.709,1.225-3.556,2.248v-13.897c1.085,1.296,2.079,2.196,3.817,2.302l7.326-0.004
			l-0.064-7.648c-0.205-1.593-0.957-2.91-2.297-4.099l14.399-0.028c-1.519,1.017-2.211,2.674-2.236,4.124l0.002,7.562l7.17,0.011
			c1.324-0.376,3.102-0.999,3.833-2.498v14.211c-1.008-1.26-2.171-2.064-3.733-2.258l-7.254-0.007l-0.001,10.54l7.517,0.02
			c1.406-0.013,2.311-0.951,3.457-2.314l0.012,13.673c-0.62-0.84-1.805-2.095-3.07-2.07l-7.911-0.001l0.004,7.967
			c0.105,1.916,1.131,3.006,2.227,3.777l-14.071-0.052c0.617-0.499,1.566-1.746,1.926-3.494l0.002-8.173l-7.42,0.011
			c-1.27,0.039-2.37,0.798-3.467,2.145l-0.024-13.576C318.659,133.312,319.781,134.353,320.885,134.399L320.885,134.399z
			 M359.099,97.944c2.016,23.104,0.643,55.655-25.514,69.978c-9.716-6.34-17.53-16.427-22.042-27.367
			c-4.805-12.48-4.467-29.476-3.618-42.601L359.099,97.944L359.099,97.944z M325.807,201.69c-0.551,4.066,0.893,10.425,4.131,12.768
			l-0.536,2.633l-2.574,0.332c-5.153-5.284-5.167-9.062-5.009-15.781C323.28,202.369,324.673,202.375,325.807,201.69z
			 M326.898,196.38c3.714-0.265,8.037,0.361,11.017,1.169c-0.49,1.232-0.794,2.598-0.386,3.802
			c-2.727-0.596-6.807-1.094-10.358-1.188C327.585,198.871,327.588,197.623,326.898,196.38L326.898,196.38L326.898,196.38
			L326.898,196.38z M339.133,179.624c2.067,5.23,4.453,11.686,3.749,17.639c-0.965-0.697-2.861-0.697-3.826,0
			c-0.482-6.868-1.302-15.119-6.195-20.538C335.068,177.293,338.582,176.474,339.133,179.624L339.133,179.624L339.133,179.624z
			 M347.073,216.86l-1.001,2.673l-2.719-0.609c-3.335-3.285-5.118-11.831-4.411-15.672c1.251,0.768,2.629,0.768,4.135,0
			C343.158,208.528,343.134,212.972,347.073,216.86L347.073,216.86z M344.414,198.439c7.094,1.696,18.863,8.013,23.288,11.904
			c0.482,1.034,0.578,3.112,0.785,4.215c-6.133-4.135-17.61-10.815-24.708-12.124C344.507,200.832,344.543,199.435,344.414,198.439
			L344.414,198.439z M191.214,107.143c-1.935-0.418-3.348,1.29-3.323,1.796c-2.274-3.446-6.625-6.945-9.795-8.944
			c0.896-1.585,1.784-2.106,3.336-1.741C184.079,99.13,189.825,105.465,191.214,107.143L191.214,107.143z"/>
		<path id="_79505200" class="st4" d="M124.191,219.332l-7.456,3.854l-1.461-2.872l10.784-4.82L124.191,219.332z M362.877,317.559
			l19.687-0.01l-0.019,2.211l-19.672-0.05L362.877,317.559L362.877,317.559z M364.697,312.168l-1.601,2.507h-9.599l-0.034-2.537
			L364.697,312.168z M323.918,196.02c3.69,0.218,3.635,5.016-0.153,5.114C320.277,201.177,319.997,196.189,323.918,196.02z
			 M341.072,197.558c3.69,0.218,3.635,5.016-0.153,5.114C337.431,202.715,337.151,197.726,341.072,197.558z M318.452,114.008
			c0.876,0.924,2.078,1.116,3.413,1.294l7.643-0.004l0.011-8.013c-0.167-1.461-0.163-2.756-1.145-3.687l10.173,0.013
			c-0.616,1.09-0.848,2.232-0.908,3.782l0.001,7.78l7.411-0.004c1.532-0.096,2.425-0.218,3.475-1.115l0.002,9.61
			c-0.404-0.282-1.678-0.828-2.971-0.83l-7.946,0.019l0,12.341l8.294,0.017c0.854,0.036,2.787-0.6,2.787-1.456l0.001,9.882
			c-0.582-0.559-1.879-0.958-2.66-0.935l-8.406-0.009l0.012,8.826c0.022,1.327,0.409,2.248,1.132,2.839l-10.394,0.036
			c0.752-0.623,1.202-1.585,1.153-2.931l-0.008-8.764l-7.501-0.013c-1.392,0.036-2.554,0.167-3.466,1.188v-9.457
			c0.459,0.27,1.191,0.732,1.998,0.819l8.981,0.074l-0.044-12.492l-7.726,0.004c-1.341,0.207-2.428,0.47-3.31,1.12L318.452,114.008
			L318.452,114.008z M290.983,165.493l-0.268,6.081c-5.619,0.134-5.735,7.442,0.062,8.03l0.131,4.001l-12.125-0.125l-0.099-3.815
			c5.684-0.131,5.576-7.836,0.192-8.002l-0.062-6.17H290.983L290.983,165.493z M263.4,34.951c-2.206-0.003-5.227,1.73-5.246,3.713
			l-0.038,22.13c0.295,2.904,3.942,4.624,5.958,4.693l-3.362,5.023c-11.266-7.63-11.56-31.845-1.44-40.36L263.4,34.951z
			 M248.389,249.8l2.821-8.917l3.583,9.785l15.437-1.516l-14.609,5.444l2.343,16.194l-8.408-14.678l-12.128,5.099l9.566-9.069
			l-18.66-7.049c-0.485-0.933-0.635-2.057-0.211-2.904L248.389,249.8L248.389,249.8z M228.033,230.269
			c3.516,0.088,3.611,5.3-0.029,5.386C224.499,235.594,224.543,230.44,228.033,230.269z M224.25,48.258l10.307-0.383
			c1.585,1.93,3.629,3.43,6.041,4.119c0.069,0.276,0.329,0.636,0.192,0.98h-16.593C223.726,50.998,223.7,50.073,224.25,48.258z
			 M223.385,44.744l-0.023,11.899C215.92,55.837,215.864,45.282,223.385,44.744z M228.961,236.431
			c-2.943,4.317-2.346,9.66,0.404,13.548l-0.06,0.662l-16.254-0.106l11.38-16.553C225.049,235.169,226.472,237.47,228.961,236.431
			L228.961,236.431z M188.154,133.243c4.63-0.419,5.043,6.376,0.109,6.849C183.667,140.33,182.635,133.243,188.154,133.243z
			 M215.726,90.872c3.647-0.33,3.972,5.022,0.086,5.394C212.192,96.455,211.379,90.872,215.726,90.872z M191.277,107.963
			c3.647-0.33,3.972,5.022,0.086,5.395C187.743,113.545,186.93,107.963,191.277,107.963z M194.248,112.382
			c1.784,2.495,4.47,4.526,4.743,7.751c-0.262,1.145-0.375,2.24-1.07,3.061l-0.324-0.081c-0.689-0.069-1.309-0.344-1.792-0.965
			c1.64-3.108-1.718-6.126-3.575-8.152C192.652,113.703,193.576,113.384,194.248,112.382L194.248,112.382z M187.777,112.261
			c0.503,0.863,0.929,1.082,1.273,1.496c-0.608,0.798-1.8,1.577-2.927,2.237c-0.859,0.547-1.912-1.034-1.191-1.812
			C185.441,113.573,187.119,112.783,187.777,112.261L187.777,112.261z M245.214,176.036c0.208,0.9,1.375,1.175,0.482,2.205
			l-0.905,1.701c-22.328-2.756-45.06-2.115-65.044,6.361c-0.589-6.037,3.749-5.273,11.715-7.925
			C208.948,173.888,227.407,173.621,245.214,176.036L245.214,176.036z M125.606,243.952l14.453-12.662l1.907,2.21l-14.523,12.827
			L125.606,243.952z"/>
	</g>
</g>
</svg>
