<svg id="Layer_1" data-name="Layer 1" xmlns="http://www.w3.org/2000/svg" viewBox="0 0 525 350"><defs><style>.cls-1{fill:#fff;}.cls-2{fill:#ce293f;}.cls-3{fill:#ffcd05;}.cls-4{fill:#f9f9fa;}.cls-5{fill:#010101;}.cls-6{fill:#346c35;}</style></defs><g id="Hungary"><rect class="cls-1" width="525" height="350"/><rect class="cls-2" width="525" height="43.75"/><rect class="cls-2" y="87.5" width="525" height="43.75"/><rect class="cls-2" y="175" width="525" height="43.75"/><rect class="cls-2" y="262.5" width="525" height="43.75"/><path class="cls-2" d="M262.5,61.49H172V184c0,62.48,90.5,84.94,90.5,105.41C262.5,269,353,246.5,353,184V61.49Z"/><path class="cls-1" d="M263.5,289.43h-2c0-6.91-11.82-14.51-26.79-24.14C207.83,248,171,224.3,171,184V60.49H354V184c0,40.28-36.83,64-63.71,81.27C275.32,274.92,263.5,282.52,263.5,289.43ZM173,62.49V184c0,39.19,36.3,62.54,62.8,79.59,12.86,8.27,23.48,15.11,26.7,21.77,3.22-6.66,13.84-13.5,26.71-21.77C315.7,246.56,352,223.21,352,184V62.49Z"/><path class="cls-1" d="M245.43,127.5l-1.33-1c-.62.35-9.15-.22-11.19-1.44a31.3,31.3,0,0,1-15-19.8c-.29-2.33-.59-6.08-.52-6.27a1.59,1.59,0,0,1,.93-1.1c.75-.25,4-1.31,4.43-1.82s4.12-3.65,4.69-5.83a16,16,0,0,0,.52-4.57,18.55,18.55,0,0,0-.5-5.09c-.49-1.64-1.88-3.09-3.76-4.62a10.61,10.61,0,0,0-4.85-1.82l-15.95.3s-10.59-.22-18.59-3.85c5.39,16.6,17.7,13.33,19.64,14.28C187.05,90.6,179.2,91,177.55,90.52c0,.5,2.06,3,4.39,5a14.54,14.54,0,0,0,5.73,2.85,35.62,35.62,0,0,0,8.54.07c1.73-.12,7.19-2,6.74-1.21-.36.59-2.78,2.43-5.75,5.15-2.61,2.4-5.63,5.73-8.61,8.41-5.33,4.78-10.86,7.65-10.55,8,1.76,1.85,6.65,3.16,10.72,1.86a14.71,14.71,0,0,0,4.73-2.67,61.73,61.73,0,0,0,4.74-4.47c2.3-2.27,4.47-4.15,5.83-5.45,0,1-.72,2.12-1.6,3.88-11,22.45-23.58,45.21-23.58,45.21,10.55.63,16.51-11.08,21.59-18.29,6.46-9.19,5-7.27,6.38-9.34s-.33,1.31-3.28,9.13c-3.56,8.49-3.47,15-4.76,23.94-1,6.67-2.45,14.58-2.49,13.66-.14,2.23-5.2,16.6-9.42,28.69,5-.44,8.55-3.59,11.23-6.55a53.78,53.78,0,0,0,4.89-9.89c2.26-5.76,3.91-11.28,5.56-16.54,3.46-11,5.88-20.78,8.32-27.67l-.08,14.32c.29,3.43-.74,19.1-1.38,23.9-1.55,11.66-1.93,18.59-3.22,24.94,16.4-2.78,20.61-38.5,20.24-53.2,1.34,11,2.69,21.67,4,31,3.28-2,5.13-4,5.93-8.06.72-11.12,1.58-20.68,2.3-30.06l6.77-14.31-6.07-5.33Z"/><path class="cls-2" d="M212.22,208a.65.65,0,0,1-.45-.19.64.64,0,0,1-.16-.56c.77-3.78,1.21-7.8,1.78-12.88.38-3.44.81-7.34,1.43-12s1.67-20.34,1.38-23.76l.05-10.46c-.94,3-1.9,6.34-3,10.05-1.2,4.19-2.57,8.95-4.11,13.88l-.69,2.21c-1.44,4.62-2.93,9.4-4.89,14.38a54.06,54.06,0,0,1-4.94,10l-.06.09c-2.63,2.9-6.33,6.28-11.64,6.75a.63.63,0,0,1-.65-.83l.91-2.6c3.91-11.22,8.35-23.94,8.47-25.92a.63.63,0,0,1,.16-.38c.35-1.31,1.5-7.59,2.35-13.33.31-2.15.53-4.16.76-6.11.69-6.15,1.3-11.46,4-18,.67-1.79,1.29-3.36,1.81-4.68-.8,1.17-2,2.88-3.83,5.48-.71,1-1.44,2.12-2.19,3.26-4.69,7.07-10.5,15.88-19.95,15.3a.61.61,0,0,1-.51-.32.66.66,0,0,1,0-.61c.13-.22,12.68-23,23.57-45.17.2-.41.39-.77.56-1.11l.18-.34c-1.19,1.09-2.54,2.32-4,3.73-.26.25-.55.55-.87.87a43.41,43.41,0,0,1-3.93,3.65A15.18,15.18,0,0,1,189,121.2c-4.26,1.37-9.41,0-11.36-2a.7.7,0,0,1-.18-.54c.05-.45.37-.68,2.3-2a72.31,72.31,0,0,0,8.46-6.37c1.6-1.43,3.22-3.06,4.78-4.64,1.35-1.36,2.62-2.65,3.83-3.76s2.55-2.26,3.53-3.1l1.05-.9c-.53.12-1.11.27-1.61.4a26.89,26.89,0,0,1-3.5.75,37.15,37.15,0,0,1-8.69-.08,15.25,15.25,0,0,1-6-3c-2-1.69-4.56-4.53-4.61-5.43a.65.65,0,0,1,.24-.53.62.62,0,0,1,.56-.1c1.22.36,8,.2,23.2-4.7-4.68-.25-13-1.41-17.25-14.43a.63.63,0,0,1,.86-.76c7.81,3.55,18.05,3.79,18.32,3.79l15.94-.29a11,11,0,0,1,5.26,2c2.31,1.86,3.5,3.34,4,4.92a19.23,19.23,0,0,1,.52,5.27A16.77,16.77,0,0,1,228,90.4c-.53,2-3.27,4.6-4.44,5.72-.2.18-.34.31-.4.38s-.57.65-4.69,2a.91.91,0,0,0-.51.65c0,.53.23,3.74.52,6a30.52,30.52,0,0,0,14.71,19.33c1.83,1.1,9.77,1.66,10.66,1.42a.53.53,0,0,1,.61.07l1.28,1,.08.06,6.07,5.33a.62.62,0,0,1,.15.74l-6.71,14.2c-.23,3-.47,5.94-.72,9-.53,6.58-1.08,13.4-1.57,21-.91,4.53-3.05,6.62-6.23,8.56a.64.64,0,0,1-.6,0,.65.65,0,0,1-.35-.48c-1-7.17-2.06-15.09-3-22.64-1.13,17.34-6.62,42.95-20.55,45.32Zm4.68-64.42H217a.62.62,0,0,1,.51.62l-.07,14.33c.29,3.42-.75,19.16-1.39,24s-1.05,8.56-1.43,12c-.52,4.7-.94,8.49-1.61,12,15-3.8,19.2-37.31,18.81-52.37a.63.63,0,0,1,1.25-.09c1.16,9.48,2.53,20.42,3.9,30.08a10.08,10.08,0,0,0,4.84-7.15c.48-7.49,1-14.3,1.57-20.89.25-3.08.49-6.1.72-9.09a.79.79,0,0,1,.06-.22L250.73,133l-5.67-5h0l-1.11-.82c-2.07.27-9.47-.44-11.36-1.58a31.85,31.85,0,0,1-15.32-20.19c-.07-.56-.69-6.11-.49-6.63a2.19,2.19,0,0,1,1.32-1.48,20.42,20.42,0,0,0,4.16-1.64,5,5,0,0,1,.46-.45c1-.95,3.66-3.47,4.09-5.12a15.68,15.68,0,0,0,.49-4.41,18.17,18.17,0,0,0-.47-4.91c-.39-1.31-1.48-2.64-3.55-4.31a9.92,9.92,0,0,0-4.53-1.68l-15.87.29h0a56.17,56.17,0,0,1-17.55-3.33C189.71,83.5,197.88,83.84,201.88,84a6.81,6.81,0,0,1,2.32.31.63.63,0,0,1-.08,1.16c-14.25,4.83-22.13,5.92-25.41,5.8A25.33,25.33,0,0,0,182.34,95a14.13,14.13,0,0,0,5.44,2.72,36.19,36.19,0,0,0,8.39.06,27.12,27.12,0,0,0,3.27-.71c3-.77,3.64-.88,4-.37a.72.72,0,0,1,0,.81,13.87,13.87,0,0,1-2.36,2.22c-1,.83-2.18,1.87-3.5,3.08s-2.45,2.36-3.78,3.71c-1.58,1.59-3.21,3.23-4.83,4.69a73.64,73.64,0,0,1-8.61,6.48c-.54.37-1.1.74-1.46,1a11.61,11.61,0,0,0,9.63,1.3,14.13,14.13,0,0,0,4.55-2.57,44.56,44.56,0,0,0,3.8-3.54l.87-.88c1.46-1.44,2.89-2.74,4-3.79.69-.63,1.3-1.18,1.8-1.66a.62.62,0,0,1,1.06.45,7,7,0,0,1-1.12,3.08c-.17.33-.36.69-.55,1.08-9.67,19.7-20.66,39.87-23.1,44.32,8.14-.15,13.49-8.23,17.82-14.76.77-1.16,1.5-2.26,2.22-3.28,4.68-6.66,5.19-7.47,5.64-8.19.17-.29.34-.56.73-1.14s.74-1.09,1.3-.8.55.37-.69,3.43c-.65,1.6-1.63,4-2.78,7.07-2.68,6.38-3.27,11.61-4,17.66-.23,2-.46,4-.77,6.15-1.35,9.11-2,12.42-2.49,13.61h0c-.13,2.15-4.41,14.4-8.54,26.25l-.58,1.65c4.35-.73,7.51-3.64,9.81-6.17a53.71,53.71,0,0,0,4.8-9.73c1.95-5,3.43-9.71,4.86-14.31l.69-2.21c1.55-4.92,2.91-9.67,4.11-13.85,1.53-5.37,2.86-10,4.22-13.84A.62.62,0,0,1,216.9,143.62ZM218,99.15Z"/><path class="cls-3" d="M205.61,227c0-.09.12-3.56.12-3.53s-4.13-.12-4.85.05c-1.21.28-1.91,1.64-1.71,4,.11.79.18,1.63.83,1.83.66-3.32,1.47-2.58,2.17-2.57s3.42.27,3.44.19Z"/><path class="cls-2" d="M200,230l-.18,0c-1-.31-1.14-1.36-1.25-2.2l0-.14c-.31-3.74,1.43-4.55,2.19-4.73a28.62,28.62,0,0,1,4.14-.07h.77a.63.63,0,0,1,.47.14.85.85,0,0,1,.19.5h0a.79.79,0,0,1,0,.17,20,20,0,0,1-.11,3.43h0c-.09.62-.32.6-2.42.45-.64-.05-1.29-.09-1.64-.1a2,2,0,0,1-.42,0c-.31-.05-.68-.12-1.12,2.11a.66.66,0,0,1-.3.41A.62.62,0,0,1,200,230Zm2.68-5.93a12.38,12.38,0,0,0-1.66.06c-.94.22-1.39,1.45-1.23,3.37v.16c.47-1.27,1.1-1.67,2.14-1.5a1.81,1.81,0,0,0,.23,0c.36,0,1,.06,1.72.1l1.11.08c0-.62.05-1.62.07-2.27h-.22Zm2.87,2.94h0Z"/><path class="cls-3" d="M214.49,212.56l-2.17,2.37-2.22-1.62c-.73-.76-2-.95-3.65-.54,1.7-3.59,5.25-3.4,6.11-2.1l1.93,1.89Z"/><path class="cls-2" d="M212.32,215.55a.63.63,0,0,1-.37-.12l-2.22-1.61-.09-.08c-.7-.74-2-.61-3-.36a.63.63,0,0,1-.64-.21.63.63,0,0,1-.08-.66,5.24,5.24,0,0,1,4.37-3.31,3.19,3.19,0,0,1,2.8,1.07l1.88,1.84a.63.63,0,0,1,0,.87l-2.17,2.37A.63.63,0,0,1,212.32,215.55Zm-1.81-2.71,1.72,1.25,1.39-1.51-1.49-1.46L212,211a1.89,1.89,0,0,0-1.7-.57,3.67,3.67,0,0,0-2.66,1.5A3.48,3.48,0,0,1,210.51,212.84Z"/><path class="cls-3" d="M213.9,237.75c1.79-.48.66-5.81-1.73-3.88s-5,3.31-2.17,7.8C210.15,238.43,212.1,238.22,213.9,237.75Z"/><path class="cls-2" d="M210,242.3a.64.64,0,0,1-.53-.29c-2.89-4.56-.47-6.45,1.66-8.11l.65-.51A1.88,1.88,0,0,1,214,233a3.7,3.7,0,0,1,1.38,3.5,2,2,0,0,1-1.32,1.81h0l-.45.12c-1.67.41-2.87.71-3,3.23a.63.63,0,0,1-.47.58Zm3.18-8.22a1,1,0,0,0-.62.28l-.66.52c-1.86,1.45-3.18,2.48-2.18,4.93.68-1.83,2.26-2.23,3.58-2.56l.44-.11h0c.29-.07.38-.6.4-.76a2.55,2.55,0,0,0-.75-2.24A.44.44,0,0,0,213.18,234.08Z"/><path class="cls-3" d="M235.61,225.73c4.2-2.63,6.54-2.06,7.06,1.62-2.24-1.17-3.69-.46-4.74,1.24"/><path class="cls-2" d="M237.93,229.21a.66.66,0,0,1-.33-.09.63.63,0,0,1-.2-.86q1.69-2.73,4.4-1.94a2.23,2.23,0,0,0-1.09-1.42c-1-.46-2.62,0-4.77,1.36a.62.62,0,0,1-.86-.19.64.64,0,0,1,.2-.87c2.6-1.62,4.55-2.09,6-1.44,1.1.52,1.79,1.69,2,3.5a.64.64,0,0,1-.26.6.63.63,0,0,1-.65,0c-1.74-.91-2.91-.61-3.92,1A.62.62,0,0,1,237.93,229.21Z"/><path class="cls-1" d="M247.05,198.19l-4.73-2.59-17.17,25.73c-1.17-1.84-2.05-4.62-3.06-7l-8.23-3.16a14.08,14.08,0,0,0-3.55,4.52,5,5,0,0,0,2.61,1.44,5,5,0,0,1,3.74-.75,31,31,0,0,1,2.87,5.7,81.18,81.18,0,0,1-8.94-3.58c-2.07,1.33-4.31,3.06-6.9,3.44a5.75,5.75,0,0,1,.45,1.47,11.67,11.67,0,0,1-.5,4.59c.59,1.36,1.49.89,2.1,1.14,3.56-3.17,3.77-3.8,5.62-3.88a50.78,50.78,0,0,1,7.18.8c-2,2.4-4.41,5.14-7.2,6a3.66,3.66,0,0,0-.2,2.47c2.38,1.74,1.29,2.73,1.24,4.08.27.4,1.06.43,1.88.43,1.93-3.27,3-3.23,4.48-4.51,1-1.26,1.33-2.81,2.37-3.66,3.53-2.89,6.67-3.85,9.51-3.44,3.41,1.5,5.41,2.27,7.85,2.37.08-.54.56-.36.31-1.63-1-.17-2-2.31-3-3.77-2.38,0-4.94.36-6.43-1.6l17.66-24.64Z"/><path class="cls-2" d="M214.26,239.7h0c-.86,0-1.92,0-2.4-.71a.61.61,0,0,1-.1-.37,5.06,5.06,0,0,1,.16-1c.2-.87.33-1.44-1.15-2.52a.66.66,0,0,1-.25-.4,4.34,4.34,0,0,1,.27-2.89.65.65,0,0,1,.36-.29c2.34-.74,4.43-3,6.18-5l-.62-.1a32.71,32.71,0,0,0-5.37-.53c-1.19.05-1.47.31-3.34,2-.5.46-1.1,1-1.85,1.68a.64.64,0,0,1-.65.11,1.59,1.59,0,0,0-.38-.05,2.11,2.11,0,0,1-2.05-1.42.65.65,0,0,1,0-.39l.12-.5a9.59,9.59,0,0,0,.38-3.85,5.23,5.23,0,0,0-.41-1.31.62.62,0,0,1,0-.56.62.62,0,0,1,.46-.32,14.63,14.63,0,0,0,5.7-2.72l1-.62a.6.6,0,0,1,.58,0l.66.29c2.73,1.19,5,2.19,6.9,2.85l-.07-.18a21.57,21.57,0,0,0-2-3.95,4.52,4.52,0,0,0-3.06.73.62.62,0,0,1-.5.06,5.6,5.6,0,0,1-2.9-1.64.62.62,0,0,1-.08-.7,14.71,14.71,0,0,1,3.73-4.72.61.61,0,0,1,.6-.09l8.23,3.17a.65.65,0,0,1,.35.34c.3.71.58,1.45.87,2.19a38.93,38.93,0,0,0,1.65,3.86l16.61-24.88a.62.62,0,0,1,.82-.2l4.73,2.58a.59.59,0,0,1,.31.41.63.63,0,0,1-.1.5l-17.37,24.24c1.1,1.08,2.79,1.05,4.57,1h1.06a.63.63,0,0,1,.51.28c.26.38.52.81.78,1.24.52.87,1.32,2.18,1.77,2.26a.62.62,0,0,1,.51.49,2,2,0,0,1-.24,1.75c-.06.08-.06.08-.06.11a.63.63,0,0,1-.65.52c-2.63-.11-4.79-1-8-2.38-2.82-.38-5.74.7-8.93,3.32a5.17,5.17,0,0,0-1.15,1.7,10,10,0,0,1-1.14,1.87l-.07.07a10.8,10.8,0,0,1-1.24.93,8.76,8.76,0,0,0-3.12,3.43A.61.61,0,0,1,214.26,239.7ZM213,238.36a3.74,3.74,0,0,0,.87.08,9.61,9.61,0,0,1,3.3-3.52,8.4,8.4,0,0,0,1.07-.79,8.56,8.56,0,0,0,1-1.61,6.28,6.28,0,0,1,1.47-2.1c3.47-2.84,6.83-4,10-3.58l.16,0c3.31,1.46,5.13,2.13,7.2,2.29a.86.86,0,0,1,.07-.1.51.51,0,0,0,.08-.42A7.23,7.23,0,0,1,236,226c-.19-.31-.37-.62-.56-.91h-.7c-2.07,0-4.42.07-5.89-1.85a.63.63,0,0,1,0-.74l17.25-24.07-3.61-2-16.85,25.24a.56.56,0,0,1-.53.28.63.63,0,0,1-.52-.29,29.32,29.32,0,0,1-2.24-4.93c-.25-.64-.5-1.29-.76-1.91L214,211.88a13.83,13.83,0,0,0-2.89,3.7,4.41,4.41,0,0,0,1.76.87,5.63,5.63,0,0,1,4-.68.61.61,0,0,1,.38.25,22.35,22.35,0,0,1,2.3,4.39c.2.46.39.93.61,1.41a.61.61,0,0,1-.09.67.63.63,0,0,1-.65.19,74.21,74.21,0,0,1-8.35-3.32l-.35-.15-.66.44a17.72,17.72,0,0,1-5.45,2.76,5.51,5.51,0,0,1,.22.89,10.85,10.85,0,0,1-.39,4.35l-.07.28c.24.45.47.46.9.49l.37,0c.63-.56,1.14-1,1.58-1.44,1.91-1.77,2.49-2.3,4.19-2.37a36.23,36.23,0,0,1,5.58.54c.54.09,1.08.18,1.7.26a.61.61,0,0,1,.5.4.65.65,0,0,1-.1.63c-1.94,2.27-4.33,5.09-7.23,6.13a3.07,3.07,0,0,0-.07,1.62c1.92,1.49,1.64,2.68,1.42,3.65A4.74,4.74,0,0,0,213,238.36Z"/><path class="cls-2" d="M189.69,94.79a29.14,29.14,0,0,1-2.95-.15.3.3,0,0,1-.27-.34.3.3,0,0,1,.34-.28c6.37.66,13.19-1.08,18.42-2.68a.31.31,0,0,1,.18.6C200.92,93.31,195.27,94.79,189.69,94.79Z"/><path class="cls-2" d="M187.56,117.13a.31.31,0,0,1,0-.62c1.33,0,3.67-1.13,15.95-14.64a.31.31,0,1,1,.46.42C191.49,116,189.16,117.13,187.56,117.13Z"/><path class="cls-2" d="M187,150.28a.32.32,0,0,1-.16,0,.31.31,0,0,1-.1-.43c.85-1.4,1.64-2.63,2.43-3.87,3.49-5.48,7.11-11.14,17.28-31.63a.33.33,0,0,1,.42-.14.31.31,0,0,1,.14.42c-10.19,20.52-13.81,26.2-17.31,31.69-.79,1.23-1.57,2.46-2.43,3.85A.31.31,0,0,1,187,150.28Z"/><path class="cls-2" d="M197.53,188.38a.2.2,0,0,1-.11,0,.31.31,0,0,1-.19-.4c3.54-9.7,6.94-23.75,10.23-37.33,1.36-5.64,2.77-11.46,4.17-16.9a.31.31,0,0,1,.38-.23.31.31,0,0,1,.22.38c-1.4,5.44-2.8,11.26-4.17,16.89-3.29,13.61-6.69,27.68-10.24,37.41A.32.32,0,0,1,197.53,188.38Z"/><path class="cls-2" d="M220,191.4H220a.3.3,0,0,1-.24-.37c1.26-6.18,3-26.36,4.92-48.27a.33.33,0,0,1,.34-.28.32.32,0,0,1,.29.34c-1.88,21.93-3.67,42.12-4.94,48.34A.32.32,0,0,1,220,191.4Z"/><path class="cls-2" d="M237.68,175.14a.31.31,0,0,1-.31-.31V149.22a.31.31,0,1,1,.62,0v25.61A.31.31,0,0,1,237.68,175.14Z"/><path class="cls-1" d="M245.28,131.35c.3,2.12.35,1.82.59,3.77-19.52-1.72-34-10.48-32.85-41-2,1.09-4,2.25-3.45-2.26-2.55-3.28-.68-3.67,2-3.55-1.45-1.92.1-6.45,2.76-2.47,3.18-2.21,6,.12,2.87,3.22,3.15,0,4.91.89,3.35,3.77l-1.48.11c.87,3-.44,3.11-2.17,2.69l-1-1c-1.73,25.13,10.13,35.06,29.4,36.7Z"/><path class="cls-2" d="M245.87,135.43h0c-23.74-2.08-34-14.67-33.16-40.78-1.1.59-2.13,1-2.84.56s-.82-1.46-.61-3.27c-1.08-1.41-1.41-2.39-1.06-3.08s1.55-.9,2.8-.89a3.92,3.92,0,0,1,0-3,1.57,1.57,0,0,1,1.25-1c.7-.06,1.43.44,2.18,1.47,1.77-1.11,3.37-.88,4.07,0,.56.69.66,1.91-.6,3.4,1.79.1,2.85.51,3.31,1.3s.3,1.67-.38,2.91a.29.29,0,0,1-.25.16l-1.1.08c.31,1.22.24,2-.2,2.48s-1.6.44-2.44.23a.28.28,0,0,1-.15-.08l-.5-.49c-1.32,22.23,8.22,33.91,29.16,35.69a.31.31,0,0,1,.28.27c.14,1,.23,1.44.3,1.85s.17.88.29,1.92a.3.3,0,0,1-.31.35ZM213,93.8a.34.34,0,0,1,.17,0,.3.3,0,0,1,.14.27c-1.23,33.15,16.47,39.2,32.18,40.65-.09-.75-.16-1.1-.23-1.49s-.15-.8-.27-1.64c-21.39-1.9-31-14-29.44-37a.32.32,0,0,1,.2-.27.31.31,0,0,1,.33.07l.93.91c.94.22,1.5.19,1.76-.08s.29-1.09,0-2.24a.32.32,0,0,1,0-.27.29.29,0,0,1,.24-.13l1.3-.1c.49-.94.59-1.67.31-2.15-.39-.65-1.55-1-3.47-1a.3.3,0,0,1-.28-.2.31.31,0,0,1,.07-.34c1.19-1.17,1.6-2.38,1-3.07s-1.94-.75-3.49.32a.28.28,0,0,1-.23,0A.3.3,0,0,1,214,86c-.88-1.31-1.47-1.46-1.77-1.44s-.63.44-.74.67a3.1,3.1,0,0,0,.26,2.88.32.32,0,0,1,0,.34.32.32,0,0,1-.29.16c-1.06,0-2.49,0-2.8.54-.15.31-.1,1,1.09,2.51a.32.32,0,0,1,.06.23c-.25,2,0,2.61.32,2.8.49.34,1.61-.27,2.6-.81l.07,0A.28.28,0,0,1,213,93.8Z"/><path class="cls-4" d="M209.75,106h-1.38"/><path class="cls-2" d="M209.75,106.26h-1.38a.31.31,0,0,1,0-.62h1.38a.31.31,0,0,1,0,.62Z"/><path class="cls-4" d="M210.55,111.44l-2.76.86"/><path class="cls-2" d="M207.79,112.61a.32.32,0,0,1-.3-.22.31.31,0,0,1,.21-.39l2.76-.86a.31.31,0,0,1,.39.21.31.31,0,0,1-.2.39l-2.76.86Z"/><path class="cls-4" d="M212.62,117.58l-3.16.86"/><path class="cls-2" d="M209.46,118.75a.32.32,0,0,1-.3-.23.31.31,0,0,1,.22-.38l3.16-.87a.32.32,0,0,1,.38.22.31.31,0,0,1-.22.39l-3.15.86Z"/><path class="cls-4" d="M214.68,123.17,212,125"/><path class="cls-2" d="M212,125.31a.3.3,0,0,1-.26-.13.33.33,0,0,1,.08-.44l2.67-1.83a.31.31,0,0,1,.35.52l-2.66,1.83A.31.31,0,0,1,212,125.31Z"/><path class="cls-4" d="M217.55,128.12l-3.06,3.66"/><path class="cls-2" d="M214.49,132.1a.32.32,0,0,1-.24-.52l3.06-3.66a.32.32,0,0,1,.44,0,.31.31,0,0,1,0,.44L214.73,132A.3.3,0,0,1,214.49,132.1Z"/><path class="cls-4" d="M222.49,133l-2.37,4.62"/><path class="cls-2" d="M220.12,137.91a.28.28,0,0,1-.15,0,.31.31,0,0,1-.13-.42l2.37-4.63a.31.31,0,0,1,.55.29l-2.36,4.63A.34.34,0,0,1,220.12,137.91Z"/><path class="cls-4" d="M229.58,136.41l-1.87,6.13"/><path class="cls-2" d="M227.71,142.86l-.09,0a.31.31,0,0,1-.21-.39l1.87-6.13a.31.31,0,1,1,.6.18L228,142.64A.32.32,0,0,1,227.71,142.86Z"/><path class="cls-4" d="M237.28,139.64l-1,5"/><path class="cls-2" d="M236.3,144.9h-.06a.32.32,0,0,1-.25-.37l1-4.95a.31.31,0,0,1,.37-.25.32.32,0,0,1,.24.37l-1,5A.3.3,0,0,1,236.3,144.9Z"/><path class="cls-2" d="M210.56,81h-.05c-1.57-.25-3.25-.46-4.88-.66-5-.62-10.22-1.27-12.91-3a.32.32,0,0,1-.09-.43.31.31,0,0,1,.44-.09c2.57,1.7,7.69,2.34,12.64,3,1.63.2,3.32.41,4.89.66a.32.32,0,0,1,.26.36A.3.3,0,0,1,210.56,81Z"/><path class="cls-2" d="M236.1,149h-.22c-2.08-.21-3.28-3.13-3.39-8.12-1.24,3.93-2.73,5.17-3.84,5.48a2.52,2.52,0,0,1-2.55-.84c-1.18-1.22-2-3.73-1.8-6.6A7,7,0,0,1,220,142a2.6,2.6,0,0,1-2.74-.94c-1-1.49-.56-4.26,1.35-7.9-2.25,1.52-4.46,1.8-5.83,1.32a2.32,2.32,0,0,1-1.65-1.84c-.24-1.36.62-3,2.44-4.85-2,.78-4.17,1.18-4.89.21-.83-1.13.54-3.44,4.2-7.06-5.81.43-7-.34-7.31-1a1.24,1.24,0,0,1,.24-1.42,12.68,12.68,0,0,1,4.7-3c-3.27-.74-4.92-1.69-5.14-3s.83-2.42,3.17-3.88c-2.41-.83-3.57-1.65-3.64-2.58-.1-1.29,1.89-2.29,4-3.35l.93-.46a.31.31,0,0,1,.42.13.31.31,0,0,1-.14.42l-.93.47c-1.75.88-3.73,1.87-3.66,2.74,0,.48.74,1.26,3.85,2.24a.31.31,0,0,1,.22.27.32.32,0,0,1-.15.3c-3.06,1.81-3.57,3-3.46,3.59s1.29,1.85,6,2.72h0a.32.32,0,0,1,.24.37.31.31,0,0,1-.36.25h0c-.63-.07-4.47,1.65-5.56,3.14-.22.3-.28.55-.19.72.2.36,1.34,1.13,7.58.59a.31.31,0,0,1,.24.53c-5.31,5.13-5,6.53-4.75,6.84.57.77,3.46.15,6.06-1.31a.32.32,0,0,1,.41.1.31.31,0,0,1-.06.42c-3.83,3.07-4,5-3.85,5.71a1.75,1.75,0,0,0,1.25,1.35c1.43.51,4,0,6.44-2.16a.33.33,0,0,1,.41,0,.32.32,0,0,1,.07.4c-3.35,5.71-2.61,7.9-2.14,8.58a2,2,0,0,0,2.12.69,6.94,6.94,0,0,0,4.81-4.76c0-.19.1-.37.16-.56a.33.33,0,0,1,.39-.21.31.31,0,0,1,.21.38c-.05.2-.1.38-.16.57-.93,3.51-.08,6.8,1.27,8.2a2,2,0,0,0,1.93.67c1.6-.45,3.08-3.16,4.05-7.43a.31.31,0,0,1,.35-.24.31.31,0,0,1,.27.32c-.26,6,.78,9.77,2.79,10s4.52-3,5.27-8a.31.31,0,0,1,.36-.26.32.32,0,0,1,.26.36C241.11,145.15,238.52,149,236.1,149Z"/><path class="cls-2" d="M238.54,91.43c-2.4,0-4.86-1.22-7.36-5a1.29,1.29,0,0,1-.09-.16c-1.38-2.93.12-3.95.61-4.19a3.35,3.35,0,0,1,4.12,1.74l.06.14a3.84,3.84,0,0,0,2.18,2.62c2.66.9,7.74-2.15,13.17-5.62a3,3,0,0,1,3.74.18,4.06,4.06,0,0,1,.89,4.27,1.79,1.79,0,0,1-1.8,1.11c-3.22-.12-6,1.26-8.68,2.6C243.14,90.29,240.86,91.43,238.54,91.43Zm-5.23-6.26q.49.72,1,1.29a10.44,10.44,0,0,1-.71-1.5,1.23,1.23,0,0,0-.49-.45A4,4,0,0,0,233.31,85.17ZM253.08,83a1.35,1.35,0,0,0-.57.2c-.69.45-1.37.88-2,1.29a14.6,14.6,0,0,1,3.15-.38,1.58,1.58,0,0,0-.37-1A.24.24,0,0,0,253.08,83Z"/><path class="cls-3" d="M254.15,85.32c1.39.17.89-5-2.24-3.26-8.87,5.68-14.82,8.87-17.21,2.38-.88-1.73-4.1-2.1-2.48,1.34,6.93,10.31,12.49-.84,21.93-.46Z"/><path class="cls-1" d="M259.9,75.71,258.33,93c-9.08-2.35-14.33-2.31-16.29-.19,1-2.36,2-6.65,13-4.42-2.65-4.6-15.36-7.27-16.26-1.36q-7.1-10.53,6.92-12.62l14.18,1.28Z"/><path class="cls-2" d="M258.33,93.64a.41.41,0,0,1-.16,0c-10.68-2.76-14.41-1.72-15.67-.36a.62.62,0,0,1-.79.1.61.61,0,0,1-.24-.76l.16-.42c.92-2.33,2.43-6.15,11.86-4.68a14.73,14.73,0,0,0-10.89-3.08c-1.89.36-3,1.27-3.19,2.72a.63.63,0,0,1-.48.52.62.62,0,0,1-.65-.26c-2.35-3.49-3-6.41-2-8.67,1.11-2.53,4.19-4.15,9.39-4.92h.15L260,75.09a.62.62,0,0,1,.57.68L259,93.07a.64.64,0,0,1-.26.46A.69.69,0,0,1,258.33,93.64Zm-10.92-3a44.5,44.5,0,0,1,10.36,1.6l1.45-16-13.48-1.23c-4.63.71-7.45,2.11-8.36,4.18-.71,1.62-.3,3.76,1.24,6.37a5.08,5.08,0,0,1,3.75-2.41c4.65-.87,11.33,1.61,13.23,4.91a.64.64,0,0,1,0,.68.63.63,0,0,1-.63.25c-8-1.62-10.39.18-11.51,2.19A11.48,11.48,0,0,1,247.41,90.63Z"/><path class="cls-4" d="M254.7,76.13l3.15-.44.72,3.12-3.1.7-.77-3.38Z"/><path class="cls-5" d="M255.47,80a.49.49,0,0,1-.47-.38l-.76-3.32a.19.19,0,0,1,0-.07.49.49,0,0,1,.36-.57h.07l3.13-.45a.49.49,0,0,1,.54.38l.73,3.12a.48.48,0,0,1-.06.37.5.5,0,0,1-.31.22l-3.1.7Zm-.18-3.46.55,2.39,2.15-.49-.52-2.21Z"/><path class="cls-1" d="M262.43,70.12c-.12-.6-5.23-1-12.73.57-2.63.52-4.3,1.14-3.83,4,12.4,10.18,13.42,15,8.79,17.25,1.74,2.27,2.89,3.57,2.73,4.44-.29,1.47-3.16,3.34-9,9.12,3.5.5,9.61-5,1.07,4.6-5.88,5-1,2.42,1.2,1.82a30.67,30.67,0,0,1-4.75,9.31l3.17.24c-8.93,3.11-2,2.08-2.49,2.76-5.58,2-.9,23.94,2,54.56.34,3.53-1.51,5.22-2.26,7a45.87,45.87,0,0,1-7.7,8.83l1.48.86L238,197.86c3.34,2.48,8.55,1.09,9.57,8.4.17-6,1.2-2.53,2.37-1.18.18-8.67,3.5-11.79,6.21-15.5.21,4.41,3.21,13.37-3.75,19.69-3.91,3.56-9.47,1.72-13.91,11.3,3.06-.86,2.64-2.78,11.64-1.83l5.72-3.66c-1.18,4.55,1.37,8.62-13.61,16.15-10.59,2.64-18,7.58-21.51,15.39,5.79-3.14,11.9-5.14,19.74-6.78,8.27-5,10.11-8.2,14.3-12.81-1.19,3.5-1.84,6.53-4.24,11.09-5,5.49-12,8.25-10.06,23.78,6.34-11.1,11.08-9.5,17.85-35.73,3,14.81,2.85,28.88-4.93,39.61l4.73-1.29L262.5,279V70.11Z"/><path class="cls-2" d="M262.5,279.58a.63.63,0,0,1-.6-.45l-4.22-13.88-4.15,1.13a.63.63,0,0,1-.67-1c6.37-8.78,8.13-20.72,5.34-36.43-4.47,16.39-8.1,20.92-11.94,25.72a53.17,53.17,0,0,0-5.27,7.51.64.64,0,0,1-.67.31.65.65,0,0,1-.5-.54c-1.61-13.1,3-17.41,7.47-21.58.91-.84,1.84-1.72,2.7-2.65a44.47,44.47,0,0,0,3.25-8.05l-.18.2a43.41,43.41,0,0,1-12.29,10.47.5.5,0,0,1-.2.08c-8.19,1.72-14,3.73-19.56,6.72a.62.62,0,0,1-.72-.09.63.63,0,0,1-.15-.72c3.43-7.65,10.78-12.94,21.86-15.72,12-6,12.4-9.7,12.82-13.24,0-.33.08-.67.13-1l-4.5,2.88a.65.65,0,0,1-.4.1c-6.38-.68-7.81.09-9.31.9a10.22,10.22,0,0,1-2.1.91.63.63,0,0,1-.74-.87c3-6.58,6.66-8,9.84-9.22a12.79,12.79,0,0,0,4.22-2.28c5.44-4.94,4.53-11.5,3.87-16.3-.06-.45-.12-.87-.17-1.27l-.08.1c-2.4,3.14-4.88,6.38-5,13.75a.62.62,0,0,1-.41.57.62.62,0,0,1-.69-.18,9.62,9.62,0,0,1-.81-1.17l-.28-.44a19.66,19.66,0,0,0-.18,2.41.61.61,0,0,1-.59.6.6.6,0,0,1-.65-.53c-.65-4.68-3-5.45-5.71-6.34a12.21,12.21,0,0,1-3.61-1.64.64.64,0,0,1-.25-.44.61.61,0,0,1,.15-.48l1.57-1.79-.82-.48a.65.65,0,0,1-.31-.49.62.62,0,0,1,.21-.53,45,45,0,0,0,7.56-8.66,13,13,0,0,1,.76-1.41,7.87,7.87,0,0,0,1.43-5.22c-.75-8.05-1.64-15.54-2.42-22.16-2.07-17.53-3.41-28.85-.4-32.2-.65-.08-1.19-.24-1.26-.82s.19-.93,2.32-1.8l-.32,0a.62.62,0,0,1-.52-.37.6.6,0,0,1,.07-.63,28.76,28.76,0,0,0,4.24-7.94l-.39.14c-1.74.64-2.71,1-3.12.29s0-1.28,2.92-3.72c.74-.84,2.79-3.16,3.69-4.41l-.38.14a9.41,9.41,0,0,1-4.07.77.63.63,0,0,1-.35-1.07c2.23-2.19,4-3.8,5.42-5.09,2-1.86,3.3-3,3.43-3.7.09-.46-.81-1.62-1.85-3l-.75-1a.6.6,0,0,1-.11-.53.61.61,0,0,1,.33-.42,3.25,3.25,0,0,0,2.16-2.46c.34-2.8-3.38-7.42-11.08-13.74a.7.7,0,0,1-.22-.38c-.61-3.74,2.24-4.32,4.32-4.74,6.44-1.3,12-1.35,13.1-.59l.16.12.06.05a.66.66,0,0,1,.23.46V279a.62.62,0,0,1-.53.62Zm-4.4-15.72a.62.62,0,0,1,.6.44l3.17,10.44V70.47c-.9-.32-5.41-.51-12.05.83-2.71.55-3.63,1.08-3.37,3.08,8.14,6.71,11.75,11.39,11.34,14.7a4.14,4.14,0,0,1-2.18,3.08l.3.39c1.47,1.9,2.28,3,2.09,4s-1.35,2.14-3.82,4.39c-1.15,1-2.51,2.28-4.16,3.87.66-.16,1.34-.39,1.91-.59,1.16-.41,1.92-.68,2.33-.08s.33,1.13-4.36,6.42c-.86.73-1.44,1.26-1.83,1.64l.73-.27c.58-.21,1.18-.43,1.66-.56a.6.6,0,0,1,.62.17.63.63,0,0,1,.14.63,32.13,32.13,0,0,1-4.17,8.57l2,.15a.63.63,0,0,1,.16,1.22c-1.67.58-2.69,1-3.31,1.26.59.07,1,.15,1.21.55a.83.83,0,0,1-.08.72.69.69,0,0,1-.3.23c-3.64,1.27-2.13,14,0,31.73.78,6.62,1.67,14.12,2.43,22.19a9.06,9.06,0,0,1-1.61,6,11.61,11.61,0,0,0-.71,1.33l-.06.11a47.32,47.32,0,0,1-7.15,8.36l.73.43a.62.62,0,0,1,.31.44.64.64,0,0,1-.15.51l-1.6,1.83a14,14,0,0,0,2.69,1.08c2.08.69,4.37,1.44,5.67,4.19a1,1,0,0,1,.69-.75c.58-.16,1,.29,1.42.91.51-6.46,2.89-9.57,5.2-12.59.35-.45.7-.91,1-1.37a.62.62,0,0,1,1.12.34c0,.78.17,1.71.32,2.79.66,4.78,1.65,12-4.27,17.4a13.83,13.83,0,0,1-4.6,2.51c-2.85,1.11-5.78,2.25-8.43,7.12.13-.06.25-.13.37-.2,1.59-.86,3.23-1.75,9.82-1.07l5.54-3.54a.62.62,0,0,1,.7,0,.62.62,0,0,1,.24.66,16,16,0,0,0-.38,2.3c-.45,3.88-.92,7.89-13.56,14.25l-.13,0c-9.87,2.47-16.67,6.95-20.23,13.34a72.52,72.52,0,0,1,18.07-5.92,42.16,42.16,0,0,0,11.9-10.16c.68-.79,1.39-1.61,2.18-2.48a.62.62,0,0,1,1.05.62c-.28.83-.53,1.62-.78,2.42a46.85,46.85,0,0,1-3.5,8.76.38.38,0,0,1-.09.13c-.91,1-1.88,1.9-2.83,2.78-4.2,3.92-8.18,7.63-7.27,18.65a60.8,60.8,0,0,1,4.42-6.06c4-4.93,7.68-9.59,12.41-27.9a.59.59,0,0,1,.62-.46.6.6,0,0,1,.59.5c3.39,16.56,2.06,29.24-4.06,38.68l3.09-.85Zm3.71-193.62a.59.59,0,0,0,.06.16h0A1,1,0,0,1,261.81,70.24Z"/><path class="cls-2" d="M252.84,72.79c-.14.09-.4-.11-.57-.44a15.69,15.69,0,0,0,.57,2.58,5.74,5.74,0,0,0,.94,1.19,17.63,17.63,0,0,0,.12,1.77,3.19,3.19,0,0,0,1.48,2c1.06.84,2.08.48,3.82-.22.1,0,.42.39.48.4s.51.26.5-.08a1.41,1.41,0,0,1-.05-.56,3.31,3.31,0,0,0-.06-1.14c-.12-.69.08-.27-.27-.66a15.46,15.46,0,0,0-1.89-2,8.52,8.52,0,0,0-4.14-1.05c-.13,0-.19-.33-.32-.36-.43-.09-.45-1.07-.61-1.45Zm2.26,3.35a6,6,0,0,1,1.87.38,2.23,2.23,0,0,1,.4.16s0,.1,0,.14a.6.6,0,0,1-.61.2c-.16,0,0-.51,0-.58-.2-.29-.9-.56-1-.18-.44,1.68.56,2.22,1.32,1.95.27-.1.84-.62,1.07-.55.39.14.27.64.29.64-1.15.72-1.4,1-2.24.52-.58-.31-1.13-.35-1-2.68Z"/><path class="cls-6" d="M307.75,166.93a130.5,130.5,0,0,0-45.25,8V289.43C262.5,269,353,246.5,353,184V175A130.54,130.54,0,0,0,307.75,166.93Z"/><rect class="cls-1" x="300.25" y="69.61" width="15" height="97.32"/><rect class="cls-1" x="271.79" y="120.62" width="71.92" height="15"/><rect class="cls-1" x="282.94" y="90.21" width="49.62" height="15"/><path class="cls-1" d="M262.5,174V176l.32-.12a130.48,130.48,0,0,1,89.86,0l.32.12V174a132.28,132.28,0,0,0-90.5,0Z"/><rect class="cls-1" x="261.5" y="61.49" width="2" height="227.94"/></g></svg>