<?xml version="1.0" encoding="utf-8"?>
<!-- Generator: Adobe Illustrator 25.0.1, SVG Export Plug-In . SVG Version: 6.00 Build 0)  -->
<svg version="1.1" id="Layer_1" xmlns="http://www.w3.org/2000/svg" xmlns:xlink="http://www.w3.org/1999/xlink" x="0px" y="0px"
	 viewBox="0 0 525 350" style="enable-background:new 0 0 525 350;" xml:space="preserve">
<style type="text/css">
	.st0{fill:#FFFFFF;}
	.st1{fill:#BF2126;}
	.st2{fill:#1E4485;}
	.st3{fill:#231F20;}
</style>
<g id="Occitania">
	<rect class="st0" width="525" height="350"/>
	<rect class="st1" width="175" height="350"/>
	<rect x="350" class="st2" width="175" height="350"/>
	<g>
		<path class="st3" d="M202.869,175.996l2.55,1.995c4.089,3.198,10.758,10.034,12.579,21.6l0.481,3.053l2.336-2.043
			c3.923-3.431,15.579-12.416,32.626-14.872c-2.457,17.046-11.442,28.703-14.872,32.625l-2.043,2.336l3.053,0.481
			c11.566,1.82,18.402,8.49,21.6,12.579l1.994,2.55l1.995-2.55c3.198-4.089,10.034-10.758,21.6-12.579l3.053-0.481l-2.043-2.336
			c-3.43-3.923-12.416-15.579-14.872-32.625c17.046,2.456,28.703,11.442,32.625,14.872l2.336,2.043l0.481-3.053
			c1.82-11.566,8.49-18.402,12.579-21.6l2.55-1.995l-2.55-1.995c-4.088-3.198-10.758-10.034-12.579-21.6l-0.481-3.053l-2.336,2.043
			c-3.923,3.431-15.579,12.416-32.625,14.873c2.457-17.046,11.442-28.703,14.872-32.625l2.043-2.337l-3.053-0.481
			c-11.566-1.821-18.402-8.49-21.6-12.579l-1.995-2.55l-1.994,2.55c-3.198,4.089-10.034,10.758-21.6,12.579l-3.053,0.481
			l2.043,2.337c3.43,3.922,12.416,15.579,14.872,32.625c-17.046-2.456-28.703-11.442-32.626-14.873l-2.336-2.043l-0.481,3.053
			c-1.82,11.566-8.49,18.402-12.579,21.6L202.869,175.996z"/>
		<circle class="st3" cx="200.795" cy="175.996" r="5.03"/>
		<circle class="st3" cx="217.785" cy="147.375" r="5.03"/>
		<circle class="st3" cx="217.785" cy="204.617" r="5.03"/>
		<circle class="st3" cx="234.551" cy="130.609" r="5.03"/>
		<circle class="st3" cx="234.551" cy="221.383" r="5.03"/>
		<circle class="st3" cx="263.171" cy="113.62" r="5.03"/>
		<circle class="st3" cx="263.171" cy="238.372" r="5.03"/>
		<circle class="st3" cx="291.792" cy="130.609" r="5.03"/>
		<circle class="st3" cx="291.792" cy="221.383" r="5.03"/>
		<circle class="st3" cx="308.558" cy="147.375" r="5.03"/>
		<circle class="st3" cx="308.558" cy="204.617" r="5.03"/>
		<circle class="st3" cx="325.548" cy="175.996" r="5.03"/>
	</g>
</g>
</svg>
