<?xml version="1.0" encoding="utf-8"?>
<!-- Generator: Adobe Illustrator 25.0.1, SVG Export Plug-In . SVG Version: 6.00 Build 0)  -->
<svg version="1.1" id="Layer_1" xmlns="http://www.w3.org/2000/svg" xmlns:xlink="http://www.w3.org/1999/xlink" x="0px" y="0px"
	 viewBox="0 0 525 350" style="enable-background:new 0 0 525 350;" xml:space="preserve">
<style type="text/css">
	.st0{fill:#E21F26;}
	.st1{fill-rule:evenodd;clip-rule:evenodd;fill:#FED401;}
</style>
<g id="Rusland_1_">
	<g id="Rusland">
		<rect x="0" y="0" class="st0" width="525" height="350"/>
	</g>
	<g>
		<path class="st1" d="M292.885,37.337c-3.529-2.229-6.532-4.635-10.247-4.449c0.557,1.486,0.557,3.223,0.557,4.895
			C285.786,37.073,289.405,37.266,292.885,37.337z"/>
		<path class="st1" d="M283.286,38.857c-0.494,4.26,3.354,7.51,3.931,8.545c4.816-0.377,10.291,0.378,15.861,1.295
			c-2.018-2.959-4.246-5.272-7.319-7.41c-2.216-1.541-4.313-2.385-7.081-2.357C287.106,38.946,285.319,38.781,283.286,38.857z"/>
		<path class="st1" d="M288.698,49.043c1.637,2.048,3.283,4.378,4.248,7.161c10.299-1.13,15.229,4.937,17.427,6.107
			c-0.563-6.228-3.729-10-7.982-11.63C298.15,49.055,292.941,49.031,288.698,49.043z"/>
		<path class="st1" d="M307.326,62.145c-3.284-2.7-8.065-4.242-13.688-4.234c1.256,2.18,2.163,4.448,2.561,6.842
			c7.744,0.515,12.004,5.864,15.645,8.635c0.113-1.216,0.125-2.977-0.035-4.313C311.418,65.818,309.812,64.189,307.326,62.145z"/>
		<path class="st1" d="M311.915,78.419c-0.03-2.139-0.854-3.3-2.234-4.857c-3.553-4.008-10.429-7.193-12.945-7.109
			c0.481,2.339,1.008,4.551,1.133,7.835c4.558,0.051,11.342,6.326,13.382,8.314C311.707,81.357,311.934,79.743,311.915,78.419z"/>
		<path class="st1" d="M311.035,88.296c-0.202-2.151-0.828-3.985-2.17-5.482c-2.954-3.297-7.887-5.871-10.688-6.776
			c-0.193,1.368-0.106,5.175-0.493,7.181c7.575,4.237,9.413,8.18,11.639,12.299C310.655,92.898,311.234,90.418,311.035,88.296z"/>
		<path class="st1" d="M297.838,85.21c-0.343,3.131-1.544,6.156-2,7.461c4.475,4.56,8.417,8.065,9.277,15.183
			C313.066,95.347,302.839,89.039,297.838,85.21z"/>
		<path class="st1" d="M302.758,104.824c-1.798-4.17-4.974-8.557-7.354-9.846c-0.478,1.811-2.063,5.97-2.934,7.251
			c3.407,3.715,5.853,9.969,6.367,15.17C303.492,114.945,304.797,109.556,302.758,104.824z"/>
		<path class="st1" d="M295.713,111.412c-0.893-2.839-2.43-5.432-4.083-7.708c-1.034,2.157-2.626,5.31-4.042,7.046
			c4.118,5.083,5.291,12.759,5.119,16.496C298.419,121.408,297.321,116.527,295.713,111.412z"/>
		<path class="st1" d="M286.897,112.608c-0.142,0.74-3.686,6.089-4.158,6.451c3.538,7.001,3.603,13.554,2.358,18.699
			C293.531,133.349,293.066,125.658,286.897,112.608z"/>
		<path class="st1" d="M281.509,120.962c-1.115,2.229-2.601,4.413-4.087,5.899c2.146,5.782,2.031,10.742,1.685,16.399
			C283.938,141.125,286.525,127.033,281.509,120.962z"/>
		<path class="st1" d="M264.652,36.157c1.541-0.07,3.184,0.065,4.842,0.229c0.186-1.486,0.633-2.546,1.19-3.66
			c-0.159-1.929-2.098-5.764-6.276-6.255C265.254,28.649,265.639,33.865,264.652,36.157z"/>
		<path class="st1" d="M220.684,77.073c5.015-1.799,10.569-4.995,14.453-7.44l-2.505-2.907c-4.057,1.79-11.157,6.843-15.923,8.031
			c-3.352,0.836-6.81,0.922-9.281-0.596C210.236,79.434,215.707,78.859,220.684,77.073z"/>
		<path class="st1" d="M177.427,131.18c-4.784,2.874-9.447,5.772-13.826,6.311c-0.011,4.975,0.527,9.656,2.935,13.899
			c0.418,0.737,1.519,0.817,2.183,0.139c4.57-4.664,7.154-7.414,8.526-9.736C179.675,137.678,178.365,135.295,177.427,131.18z"/>
		<path class="st1" d="M176.752,129.821c-1.937-5.436-1.922-7.167-0.44-9.501c1.113-1.753,2.79-1.344,4.113,0.685
			c0.446,0.683,2.276,1.053,2.303-0.35c0.035-1.841,2.167-6.065,4.457-7.966c1.416-1.176,9.67-5.817,11.6-6.212
			c1.114,9.474,6.072,22.626,10.159,30.986c-0.668-13.491,2.179-21.734,7.928-30.738c-5.306-3.709-8.388-6.702-11.704-10.066
			c-0.696-0.706-0.82-1.217-1.55-1.705c-0.568-0.38-1.617-0.803-2.858-0.93c-2.385-0.243-4.664,1.553-6.479,2.933
			c-5.79,4.402-11.055,8.574-16.373,13.478c-3.648,3.363-8.762,7.506-11.968,11.612c-0.788,1.01-0.636,2.12-1.31,3.05
			c-1.051,1.45-2.57,2.689-3.093,3.961c-1.102,2.681,0.683,4.612,2.142,7.083C166.863,135.509,173.893,131.402,176.752,129.821z"/>
		<path class="st1" d="M199.161,193.976c3.347,1.488,9.468,3.36,13.989,3.795c0.057-3.74-2.12-9.242-3.907-12.587
			c-0.957-1.791-1.332-1.969-2.967-2.506c-1.193-0.391-3.478-0.9-5.071-0.778C201.976,183.662,201.67,193.655,199.161,193.976z"/>
		<path class="st1" d="M176.355,287.568c3.904-0.279,13.761,0.826,19.608-2.838c2.271-1.423,3.932-5.708,4.259-8.19
			c-6.432-0.031-12.987-0.903-17.906-2.371C180.49,277.811,177.939,283.193,176.355,287.568z"/>
		<path class="st1" d="M256.484,212.665c0.94-0.782,2.055-2.369,2.83-3.4c0.417-0.555,0.83-1.397-0.025-1.947
			c-0.705-0.453-1.94-0.888-3.145-1.677c-3.475-2.274-6.021-3.174-10.293-3.085c-4.55,0.095-12.572-0.417-18.455,0.255
			c-3.445,0.393-7.275,2.431-9.075,5.506c-2.995,5.117-3.783,8.368-3.074,12.355c0.328,1.852,2.137,3.492,3.486,4.953
			c0.767,0.831,1.295,1.812,1.506,2.894c0.188,0.964,0.3,2.083,0.813,3.117c1.333,2.686,2.385,5.427,3.687,8.089
			c2.946,6.023,6.173,12.781,10.288,20.014c-8.144,0-19.832-0.235-30.257-0.329c-0.883-0.008-1.807-0.211-2.669-0.214
			c-3.402-0.01-4.919-0.131-8.303,2.21c-1.582,1.094-3.26,2.178-4.556,2.75c-5.25,2.32-6.149,2.995-6.852,8.206
			c5.945,1.858,12.477,2.409,19.165,2.409c3.271-5.011,8.652-2.647,9.549,1.794c18.715-7.662,31.89-8.992,44.813-11.066
			c5.176-0.831,6.072-5.325,2.807-9.719c-0.977-1.314-2.395-2.134-3.954-2.553c0.186-1.434-0.386-3.116-0.985-4.572
			c-1.088-2.646-1.511-5.433-1.427-7.793c0.081-2.301,0.628-5.124,2.424-6.677c3.168-2.741,8.369-5.913,12.403-9.806
			c0.11-1.649,0.347-3.234,0.712-4.756C265.482,215.907,261.129,214.895,256.484,212.665z"/>
		<path class="st1" d="M285.731,313.983c-2.786,4.459-3.344,9.289-5.388,13.561c-0.003,0.244,20.735-2.216,23.036-5.387
			l-0.177-7.386C297.386,315.89,291.168,315.692,285.731,313.983z"/>
		<path class="st1" d="M360.928,181.136c0.49-7.911-1.636-17.492-6.336-23.267c-4.954-6.087-14.598-12.373-21.708-15.812
			c4.454,0,10.76,4.239,15.385,7.894c2.549,2.015,5.667,2.773,9.105-0.275c-2.792-0.056-6.369-0.896-8.328-3.23
			c-2.904-3.459-6.085-5.733-9.629-8.525c-8.813-6.942-24.973-5.993-32.659,4.17c-5.421,7.169-0.272,18.658,3.482,25.488
			c1.755,3.192,5.908,7.493,7.207,13.043c0.828,3.535-0.212,8.794-2.166,10.749c-5.497,5.497-11.237-1.957-14.344-6.087
			c-1.886-2.507-3.921-5.112-6.057-7.718c-5.79-7.062-10.37-13.845-14.669-22.01c-1.666-3.164-3.037-6.247-3.774-7.25
			c-0.912,0.456-1.405,2.681-1.539,4.526c-0.199,2.734,0.556,3.825,1.933,5.996c2.499,3.943,5.328,8.14,6.917,10.783
			c1.867,3.107,4.316,6.377,6.188,9.395c0.347,0.559,0.886,0.897,1.167,1.454c0.55,1.088-0.69,2.14-1.818,0.628
			c-3.051-4.09-10.65-15.78-16.031-24.229c-0.777-1.219-0.89-1.71-0.699-3.019c0.547-3.748,3.187-6.964,4.113-12.525
			c0.794-4.77,0.353-12.04-2.532-14.512c4.78-4.826,12.54-18.288,15.684-25.307c4.382-9.784,6.593-21.799,4.623-32.832
			c-1.702-9.529-6.748-18.326-13.276-24.342c-0.085-4.794,1.852-13.924-5.56-21.884c-0.204,2.588-0.884,6.158-2.451,8.675
			c-1.852,2.974-3.444,8.3-1.302,11.278c0.648,0.901-0.156,1.352-0.642,0.906c-0.602-0.552-2.341-1.846-2.497-5.445
			c-5.786-0.571-12.436,1.221-18.125,4.485c-2.114,1.213-3.927,2.639-5.238,4.753c-0.748,1.207-3.632,2.25-4.899,2.739
			c-5.045,1.945-10.249,2.639-15.191,4.924c-2.004,0.926-4.219,2.419-4.717,4.718c-0.294,1.353-0.958,2.909-1.503,3.428
			c-0.683,0.651-0.981,2.016-0.793,2.94c0.276,1.354,0.544,0.777,0.418,2.711c-0.041,0.628,0.86,0.738,1.509,0.595
			c3.803-0.842,7.809-2.655,11.014-3.891c1.408-0.543,1.656-0.592,2.144,0.2c0.887,1.44,3.361,3.644,4.126,4.63
			c0.413,0.532,0.136,0.972-0.493,1.2c-1.551,0.564-8.525,3.975-10.453,4.885c-1.138,0.537-1.427,0.792-0.559,1.283
			c1.827,1.032,2.982,2.355,3.743,3.189c0.597,0.653,1.264,1.626,1.916-0.007c1-2.506,6.265-4.578,9.138-5.292
			c3.047-0.756,7.526-2.295,11.231-1.82c2.905,0.372,4.176,1.996,6.231,3.783c1.263,1.098,2.958,1.474,4.602,1.031
			c3.675-0.992,6.394-2.566,8.41-3.784c4.415-2.668,5.559-5.551,6.895-8.774c0.663-1.6,1.021-3.055,1.234-4.746
			c0.287-2.277,1.431-1.856,1.154-0.488c-0.228,1.133-0.377,3.563-1.189,6.343c-1.676,5.738-6.701,10.131-13.092,12.508
			c-6.098,2.268-13.147,4.147-18.705,6.585c-12.134,5.321-21.739,10.494-29.723,22.352c-7.16,10.635-7.82,19.323-7.456,31.564
			c1.122-0.58,3.033-1.206,4.245-1.505c-0.164-2.752-0.021-11.841,1.069-12.069c0.449-0.093,1.145,0.295,1.043,0.831
			c-0.057,0.299-0.82,9.049-0.43,10.718c3.906-1.653,9.26-2.663,14.082-2.502c2.906,0.097,2.658,1.502,0.575,1.494
			c-3.302-0.014-9.29,0.423-15.043,3.093c-3.403,1.579-7.236,1.764-11.022,2.384c-3.283,0.538-6.63,0.695-9.994,0.25
			c-2.626-0.347-2.801-0.613-5.32,0.347c-2.566,0.977-5.082,3.364-5.626,5.661c-0.28,1.184,0.062,2.688,0.711,4.158
			c1.151,2.607,2.109,4.976,2.696,7.551c0.635,2.789,1.749,6.527,1.816,9.202c0.095,3.774-0.458,7.248,0.385,10.534
			c0.603,2.354,2.099,4.861,3.372,6.812c0.71,1.087,1.238,1.464,1.784,2.747c0.444,1.043,1.467,1.858,2.273,2.887
			c0.588,0.749,1.129,0.727,1.713-0.088c1.006-1.401,1.25-6.635,0.969-9.582c-0.106-1.123-0.358-2.145-0.767-3.149
			c-0.874-2.147-2.305-4.098-3.423-6.126c2.386,1.155,2.512,1.369,4.898,1.131c-0.257-1.261-0.542-2.306-1.514-3.29
			c-1.123-1.137-2.366-2.603-2.975-3.773c-0.541-1.042-1.244-2.673-1.396-3.763c-0.498-3.56-0.413-8.326-0.413-10.361
			c3.071,0.404,8.249,1.609,13.432,2.189c5.092,0.57,9.946,1.692,12.485,3.167c1.665,0.968,3.712,2.713,5.845,3.842
			c2.172,1.15,5.112,1.462,7.499,0.731c2.96-0.906,5.759-2.607,8.254-4.059c2.253-1.311,2.508-0.785,2.811-0.533
			c0.25,0.208,0.715,0.278-0.377,0.967c-2.015,1.271-6.707,3.827-9.88,5.305c-4.833,2.251-8.667,0.01-12.749-2.785
			c-2.522-1.728-5.445-2.847-5.674-2.561c3.559,8.438,9.165,15.729,15.69,22.29c5.55,5.579,11.409,11.074,17.551,15.989
			c3.721,2.978,7.673,5.341,11.167,7.856c1.065,0.767,2.006,1.37,1.421,2.888c-0.397,1.029-1.436,2.154-2.393,2.859
			c1.732,1.91,5.056,1.01,8.966,6.354c2.833-14.421-4.42-20.172-6.081-23.351c0.9-0.027,10.301,5.502,8.499,21.088
			c-0.646,5.586-2.115,11.915,0.366,17.13c1.874,3.937,5.769,8.55,9.841,11.603c4.898,3.673,10.618,7.189,16.101,9.895
			c1.469,0.724,1.629,0.962,1.833,2.045c0.381,2.02,0.921,3.184,2.36,4.328c2.532,2.013,2.056,9.15,0.336,14.258
			c-2.032,6.036-5.168,12.787-7.617,18.574c-2.829,6.689-6.897,12.372-6.897,17.292c0,1.768,0.082,1.736,1.684,2.159
			c4.091,1.082,12.217,0.964,14.701,0.068c-1.223-2.434-1.807-4.197-1.93-5.486c-0.275-2.874,1.705-3.669,3.892-2.82
			c2.843,1.104,5.549,1.396,5.163-4.41c-0.582-8.739,1.456-22.383,4.819-30.848c0.692-1.741,2.102-4.358,3.147-7.312
			c1.815-5.128,0.754-9.479-3.24-14.411c-3.957-4.886-10.213-8.722-10.213-16.929c0-3.169,1.914-5.604,3.018-8.476
			c3.785-9.845,3.453-15.122,3.082-24.092c14.959-0.221,14.074-10.327,15.065-21.105c0.386-4.197-0.466-12.456,3.066-16.145
			c1.664-1.738,4.584-3.451,8.317-1.611c5.009,2.469,7.674,11.803,6.539,18.729c-0.987,6.024-3.918,11.294-5.493,14.206
			c-3.829,7.079-5.44,11.841-4.842,20.04c1.436-3.666,3.114-7.346,5.187-10.915c1.7-2.927,3.164-6.02,4.966-8.936
			c0.882-1.428,1.142-0.608,0.488,0.83c-1.998,4.4-5.78,11.361-7.436,15.952c-1.309,3.629-2.111,10.525,3.196,16.302
			c0-2.373,0.268-6.546,1.297-10.15c1.456-5.1,3.943-10,5.066-12.495c1.347-2.993,1.068,0.043,0.643,1.189
			c-2.918,7.836-10.582,23.702,2.626,28.541c-2.46-4.933-0.925-12.062,1.09-17.445c1.25-3.341,4.064-9.554,5.238-12.595
			c1.589-4.118,2.042-6.276,1.518-10.4c-0.304-2.403-0.739-7.11-0.244-10.214c0.518-3.249,0.624-2.127,0.802-0.246
			c0.646,6.866-0.014,12.333,5.756,12.235C360.374,190.086,360.653,185.585,360.928,181.136z M265.614,48.748
			c-1.145,0.568-2.168,1.589-3.003,2.635c-1.987,2.494-4.385,4.788-7.649,5.466c-2.097,0.436-4.027-0.125-4.027-2.77
			c-4.458,0.422-11.585,3.486-14.132,3.462c4.913-2.657,9.313-3.967,13.651-5.91c0.3-2.298,1.551-3.664,3.344-4.623
			c1.842-0.985,4.306-0.684,6.867,0.056c2.264,0.654,4.83,0.321,7.888,0.387C267.757,47.71,266.688,48.215,265.614,48.748z"/>
		<path class="st1" d="M258.277,48.366l0.338,3.437l-5.206-1.904c-0.272,1.714-0.055,3.699,1.042,4.346
			c1.762,1.039,7.884-3.5,7.884-5.186C262.354,49.045,260.663,49.409,258.277,48.366z"/>
	</g>
	<rect class="st1" width="106.061" height="350"/>
	<rect x="418.939" class="st1" width="106.061" height="350"/>
</g>
</svg>
