<?xml version="1.0" encoding="utf-8"?>
<!-- Generator: Adobe Illustrator 25.0.1, SVG Export Plug-In . SVG Version: 6.00 Build 0)  -->
<svg version="1.1" id="Layer_1" xmlns="http://www.w3.org/2000/svg" xmlns:xlink="http://www.w3.org/1999/xlink" x="0px" y="0px"
	 viewBox="0 0 525 350" style="enable-background:new 0 0 525 350;" xml:space="preserve">
<style type="text/css">
	.st0{fill-rule:evenodd;clip-rule:evenodd;fill:#C7373D;}
	.st1{clip-path:url(#SVGID_1_);fill-rule:evenodd;clip-rule:evenodd;fill:#184276;}
	.st2{fill:#FFFFFF;}
	.st3{fill-rule:evenodd;clip-rule:evenodd;fill:#C7373D;stroke:#231F20;stroke-miterlimit:22.926;}
	
		.st4{fill-rule:evenodd;clip-rule:evenodd;fill:#ECB92A;stroke:#22231F;stroke-width:0.6619;stroke-linejoin:round;stroke-miterlimit:22.926;}
	.st5{fill-rule:evenodd;clip-rule:evenodd;fill:#ECB92A;stroke:#22231F;stroke-width:0.6666;stroke-miterlimit:23.1752;}
	.st6{fill-rule:evenodd;clip-rule:evenodd;fill:#ECB92A;stroke:#22231F;stroke-width:0.6495;stroke-miterlimit:22.926;}
	.st7{fill-rule:evenodd;clip-rule:evenodd;fill:#ECB92A;stroke:#22231F;stroke-width:0.659;stroke-miterlimit:22.926;}
	.st8{fill-rule:evenodd;clip-rule:evenodd;fill:#ECB92A;stroke:#22231F;stroke-width:0.6137;stroke-miterlimit:22.926;}
	.st9{fill:none;stroke:#22231F;stroke-width:0.6669;stroke-miterlimit:31.0327;}
	.st10{fill:none;stroke:#22231F;stroke-width:0.6737;stroke-miterlimit:22.926;}
	.st11{fill:none;stroke:#22231F;stroke-width:0.6768;stroke-miterlimit:22.926;}
	.st12{fill:none;stroke:#22231F;stroke-width:0.6689;stroke-miterlimit:22.926;}
	
		.st13{fill-rule:evenodd;clip-rule:evenodd;fill:#ECB92A;stroke:#22231F;stroke-width:0.6669;stroke-linejoin:round;stroke-miterlimit:23.3586;}
	.st14{fill:none;stroke:#22231F;stroke-width:0.6669;stroke-linecap:round;stroke-miterlimit:22.9253;}
	.st15{fill-rule:evenodd;clip-rule:evenodd;fill:#ECB92A;stroke:#22231F;stroke-width:0.6631;stroke-miterlimit:22.926;}
	.st16{fill-rule:evenodd;clip-rule:evenodd;fill:#ECB92A;stroke:#22231F;stroke-width:0.6669;stroke-miterlimit:22.926;}
	.st17{fill-rule:evenodd;clip-rule:evenodd;fill:#ECB92A;stroke:#22231F;stroke-width:0.6733;stroke-miterlimit:22.926;}
	.st18{fill:none;stroke:#22231F;stroke-width:0.673;stroke-linecap:round;stroke-miterlimit:22.926;}
	.st19{fill-rule:evenodd;clip-rule:evenodd;fill:#22231F;}
	.st20{fill:none;stroke:#22231F;stroke-width:0.889;stroke-linecap:round;stroke-miterlimit:23.6767;}
	.st21{fill:none;stroke:#22231F;stroke-width:0.6669;stroke-linecap:round;stroke-miterlimit:24.1336;}
	.st22{fill:none;stroke:#22231F;stroke-width:0.889;stroke-miterlimit:29.5994;}
	.st23{fill:none;stroke:#22231F;stroke-width:0.6669;stroke-linecap:round;stroke-linejoin:round;stroke-miterlimit:22.9253;}
	.st24{fill:none;stroke:#22231F;stroke-width:0.6669;stroke-linecap:round;stroke-miterlimit:22.926;}
	
		.st25{fill-rule:evenodd;clip-rule:evenodd;fill:#ECB92A;stroke:#22231F;stroke-width:0.6733;stroke-linejoin:round;stroke-miterlimit:22.926;}
	.st26{fill:#C7373D;stroke:#22231F;stroke-width:1.3338;stroke-miterlimit:22.926;}
	.st27{fill:#FFFFFF;stroke:#231F20;stroke-miterlimit:22.926;}
	.st28{fill:#C7373D;stroke:#231F20;stroke-miterlimit:22.926;}
</style>
<g id="Serbia">
	<path id="path822" class="st0" d="M0,0h525v349.995H0V0z"/>
	<g>
		<defs>
			<rect id="SVGID_3_" y="175.008" width="525" height="175.018"/>
		</defs>
		<clipPath id="SVGID_1_">
			<use xlink:href="#SVGID_3_"  style="overflow:visible;"/>
		</clipPath>
		<path id="path826" class="st1" d="M0,174.873h525v175.122H0V174.873z"/>
	</g>
	<g>
		<path id="path1250" class="st2" d="M106.929,67.406v130.429c0,23.339,9.046,44.53,23.64,59.889
			c14.594,15.355,34.735,24.877,56.92,24.877h0.003c22.185,0,42.326-9.522,56.92-24.877c14.594-15.358,23.64-36.549,23.64-59.892
			V67.402L106.929,67.406z"/>
		<path id="path1252" class="st3" d="M188.23,275.86c0.696-0.117,1.881,0.03,2.77-0.67c1.189-0.934,0.719-4.706,0.613-7.091
			c-0.549-12.19-1.049-32.708-1.668-61.523c-1.012-0.137-1.755-0.067-2.447,0.04c-0.696-0.107-1.435-0.177-2.451-0.04
			c-0.619,28.816-1.119,49.333-1.665,61.523c-0.107,2.385-0.576,6.157,0.609,7.091c0.892,0.7,2.074,0.554,2.774,0.67H188.23z"/>
		<path id="path1254" class="st3" d="M195.86,275.514c-0.706-0.05-1.871,0.207-2.824-0.414c-1.265-0.82-1.372-4.676-1.478-7.064
			c-0.559-12.186-1.688-32.607-3.676-61.359c0.999-0.233,1.741-0.227,2.441-0.187c0.11-0.027,0.223-0.05,0.333-0.077
			c4.582,28.445,6.31,48.623,9.446,60.793c0.433,1.681,1.365,5.893-0.083,7.261c-0.826,0.777-2.014,0.737-2.704,0.917
			L195.86,275.514z"/>
		<path id="path1256" class="st3" d="M204.827,274.233c-0.709,0.013-1.845,0.37-2.85-0.157c-1.335-0.704-1.282-4.556-1.878-6.867
			c-3.137-12.173-4.865-32.357-9.446-60.81c0.972-0.32,1.711-0.384,2.414-0.407l0.1-0.033c7.282,27.659,9.466,47.158,15.12,59.202
			c0.523,1.668,1.948,6.1,0.586,7.644c-0.753,0.854-1.941,0.92-2.607,1.161L204.827,274.233z"/>
		<path id="path1258" class="st3" d="M213.858,271.676c-0.706,0.083-1.895,0.744-2.947,0.317c-1.398-0.57-1.618-4.686-2.624-6.834
			c-5.68-12.1-7.858-31.72-15.22-59.581c0.936-0.414,1.668-0.55,2.364-0.64c0.636-0.293,0.516-0.444,1.532-0.594
			c8.554,27.518,11.334,46.658,19.405,58.535c1.305,1.918,2.257,5.756,1.372,6.984c-0.663,0.921-1.838,1.107-2.481,1.411
			L213.858,271.676z"/>
		<path id="path1260" class="st3" d="M179.128,275.514c0.706-0.05,1.868,0.207,2.82-0.414c1.269-0.82,1.372-4.676,1.482-7.064
			c0.559-12.186,1.688-32.607,3.676-61.359c-0.999-0.233-1.741-0.227-2.444-0.187c-0.107-0.027-0.22-0.05-0.33-0.077
			c-4.582,28.445-6.31,48.623-9.446,60.793c-0.436,1.681-1.365,5.893,0.083,7.261c0.826,0.777,2.014,0.737,2.7,0.917
			L179.128,275.514z"/>
		<path id="path1262" class="st3" d="M170.161,274.233c0.709,0.013,1.845,0.37,2.847-0.157c1.339-0.704,1.285-4.556,1.881-6.867
			c3.137-12.173,4.865-32.357,9.446-60.81c-0.972-0.32-1.711-0.384-2.414-0.407l-0.1-0.033c-7.285,27.659-9.466,47.158-15.12,59.202
			c-0.523,1.668-1.951,6.1-0.586,7.644c0.753,0.854,1.941,0.92,2.607,1.161L170.161,274.233z"/>
		<path id="path1264" class="st3" d="M161.124,271.679c0.706,0.083,1.895,0.74,2.947,0.314c1.398-0.57,1.618-4.686,2.624-6.834
			c5.68-12.1,7.858-31.72,15.223-59.581c-0.939-0.414-1.668-0.55-2.364-0.64c-0.639-0.293-0.519-0.444-1.532-0.594
			c-8.557,27.518-11.337,46.659-19.408,58.535c-1.302,1.918-2.257,5.756-1.372,6.984c0.663,0.921,1.838,1.107,2.481,1.411
			L161.124,271.679z"/>
		<path id="path1266" class="st3" d="M209.085,250.887c-0.643,0.04-1.615,0.434-2.627-0.05c-1.345-0.64-2.221-4.359-2.943-6.67
			c-5.73-11.316-10.958-31.413-19.535-59.345c0.832-0.347,1.495-0.437,2.131-0.484c0.563-0.25,1.179-0.477,2.104-0.56
			c9.24,27.638,13.385,47.626,22.415,58.635c1.492,1.818,2.6,5.78,1.891,6.927c-0.533,0.864-1.605,0.977-2.171,1.234
			L209.085,250.887z"/>
		<path id="path1268" class="st3" d="M201.779,252.324c-0.649-0.013-1.658,0.3-2.61-0.26c-1.265-0.747-1.715-4.516-2.164-6.874
			c-2.308-12.043-6.569-32.257-12.616-60.633c0.866-0.28,1.535-0.317,2.174-0.313c0.593-0.203,1.229-0.38,2.161-0.39
			c7.149,28.199,8.804,49.313,15.566,60.155c1.232,1.974,1.921,5.963,1.086,7.047c-0.633,0.82-1.711,0.844-2.304,1.057
			L201.779,252.324z"/>
		<path id="path1270" class="st3" d="M194.337,253.166c-0.643-0.063-1.685,0.17-2.567-0.464c-1.172-0.847-1.185-4.632-1.362-7.017
			c-0.912-12.173-2.827-32.631-5.584-61.36c0.896-0.21,1.565-0.193,2.201-0.137c0.613-0.157,1.269-0.28,2.194-0.213
			c3.873,28.636,6.123,49.373,8.574,61.12c0.489,2.338,1.229,6.087,0.27,7.1c-0.719,0.764-1.798,0.7-2.414,0.867L194.337,253.166z"
			/>
		<path id="path1272" class="st3" d="M165.905,250.887c0.646,0.04,1.615,0.434,2.627-0.05c1.345-0.64,2.224-4.356,2.943-6.667
			c5.73-11.319,10.958-31.413,19.538-59.348c-0.832-0.35-1.495-0.437-2.134-0.487c-0.563-0.247-1.175-0.474-2.101-0.557
			c-9.24,27.641-13.388,47.629-22.418,58.634c-1.488,1.818-2.597,5.78-1.888,6.93c0.533,0.864,1.605,0.974,2.171,1.234
			L165.905,250.887z"/>
		<path id="path1274" class="st3" d="M173.207,252.323c0.646-0.01,1.658,0.304,2.61-0.257c1.265-0.747,1.715-4.519,2.164-6.874
			c2.307-12.046,6.566-32.257,12.616-60.633c-0.866-0.284-1.535-0.317-2.178-0.313c-0.589-0.203-1.225-0.38-2.158-0.39
			c-7.149,28.199-8.804,49.313-15.566,60.155c-1.232,1.974-1.925,5.963-1.086,7.047c0.629,0.817,1.711,0.84,2.304,1.057
			L173.207,252.323z"/>
		<path id="path1276" class="st3" d="M180.654,253.163c0.639-0.063,1.681,0.17,2.567-0.464c1.172-0.844,1.182-4.633,1.362-7.017
			c0.912-12.17,2.824-32.63,5.584-61.356c-0.896-0.213-1.568-0.193-2.204-0.14c-0.613-0.157-1.265-0.28-2.194-0.213
			c-3.873,28.636-6.123,49.373-8.574,61.12c-0.486,2.341-1.229,6.087-0.27,7.1c0.723,0.764,1.798,0.704,2.414,0.867L180.654,253.163
			z"/>
		<path id="path1278" class="st3" d="M188.153,253.42c0.629-0.117,1.695,0.033,2.501-0.67c1.072-0.934,0.646-4.706,0.553-7.094
			c-0.496-12.186-0.946-32.704-1.502-61.523c-0.919-0.137-1.585-0.067-2.211,0.04c-0.626-0.107-1.295-0.177-2.211-0.04
			c-0.556,28.819-1.009,49.336-1.502,61.523c-0.097,2.388-0.519,6.16,0.553,7.094c0.806,0.704,1.871,0.554,2.501,0.67H188.153z"/>
		<path id="path1280" class="st3" d="M204.032,234.131c-0.493,0.037-1.235,0.43-2.011-0.053c-1.032-0.64-1.705-4.356-2.258-6.667
			c-4.385-11.316-8.391-31.413-14.96-59.348c0.636-0.347,1.142-0.437,1.632-0.484c0.433-0.247,0.902-0.477,1.612-0.56
			c7.076,27.642,10.252,47.629,17.171,58.635c1.139,1.818,1.991,5.783,1.448,6.93c-0.41,0.864-1.232,0.974-1.665,1.234
			L204.032,234.131z"/>
		<path id="path1282" class="st3" d="M198.433,235.572c-0.493-0.013-1.269,0.303-1.998-0.26c-0.969-0.744-1.312-4.516-1.658-6.874
			c-1.768-12.044-5.028-32.254-9.666-60.63c0.666-0.283,1.179-0.32,1.668-0.317c0.453-0.2,0.942-0.377,1.655-0.387
			c5.477,28.198,6.743,49.313,11.923,60.152c0.942,1.974,1.472,5.963,0.829,7.051c-0.479,0.817-1.309,0.84-1.761,1.054
			L198.433,235.572z"/>
		<path id="path1284" class="st3" d="M192.74,236.411c-0.493-0.067-1.292,0.167-1.964-0.467c-0.902-0.844-0.909-4.632-1.045-7.017
			c-0.699-12.17-2.164-32.631-4.275-61.357c0.683-0.213,1.199-0.193,1.685-0.14c0.469-0.153,0.969-0.277,1.681-0.213
			c2.967,28.639,4.691,49.373,6.569,61.12c0.373,2.341,0.939,6.087,0.203,7.101c-0.553,0.764-1.378,0.704-1.848,0.87L192.74,236.411
			z"/>
		<path id="path1286" class="st3" d="M170.959,234.126c0.493,0.04,1.239,0.434,2.014-0.05c1.029-0.644,1.701-4.359,2.254-6.67
			c4.389-11.316,8.391-31.413,14.964-59.346c-0.639-0.35-1.145-0.437-1.632-0.484c-0.433-0.25-0.906-0.477-1.615-0.56
			c-7.076,27.642-10.252,47.629-17.168,58.635c-1.142,1.814-1.991,5.78-1.448,6.927c0.406,0.864,1.229,0.977,1.662,1.234
			L170.959,234.126z"/>
		<path id="path1288" class="st3" d="M176.552,235.563c0.496-0.01,1.272,0.303,1.998-0.257c0.969-0.747,1.312-4.516,1.658-6.874
			c1.768-12.046,5.031-32.258,9.666-60.632c-0.666-0.283-1.179-0.317-1.668-0.313c-0.453-0.203-0.942-0.38-1.655-0.387
			c-5.474,28.195-6.742,49.313-11.923,60.152c-0.942,1.974-1.472,5.96-0.832,7.047c0.486,0.817,1.312,0.84,1.765,1.054
			L176.552,235.563z"/>
		<path id="path1290" class="st3" d="M182.253,236.417c0.489-0.067,1.292,0.167,1.964-0.467c0.902-0.844,0.909-4.632,1.045-7.014
			c0.699-12.177,2.164-32.634,4.275-61.363c-0.686-0.21-1.199-0.193-1.685-0.137c-0.469-0.157-0.972-0.28-1.681-0.213
			c-2.967,28.639-4.691,49.373-6.569,61.12c-0.373,2.341-0.939,6.087-0.203,7.101c0.553,0.764,1.375,0.7,1.848,0.867
			L182.253,236.417z"/>
		<path id="path1292" class="st3" d="M188.006,236.658c0.483-0.117,1.299,0.03,1.918-0.67c0.819-0.934,0.493-4.706,0.42-7.094
			c-0.376-12.19-0.723-32.704-1.152-61.52c-0.699-0.14-1.212-0.07-1.691,0.037c-0.479-0.107-0.989-0.177-1.691-0.037
			c-0.426,28.815-0.772,49.33-1.149,61.52c-0.077,2.388-0.403,6.16,0.42,7.094c0.616,0.7,1.432,0.554,1.918,0.67H188.006z"/>
		<path id="path1296" class="st4" d="M153.828,203.628c-1.538,0.067-3.426,0.947-8.943,5.736c-2.411,4.923-4.838,9.875-8.184,14.144
			c-1.142,0.754-2.038,1.281-2.943,1.577c-0.942,0.313-7.901,0.083-8.071-0.21c-2.164-1.964-5.474-0.564-4.369,1.511
			c-0.856,0.814,1.032,3.792,2.551,2.558c1.392-1.137,6.243-0.063,7.858-0.65c-0.613,1.457-4.994,2.405-8.058,2.628
			c-2.797,0.12-2.61,2.915-1.458,5.059c1.312,0.837,0.236-0.22,0.713,0.39c1.252,1.861,3.932,1.618,4.022-0.2
			c0.093-1.881,6.629-4.332,7.608-5.776c-1.199,2.858-3.962,5.526-5.334,8.321c-1.475,1.481-2.367,1.778-0.463,4.766
			c2.114-0.24,2.238-0.804,3.539,0.43c2.89-0.317,3.36-1.177,2.89-3.468c-0.496-2.421,1.525-6.797,2.201-8.034
			c0.619-1.141,0.772-2.325,1.375-3.038c1.049-1.244,6.043-3.729,7.322-3.045c2.357,1.254,4.152,0.497,4.448-1.788
			c-0.759-0.587-0.186-3.829-1.818-3.969c-1.332-0.11-2.121,0.3-3.346,1.301c-1.928,1.578-2.917,2.415-3.553,2.241
			c-1.502-0.417,2.724-2.491,6.569-7.541C153.712,209.574,154.079,206.022,153.828,203.628L153.828,203.628z"/>
		<path id="path1298" class="st5" d="M121.646,227.668c-1.931-1.131-3.037-1.087-3.786-0.247c-0.413,0.464-0.936,0.223-0.629-0.504
			c1.282-3.035,3.326-3.412,5.164-1.991c0.513,0.477,0.926,0.887,1.339,1.297C123.427,226.681,121.896,227.318,121.646,227.668
			L121.646,227.668z"/>
		<path id="path1300" class="st6" d="M149.264,224.961c2.051-1.394,3.969-1.668,5.021-0.884c0.576,0.43,1.149,0.12,0.639-0.594
			c-2.124-2.992-4.612-3.142-6.49-1.457c-0.509,0.554-0.916,1.024-1.322,1.497C147.759,224.227,149.178,225.021,149.264,224.961
			L149.264,224.961z"/>
		<path id="path1302" class="st7" d="M133.14,242.093c-1.255,2.488-1.918,4.192-1.372,5.526c0.316,0.78-0.043,1.497-0.832,0.817
			c-3.2-2.748-3.206-5.9-1.159-8.041c0.683-0.714,1.412-1.174,2.061-1.694C132.671,239.481,133.204,241.973,133.14,242.093
			L133.14,242.093z"/>
		<path id="path1304" class="st8" d="M125.151,235.555c-1.905,0.787-2.557,1.791-2.491,3.105c0.04,0.724-0.436,0.994-0.703,0.153
			c-2.327-5.406,0.087-6.417,3.573-6.22C125.727,233.534,125.235,235.518,125.151,235.555L125.151,235.555z"/>
		<path id="path1310" class="st9" d="M141.525,223.519c-1.252-0.73-1.325-1.541-0.999-2.084c0.696-1.154,1.395-0.597,2.707,0.467"/>
		<path id="path1312" class="st9" d="M143.15,221.751c-1.252-0.73-1.325-1.541-0.999-2.084c0.696-1.151,1.395-0.597,2.707,0.467"/>
		<path id="path1314" class="st10" d="M144.971,220.077c-1.382-0.947-1.465-2.001-1.102-2.711c0.766-1.497,1.538-0.777,2.983,0.607"
			/>
		<path id="path1316" class="st11" d="M146.934,217.968c-1.465-1.074-1.555-2.261-1.169-3.065c0.812-1.694,1.635-0.877,3.17,0.687"
			/>
		<path id="path1318" class="st12" d="M149,215.731c-1.365-1.137-1.791-2.265-1.169-3.255c0.976-1.551,1.635-0.93,3.17,0.73"/>
		<path id="path1322" class="st13" d="M167.51,94.148c-0.979,0.854-4.209,0.867-8.63,1.151c-7.125,0.25-11.25-1.901-12.166-6.463
			c2.677,3.185,5.864,4.763,9.486,3.865c4.885-1.211,7.682-2.078,8.797-1.864C165.745,91.103,166.841,92.464,167.51,94.148
			L167.51,94.148z"/>
		<path id="path1324" class="st3" d="M184.004,191.415c-0.04,2.044-0.063,4.336-0.08,6.69l-0.02,0.007l-5.091,1.057
			c-0.013,2.325,5.727,26.648,8.684,26.648c2.957,0,8.693-24.34,8.684-26.664l-5.091-1.041l-0.02-0.007
			c-0.017-2.355-0.043-4.646-0.08-6.69c-1.069,0.891-2.251,2.438-3.493,3.839C186.252,193.854,185.073,192.306,184.004,191.415
			L184.004,191.415z"/>
		<path id="path1326" class="st3" d="M178.105,201.748l-4.562-2.585c-1.918,1.377-3.34,6.497-0.06,10.679
			c4.089,5.213,5.744,8.992,6.742,13.21c2.977-3.812,4.002-7.821,2.111-11.733C179.79,206.043,178.128,203.068,178.105,201.748
			L178.105,201.748z"/>
		<path id="path1328" class="st3" d="M181.834,198.095l-4.562-2.585c-1.921,1.377-5.93,6.337-2.65,10.519
			c4.089,5.209,8.334,9.151,9.333,13.371c2.977-3.812,4.245-7.821,2.354-11.733C183.762,202.394,181.858,199.419,181.834,198.095
			L181.834,198.095z"/>
		<path id="path1330" class="st3" d="M196.882,201.741l4.562-2.585c1.921,1.381,3.34,6.5,0.06,10.683
			c-4.085,5.213-5.744,8.988-6.742,13.21c-2.977-3.812-3.999-7.824-2.108-11.733C195.201,206.04,196.859,203.065,196.882,201.741
			L196.882,201.741z"/>
		<path id="path1332" class="st3" d="M193.153,198.088l4.565-2.581c1.918,1.377,5.93,6.333,2.65,10.515
			c-4.089,5.213-8.334,9.155-9.337,13.374c-2.973-3.812-4.242-7.821-2.351-11.733C191.229,202.387,193.133,199.412,193.153,198.088
			L193.153,198.088z"/>
		<path id="path1334" class="st3" d="M171.762,196.244l-4.562-2.585c-1.918,1.381-3.34,6.5-0.057,10.683
			c4.085,5.213,5.744,8.992,6.742,13.21c2.973-3.812,3.999-7.824,2.108-11.733C173.444,200.543,171.786,197.568,171.762,196.244
			L171.762,196.244z"/>
		<path id="path1336" class="st3" d="M203.225,196.237l4.565-2.585c1.918,1.381,3.336,6.497,0.057,10.683
			c-4.089,5.213-5.744,8.988-6.743,13.207c-2.973-3.809-3.999-7.821-2.108-11.733C201.544,200.533,203.205,197.558,203.225,196.237
			L203.225,196.237z"/>
		<path id="path1340" class="st3" d="M150.64,148.088c0.087,4.172-0.653,31.997-0.886,35.929c-0.23,3.915-1.964,6.584-3.816,8.114
			c-1.695-2.331-2.707-5.476-2.947-9.212c-0.127-1.901,0.226-28.232,0.373-33.645C146.481,141.028,148.792,140.714,150.64,148.088
			L150.64,148.088z"/>
		<path id="path1342" class="st3" d="M132.552,141.283l-1.179,38.257c-0.373,3.395,4.046,23.589,6.459,27.575
			c5.98-2.558,7.242-16.259,6.117-29.609c-1.122-13.354,0.19-24.883,1.102-27.281c0.08-3.022-0.426-6.173-0.456-9.318
			c-3.809,0.23-8.234,0.147-12.043,0.377L132.552,141.283z"/>
		<path id="path1344" class="st3" d="M125.469,147.536l0.809,38.27c-0.193,3.408,5.271,23.336,7.891,27.178
			c6.063-4.703,4.845-23.943,3.916-29.763c-1.851-11.599-1.538-25.037-0.899-27.218c-0.077-3.022-0.156-6.637-0.35-9.778
			C133.047,146.662,129.258,147.099,125.469,147.536L125.469,147.536z"/>
		<path id="path1346" class="st3" d="M120.209,156.601l10.056-0.257c-0.856,4.176-0.173,17.142,1.562,27.024
			c1.628,9.269,3.899,33.301-5.75,39.071c-5.98-12.68-1.425-25.003-4.442-36.016C119.281,174.721,118.818,164.95,120.209,156.601
			L120.209,156.601z"/>
		<path id="path1348" class="st3" d="M158.652,141.062c-0.04,4.176-1.621,31.964-1.971,35.886c-0.353,3.905-2.168,6.517-4.062,7.984
			c-1.625-2.381-2.541-5.556-2.67-9.295c-0.063-1.908,1.085-28.215,1.395-33.622C154.706,133.871,157.027,133.631,158.652,141.062
			L158.652,141.062z"/>
		<path id="path1350" class="st3" d="M140.786,118.393c-0.27,8.961-0.423,28.415-0.366,30.066c0.127,3.739,1.602,8.495,3.226,10.88
			c1.895-1.467,3.706-4.079,4.059-7.988c0.286-3.208,0.39-18.98,0.436-26.884c-2.024-1.304-4.119-2.935-5.807-4.672
			C142.334,119.795,140.846,118.471,140.786,118.393L140.786,118.393z"/>
		<path id="path1352" class="st3" d="M147.963,124.171c-0.18,9.659-0.073,24.873-0.03,26.108c0.127,3.739,1.042,6.917,2.667,9.302
			c1.895-1.471,3.896-4.176,4.245-8.081c0.216-2.405,0.886-12.713,0.946-20.627C153.244,130.065,150.027,125.886,147.963,124.171
			L147.963,124.171z"/>
		<path id="path1354" class="st3" d="M141.783,117.586l-6.846-9.868c-1.382,4.869-3.07,39.791-1.089,42.652
			c0.127,3.739,1.475,6.904,3.1,9.288c1.895-1.471,4.725-4.116,3.906-8.068C140.039,147.639,140.954,121.662,141.783,117.586
			L141.783,117.586z"/>
		<path id="path1356" class="st3" d="M127.753,139.549c-0.31,5.403-0.529,9.061-0.463,10.966c0.127,3.739,1.042,6.917,2.667,9.302
			c1.895-1.471,4.309-4.076,4.059-7.991c-0.956-15.122,0.699-29.366,2.624-43.059c-1.625-1.194-4.362-2.478-5.987-3.672
			C127.407,123.535,126.321,134.981,127.753,139.549L127.753,139.549z"/>
		<path id="path1358" class="st3" d="M120.9,149.448l1.858,7.034c0.127,3.739,2.437,6.827,4.059,9.212
			c1.895-1.474,3.616-3.889,3.133-7.777c-2.777-22.339-1.785-37.116,2.9-55.32C122.255,109.83,117.344,125.088,120.9,149.448
			L120.9,149.448z"/>
		<path id="path1360" class="st3" d="M121.445,156.364l-9.722-3.228c-1.235,9.721,0.666,21.932,3.286,38.034
			c2.247,13.824,1.065,24.767-0.653,31.787c10.372-1.421,14.757-14.795,9.556-39.948
			C122.551,176.425,121.183,168.011,121.445,156.364L121.445,156.364z"/>
		<path id="path1368" class="st14" d="M121.151,203.411c0.226-6.44-0.852-13.47-2.074-19.394
			c-1.681-8.121-2.544-15.905-2.597-24.083"/>
		<path id="path1370" class="st3" d="M121.062,99.175l6.38,1.074c-0.313,1.367-1.931,9.765-2.228,11.196
			c-2.384,11.67-3.959,25.42-2.154,40.502c0.669,5.596,1.855,10.172,3.596,13.711c-6.999-0.797-11.484-7.631-10.905-19.55
			c-1.219-13.924-0.683-24.997,1.572-33.321C117.982,110.345,120.106,101.147,121.062,99.175L121.062,99.175z"/>
		<path id="path1372" class="st3" d="M117.192,100.687l3.133,3.575c-0.889,0.637,0.619,3.378-0.193,8.704
			c-0.523,3.022-2.324,6.587-2.694,10.445c-1.235,12.784-1.239,28.792,2.604,39.028c-6.999-0.797-9.403-7.141-9.629-19.073
			c-0.186-9.868-0.22-21.502,2.257-34.932C113.173,105.297,114.681,102.792,117.192,100.687L117.192,100.687z"/>
		<path id="path1374" class="st3" d="M134.676,110.1l-6.459-0.754c-1.189,6.107-2.094,10.426-2.317,12.6
			c-0.433,4.269,0.862,8.181,2.341,11.096c2.384-1.437,3.489-4.576,4.492-8.971C133.734,119.652,133.987,114.839,134.676,110.1
			L134.676,110.1z"/>
		<path id="path1376" class="st3" d="M151.438,123.855l-5.734,0.06c-0.196,5.27-0.336,8.835-0.243,10.692
			c0.183,3.642,1.092,6.727,2.647,9.035c1.741-1.451,3.39-4.015,3.649-7.824C152.017,131.993,151.474,127.921,151.438,123.855
			L151.438,123.855z"/>
		<path id="path1378" class="st3" d="M157.611,126.574l-5.73,0.263c-0.01,5.273-0.03,8.842,0.13,10.692
			c0.31,3.632,1.325,6.687,2.96,8.938c1.688-1.514,3.246-4.129,3.376-7.944C158.474,134.689,157.788,130.64,157.611,126.574
			L157.611,126.574z"/>
		<path id="path1380" class="st3" d="M145.599,120.895l-5.717-0.404c-0.623,5.236-1.052,8.778-1.112,10.636
			c-0.11,3.645,0.546,6.794,1.908,9.222c1.855-1.307,3.703-3.725,4.272-7.501C145.519,129.056,145.306,124.95,145.599,120.895
			L145.599,120.895z"/>
		<path id="path1382" class="st3" d="M140.237,114.721l-6.273-2.605c-1.066,4.242-2.514,18.203,0.057,24.1
			c2.088-1.417,4.195-4.082,4.898-8.281C139.625,123.719,139.835,119.237,140.237,114.721L140.237,114.721z"/>
		<path id="path1384" class="st3" d="M131.944,107.796l-10.026,0.89c-2.307,5.753-3.819,10.853-4.555,15.475
			c4.648-0.824,8.018-3.108,9.226-7.277C128.221,111.261,131.092,108.79,131.944,107.796L131.944,107.796z"/>
		<path id="path1388" class="st15" d="M142.107,259.704c3.829,3.068,7.332-3.949,3.936-13.227
			c-2.511-6.863-14.791-4.199-7.951,5.036c0.323,0.437,0.782,0.23,0.716-0.267c-0.386-1.894,0.819-2.992,2.68-2.645
			c5.088,0.954,5.247,10.609-0.283,8.411C140.193,256.949,141.098,258.894,142.107,259.704L142.107,259.704z"/>
		<path id="path1390" class="st15" d="M154.671,259.704c-3.829,3.068-7.332-3.949-3.936-13.227
			c2.514-6.863,14.791-4.199,7.951,5.036c-0.326,0.437-0.779,0.23-0.716-0.267c0.39-1.894-0.819-2.992-2.68-2.645
			c-5.084,0.954-5.244,10.609,0.283,8.411C156.583,256.949,155.68,258.894,154.671,259.704L154.671,259.704z"/>
		<path id="path1392" class="st15" d="M148.023,229.892l-0.003,0.063c-0.499,1.611-2.361,3.622-3.806,5.133
			c-2.244,2.341-1.715,5.886-0.16,7.771c1.691,2.054,2.447,4.369,2.787,6.17c0.256,1.107,0.709,3.592,0.38,7.454
			c-0.163,1.901-1.312,2.882-2.391,3.732c-0.546,0.434,0.233,1.467,2.041,2.828c0.2,0.147,0.743,0.52,1.002,1.461
			c0.1,0.227,0.939,0.227,1.039,0c0.26-0.941,0.802-1.314,1.002-1.461c1.808-1.361,2.587-2.395,2.041-2.828
			c-1.079-0.85-2.228-1.831-2.391-3.732c-0.33-3.862,0.127-6.347,0.376-7.454c0.343-1.801,1.099-4.116,2.794-6.17
			c1.552-1.884,2.084-5.43-0.16-7.771c-1.448-1.511-3.31-3.522-3.809-5.133v-0.063c-0.027-0.313-0.2-0.47-0.373-0.47
			S148.046,229.579,148.023,229.892L148.023,229.892z"/>
		<path id="path1396" class="st16" d="M145.628,252.157h5.534c0.952,0,1.731,0.767,1.731,1.701c0,0.937-0.779,1.701-1.731,1.701
			h-5.534c-0.952,0-1.731-0.764-1.731-1.701C143.896,252.924,144.675,252.157,145.628,252.157z"/>
		<path id="path1398" class="st15" d="M220.314,259.704c3.826,3.068,7.329-3.949,3.936-13.227
			c-2.514-6.863-14.793-4.199-7.954,5.036c0.326,0.437,0.782,0.23,0.719-0.267c-0.39-1.894,0.819-2.992,2.677-2.645
			c5.088,0.954,5.247,10.609-0.283,8.411C218.399,256.949,219.301,258.894,220.314,259.704L220.314,259.704z"/>
		<path id="path1400" class="st15" d="M232.878,259.704c-3.829,3.068-7.332-3.949-3.936-13.227
			c2.511-6.863,14.791-4.199,7.951,5.036c-0.323,0.437-0.779,0.23-0.716-0.267c0.39-1.894-0.819-2.992-2.68-2.645
			c-5.084,0.954-5.244,10.609,0.286,8.411C234.792,256.949,233.887,258.894,232.878,259.704L232.878,259.704z"/>
		<path id="path1402" class="st15" d="M226.221,229.892l-0.003,0.063c-0.499,1.611-2.361,3.622-3.806,5.133
			c-2.244,2.341-1.715,5.886-0.16,7.771c1.691,2.054,2.451,4.369,2.787,6.17c0.256,1.107,0.709,3.592,0.38,7.454
			c-0.163,1.901-1.312,2.882-2.391,3.732c-0.546,0.434,0.233,1.467,2.041,2.828c0.2,0.147,0.743,0.52,1.002,1.461
			c0.1,0.227,0.939,0.227,1.039,0c0.26-0.941,0.806-1.314,1.002-1.461c1.808-1.361,2.587-2.395,2.041-2.828
			c-1.075-0.85-2.228-1.831-2.391-3.732c-0.33-3.862,0.127-6.347,0.38-7.454c0.34-1.801,1.095-4.116,2.79-6.17
			c1.552-1.884,2.081-5.43-0.16-7.771c-1.448-1.511-3.31-3.522-3.809-5.133v-0.063c-0.027-0.313-0.2-0.47-0.373-0.47
			S226.244,229.579,226.221,229.892L226.221,229.892z"/>
		<path id="path1406" class="st16" d="M223.834,252.157h5.534c0.952,0,1.728,0.767,1.728,1.701c0,0.937-0.776,1.701-1.728,1.701
			h-5.534c-0.952,0-1.731-0.764-1.731-1.701C222.103,252.924,222.882,252.157,223.834,252.157z"/>
		<path id="path1410" class="st3" d="M224.354,148.088c-0.087,4.172,0.649,31.997,0.882,35.929c0.233,3.915,1.968,6.584,3.819,8.114
			c1.695-2.331,2.707-5.476,2.947-9.212c0.123-1.901-0.226-28.232-0.373-33.645C228.513,141.028,226.202,140.714,224.354,148.088
			L224.354,148.088z"/>
		<path id="path1412" class="st3" d="M242.441,141.283l1.182,38.257c0.373,3.395-4.049,23.589-6.463,27.575
			c-5.98-2.558-7.242-16.259-6.117-29.609c1.125-13.354-0.186-24.883-1.099-27.281c-0.08-3.022,0.426-6.173,0.456-9.318
			c3.809,0.23,8.234,0.147,12.04,0.377L242.441,141.283z"/>
		<path id="path1414" class="st3" d="M249.525,147.536l-0.812,38.27c0.196,3.408-5.271,23.336-7.888,27.178
			c-6.063-4.703-4.845-23.943-3.916-29.763c1.851-11.599,1.538-25.037,0.899-27.218c0.077-3.022,0.153-6.637,0.346-9.778
			C241.943,146.662,245.732,147.099,249.525,147.536L249.525,147.536z"/>
		<path id="path1416" class="st3" d="M254.784,156.601l-10.052-0.257c0.856,4.176,0.17,17.142-1.565,27.024
			c-1.625,9.269-3.896,33.301,5.75,39.071c5.983-12.68,1.428-25.003,4.445-36.016C255.713,174.721,256.179,164.946,254.784,156.601
			L254.784,156.601z"/>
		<path id="path1418" class="st3" d="M216.341,141.062c0.037,4.176,1.622,31.964,1.971,35.886c0.353,3.905,2.168,6.517,4.062,7.984
			c1.625-2.381,2.541-5.556,2.667-9.295c0.067-1.908-1.082-28.215-1.392-33.622C220.287,133.871,217.966,133.631,216.341,141.062
			L216.341,141.062z"/>
		<path id="path1420" class="st3" d="M234.207,118.393c0.27,8.961,0.423,28.415,0.366,30.066c-0.13,3.739-1.602,8.495-3.226,10.88
			c-1.895-1.467-3.709-4.079-4.059-7.988c-0.286-3.208-0.39-18.98-0.44-26.884c2.028-1.304,4.119-2.935,5.807-4.672
			C232.656,119.795,234.148,118.471,234.207,118.393L234.207,118.393z"/>
		<path id="path1422" class="st3" d="M227.022,124.171c0.176,9.659,0.073,24.873,0.03,26.108c-0.127,3.739-1.042,6.917-2.667,9.302
			c-1.895-1.471-3.896-4.176-4.245-8.081c-0.216-2.405-0.886-12.713-0.949-20.627C221.738,130.065,224.957,125.886,227.022,124.171
			L227.022,124.171z"/>
		<path id="path1424" class="st3" d="M233.202,117.586l6.842-9.868c1.385,4.869,3.073,39.791,1.092,42.652
			c-0.127,3.739-1.478,6.904-3.103,9.288c-1.895-1.471-4.721-4.116-3.902-8.068C234.946,147.639,234.031,121.662,233.202,117.586
			L233.202,117.586z"/>
		<path id="path1426" class="st3" d="M247.24,139.549c0.306,5.403,0.529,9.061,0.463,10.966c-0.127,3.739-1.042,6.917-2.667,9.302
			c-1.895-1.471-4.309-4.076-4.062-7.991c0.956-15.122-0.696-29.366-2.62-43.059c1.625-1.194,4.362-2.478,5.987-3.672
			C247.587,123.535,248.672,134.981,247.24,139.549L247.24,139.549z"/>
		<path id="path1428" class="st3" d="M254.085,149.448l-1.858,7.034c-0.13,3.739-2.437,6.827-4.059,9.212
			c-1.898-1.474-3.616-3.889-3.133-7.777c2.777-22.339,1.785-37.116-2.903-55.32C252.73,109.83,257.641,125.088,254.085,149.448
			L254.085,149.448z"/>
		<path id="path1430" class="st3" d="M253.54,156.364l9.722-3.228c1.239,9.721-0.666,21.932-3.283,38.034
			c-2.247,13.824-1.065,24.767,0.653,31.787c-10.372-1.421-14.757-14.795-9.556-39.948
			C252.434,176.425,253.802,168.011,253.54,156.364L253.54,156.364z"/>
		<path id="path1436" class="st14" d="M253.838,203.411c-0.226-6.44,0.849-13.47,2.074-19.394
			c1.678-8.121,2.544-15.905,2.597-24.083"/>
		<path id="path1438" class="st3" d="M253.932,99.175l-6.383,1.074c0.316,1.367,1.934,9.765,2.228,11.196
			c2.387,11.67,3.962,25.42,2.158,40.502c-0.669,5.596-1.858,10.172-3.596,13.711c6.999-0.797,11.484-7.631,10.905-19.55
			c1.215-13.924,0.683-24.997-1.572-33.321C257.011,110.345,254.887,101.147,253.932,99.175L253.932,99.175z"/>
		<path id="path1440" class="st3" d="M257.801,100.687l-3.137,3.575c0.892,0.637-0.616,3.378,0.193,8.704
			c0.526,3.022,2.324,6.587,2.697,10.445c1.235,12.784,1.239,28.792-2.604,39.028c6.999-0.797,9.403-7.141,9.629-19.073
			c0.186-9.868,0.22-21.502-2.257-34.932C261.82,105.297,260.312,102.792,257.801,100.687L257.801,100.687z"/>
		<path id="path1442" class="st3" d="M240.316,110.096l6.459-0.754c1.189,6.107,2.094,10.426,2.314,12.604
			c0.433,4.266-0.859,8.178-2.337,11.093c-2.384-1.437-3.489-4.576-4.492-8.971C241.255,119.649,241.005,114.836,240.316,110.096
			L240.316,110.096z"/>
		<path id="path1444" class="st3" d="M223.55,123.848l5.734,0.06c0.196,5.27,0.34,8.835,0.246,10.689
			c-0.183,3.642-1.092,6.727-2.647,9.038c-1.741-1.451-3.39-4.015-3.649-7.824C222.974,131.986,223.517,127.913,223.55,123.848
			L223.55,123.848z"/>
		<path id="path1446" class="st3" d="M217.381,126.573l5.73,0.26c0.01,5.273,0.027,8.841-0.13,10.696
			c-0.31,3.629-1.325,6.684-2.96,8.935c-1.691-1.511-3.246-4.129-3.376-7.944C216.518,134.687,217.204,130.635,217.381,126.573
			L217.381,126.573z"/>
		<path id="path1448" class="st3" d="M229.392,120.891l5.72-0.407c0.619,5.239,1.052,8.781,1.109,10.639
			c0.113,3.642-0.546,6.794-1.908,9.222c-1.851-1.307-3.703-3.725-4.269-7.501C229.472,129.053,229.685,124.947,229.392,120.891
			L229.392,120.891z"/>
		<path id="path1450" class="st3" d="M234.752,114.715l6.273-2.605c1.069,4.242,2.514,18.203-0.053,24.099
			c-2.091-1.417-4.195-4.082-4.901-8.281C235.368,123.713,235.155,119.227,234.752,114.715L234.752,114.715z"/>
		<path id="path1452" class="st3" d="M243.046,107.79l10.022,0.894c2.311,5.75,3.822,10.849,4.558,15.471
			c-4.652-0.82-8.021-3.108-9.23-7.274C246.765,111.255,243.898,108.783,243.046,107.79L243.046,107.79z"/>
		<path id="path1454" class="st3" d="M213.564,122.079c0.766-0.16,1.545-0.38,2.334-0.657c-3.669-2.301-6.709-5.086-10.329-10.636
			c-3.703-5.686,1.625-15.842,3.809-21.228c4.568-3.382,8.871-8.355,10.239-14.908c0.539-3.525-9.18-2.251-15.866,0.907
			c-8.171,3.862-9.283,2.791-12.196,3.442c-1.039,5.013,1.132,5.433,3.216,5.189c-4.502,7.224-6.38,14.415-7.279,24.757
			c-0.899-10.342-2.777-17.533-7.279-24.757c2.084,0.243,4.252-0.177,3.216-5.189c-2.913-0.65-4.026,0.42-12.2-3.442
			c-6.683-3.158-16.405-4.432-15.862-0.907c1.368,6.554,5.67,11.526,10.235,14.908c2.188,5.386,7.515,15.542,3.812,21.228
			c-3.619,5.55-6.663,8.334-10.331,10.636c0.792,0.277,1.572,0.497,2.334,0.657c-0.553,0.757-5.311,2.241-5.87,1.848
			c-3.639-2.578-7.189-8.631-10.285-12.147c-8.77-9.959-13.148-17.643-11.601-23.843c2.204-6.677,10.062-14.171-0.35-12.873
			c-10.408,1.294-19.039,15.589-21.809,32.784c-1.029,6.38-1.625,11.72-2.321,16.092c5.684-2.031,8.201-4.052,9.709-6.55
			c-0.676,2.375-1.185,4.626-1.528,6.774c4.648-0.824,8.021-3.108,9.229-7.277c0.486-1.688,1.089-3.092,1.711-4.256
			c1.432,0.507,3.283,0.477,5.534-0.073c0.856,2.041,7.262,9.182,10.701,14.427c3.886,5.923,9.725,10.449,11.647,10.699
			c0.966,0.123,1.262-2.014,1.049-4.963c10.155,0.07,20.304,0.13,30.256-0.207c9.952,0.337,20.101,0.277,30.256,0.207
			c-0.213,2.948,0.083,5.086,1.046,4.963c1.925-0.25,7.765-4.776,11.647-10.699c3.443-5.246,9.849-12.387,10.701-14.427
			c2.254,0.55,4.105,0.58,5.534,0.073c0.626,1.164,1.225,2.568,1.715,4.256c1.209,4.169,4.582,6.453,9.229,7.277
			c-0.343-2.148-0.852-4.399-1.532-6.774c1.512,2.498,4.029,4.519,9.709,6.55c-0.693-4.372-1.289-9.712-2.317-16.092
			c-2.77-17.196-11.4-31.49-21.813-32.784c-10.408-1.297-2.551,6.197-0.346,12.873c1.548,6.2-2.83,13.884-11.601,23.843
			c-3.1,3.515-6.646,9.568-10.289,12.147c-0.556,0.394-5.314-1.091-5.87-1.848L213.564,122.079z"/>
		<path id="path1460" class="st13" d="M207.482,94.14c0.979,0.857,4.209,0.87,8.63,1.154c7.125,0.247,11.251-1.904,12.166-6.467
			c-2.674,3.188-5.86,4.766-9.486,3.869c-4.885-1.211-7.682-2.081-8.797-1.864C209.246,91.098,208.151,92.456,207.482,94.14
			L207.482,94.14z"/>
		<path id="path1462" class="st17" d="M224.149,75.394c7.988,0.864,7.605,6.093,0.137,13.481c-1.428,1.414-1.921,1.371-2.224-0.1
			c-0.533-2.568-3.376-4.086-4.868-2.128c-1.016,1.331-0.789,2.095-4.172,1.621c-4.272,3.585-7.751,6.107-2.158,5.9
			c2.457-0.093,4.352,1.341,7.558,1.214c-0.949,1.841-1.119,2.054-1.632,2.211c-3.107,0.614-6.38-1.327-9.513-0.75
			c-6.869,1.267,11.001-18.57,10.781-19.357C217.493,75.491,222.354,71.912,224.149,75.394L224.149,75.394z"/>
		<path id="path1468" class="st18" d="M223.962,75.22c-0.663,1.884-1.925,3.612-3.789,5.189"/>
		<path id="path1474" class="st19" d="M225.667,79.056c-0.05-0.357-0.39-0.62-0.756-0.58c-0.37,0.037-0.626,0.36-0.573,0.724
			c0.05,0.357,0.39,0.62,0.756,0.58C225.463,79.743,225.72,79.42,225.667,79.056"/>
		<path id="path1476" class="st20" d="M157.411,77.396c2.144-0.113,4.342,0.827,7.195,1.861c0.802,0.293,3.596,1.394,4.445,1.264"/>
		<path id="path1478" class="st21" d="M180.333,84.213c-2.331-0.384-3.613-0.684-4.708-0.991"/>
		<path id="path1480" class="st22" d="M159.113,77.554c0.902,1.651,1.971,3.892,3.869,4.956c1.428,0.8,3.017-0.464,4.175-2.635"/>
		<path id="path1484" class="st19" d="M162.223,81.712l-1.052-1.054c-0.513-0.65-0.216-1.514,0.892-2.595
			c0.809,0.35,1.455,0.62,2.104,0.891C163.738,80.414,163.089,81.335,162.223,81.712"/>
		<path id="path1486" class="st22" d="M215.88,77.554c-0.902,1.651-1.968,3.892-3.866,4.956c-1.428,0.804-3.017-0.464-4.175-2.631"
			/>
		<path id="path1488" class="st19" d="M212.761,81.712l1.052-1.054c0.516-0.65,0.22-1.514-0.889-2.595
			c-0.812,0.35-1.458,0.62-2.104,0.891C211.25,80.414,211.899,81.335,212.761,81.712"/>
		<path id="path1490" class="st20" d="M217.585,77.397c-2.144-0.117-4.342,0.827-7.192,1.861c-0.806,0.29-3.596,1.391-4.448,1.264"
			/>
		<path id="path1492" class="st21" d="M194.65,84.214c2.337-0.38,3.616-0.684,4.711-0.987"/>
		<path id="path1494" class="st23" d="M159.089,121.421c4.558,1.601,8.68,1.284,11.77-1.764c0.489-0.48,0.956-0.941,1.392-1.377"/>
		<path id="path1496" class="st23" d="M172.804,115.496c-0.423,3.078-1.209,5.533-2.294,7.971c3.213-0.837,5.754-2.311,7.305-4.532"
			/>
		<path id="path1498" class="st23" d="M187.439,124.939c-2.507-3.048-4.049-6.574-4.222-10.526"/>
		<path id="path1500" class="st23" d="M177.176,115.044c0.283,3.082,1.162,5.716,2.59,7.757c1.545-1.171,3.043-3.085,3.729-5.826"/>
		<path id="path1504" class="st23" d="M215.899,121.421c-4.558,1.601-8.677,1.284-11.77-1.764c-0.486-0.48-0.952-0.941-1.388-1.377"
			/>
		<path id="path1506" class="st23" d="M202.184,115.496c0.423,3.078,1.212,5.533,2.297,7.971c-3.216-0.837-5.754-2.311-7.305-4.532"
			/>
		<path id="path1508" class="st23" d="M197.803,115.044c-0.28,3.082-1.159,5.716-2.587,7.757c-1.548-1.171-3.043-3.085-3.729-5.826"
			/>
		<path id="path1510" class="st23" d="M187.549,124.939c2.507-3.048,4.049-6.574,4.222-10.526"/>
		<path id="path1516" class="st24" d="M128.171,97.153c-3.613,2.585-10.272,21.294-10.784,26.785
			c-1.185,12.697-1.135,28.412,2.654,38.507"/>
		<path id="path1518" class="st24" d="M246.814,97.153c3.616,2.585,10.275,21.294,10.788,26.785
			c1.182,12.697,1.135,28.412-2.654,38.507"/>
		<path id="path1524" class="st25" d="M150.844,75.394c-7.991,0.864-7.608,6.093-0.14,13.481c1.428,1.414,1.921,1.371,2.224-0.1
			c0.533-2.568,3.376-4.086,4.868-2.128c1.016,1.331,0.789,2.095,4.172,1.621c4.275,3.585,7.755,6.107,2.161,5.9
			c-2.461-0.093-4.359,1.341-7.562,1.214c0.949,1.841,1.119,2.054,1.632,2.211c3.107,0.614,6.38-1.327,9.516-0.75
			c6.869,1.267-11.004-18.57-10.784-19.357C157.497,75.491,152.636,71.912,150.844,75.394L150.844,75.394z"/>
		<path id="path1526" class="st18" d="M151.032,75.22c0.659,1.884,1.925,3.612,3.786,5.189"/>
		<path id="path1530" class="st19" d="M149.327,79.056c0.053-0.357,0.393-0.62,0.759-0.58c0.37,0.037,0.626,0.36,0.573,0.724
			c-0.05,0.357-0.39,0.62-0.756,0.58C149.533,79.743,149.277,79.42,149.327,79.056"/>
		<path id="path1532" class="st3" d="M156.236,201.063l0.183-5.246c-2.104-1.067-7.295,0.03-9.487,4.873
			c-2.734,6.04-5.317,9.255-8.594,12.087c4.751,0.887,8.774-0.053,11.367-3.535C153.205,204.542,155.073,201.697,156.236,201.063
			L156.236,201.063z"/>
		<path id="path1534" class="st3" d="M160.09,201.757l-5.667-2.388c-2.324,4.739-3.906,7.938-4.565,9.676
			c-1.289,3.408-1.642,6.62-1.046,9.395c2.301-0.59,4.958-2.231,6.756-5.603C157.37,209.449,158.482,205.493,160.09,201.757
			L160.09,201.757z"/>
		<path id="path1536" class="st3" d="M161.729,201.754l-6.077-0.93c-1.099,5.163-1.855,8.655-2.068,10.499
			c-0.423,3.622,0.017,6.82,1.272,9.365c2.091-1.131,4.265-3.375,5.188-7.084C160.966,209.875,161.08,205.766,161.729,201.754
			L161.729,201.754z"/>
		<path id="path1538" class="st3" d="M162.626,193.479l3.623-0.027c2.118,1.051,4.338,5.873,1.771,10.529
			c-3.2,5.803-4.229,9.802-4.538,14.124c-3.546-3.285-5.201-7.077-3.962-11.243C161.19,201.246,162.815,194.789,162.626,193.479
			L162.626,193.479z"/>
		<path id="path1540" class="st3" d="M164.247,190.95l-5.794-2.058c-2.048,4.863-3.443,8.148-4.002,9.922
			c-1.095,3.479-1.265,6.7-0.509,9.435c2.264-0.714,5.134-2.198,6.733-5.67C162.283,199.095,162.855,194.772,164.247,190.95
			L164.247,190.95z"/>
		<path id="path1542" class="st3" d="M160.309,186.906l-1.269-7.884c-1.335-0.363-3.103,2.755-4.835,4.572
			c-0.396,0.42-0.856,0.814-1.205,1.327c-0.726,1.081-1.315,2.368-1.642,3.825c-1.448,6.47-3.559,9.835-6.189,13.277
			c4.831-0.1,8.577-1.841,10.408-5.779C158.048,190.928,159.3,187.763,160.309,186.906L160.309,186.906z"/>
		<path id="path1546" class="st4" d="M221.157,203.624c1.538,0.063,3.43,0.947,8.943,5.736c2.411,4.923,4.838,9.872,8.184,14.141
			c1.142,0.754,2.038,1.281,2.943,1.581c0.946,0.313,7.901,0.08,8.071-0.21c2.164-1.964,5.474-0.564,4.372,1.511
			c0.856,0.814-1.032,3.792-2.55,2.555c-1.395-1.134-6.243-0.063-7.861-0.65c0.613,1.457,4.994,2.405,8.058,2.628
			c2.8,0.12,2.614,2.918,1.458,5.059c-1.312,0.837-0.233-0.217-0.709,0.394c-1.255,1.861-3.936,1.617-4.026-0.2
			c-0.093-1.881-6.629-4.332-7.608-5.776c1.199,2.858,3.962,5.523,5.334,8.321c1.475,1.481,2.367,1.778,0.463,4.766
			c-2.111-0.243-2.238-0.804-3.536,0.427c-2.893-0.317-3.36-1.174-2.893-3.465c0.496-2.421-1.525-6.797-2.201-8.034
			c-0.619-1.141-0.772-2.325-1.375-3.042c-1.049-1.241-6.043-3.725-7.322-3.042c-2.354,1.254-4.152,0.497-4.448-1.788
			c0.759-0.587,0.19-3.832,1.818-3.969c1.332-0.11,2.124,0.3,3.346,1.301c1.928,1.574,2.917,2.415,3.553,2.238
			c1.502-0.414-2.724-2.488-6.569-7.537C221.274,209.571,220.911,206.02,221.157,203.624L221.157,203.624z"/>
		<path id="path1548" class="st5" d="M253.348,227.679c1.928-1.134,3.04-1.087,3.786-0.247c0.413,0.464,0.936,0.223,0.629-0.504
			c-1.282-3.035-3.33-3.412-5.164-1.991c-0.513,0.477-0.926,0.887-1.339,1.294C251.567,226.689,253.102,227.329,253.348,227.679
			L253.348,227.679z"/>
		<path id="path1550" class="st6" d="M225.725,224.954c-2.048-1.391-3.966-1.664-5.018-0.88c-0.579,0.43-1.149,0.12-0.639-0.594
			c2.121-2.992,4.612-3.145,6.49-1.457c0.506,0.554,0.916,1.024,1.319,1.494C227.233,224.224,225.815,225.018,225.725,224.954
			L225.725,224.954z"/>
		<path id="path1552" class="st7" d="M241.859,242.094c1.255,2.485,1.918,4.189,1.375,5.523c-0.32,0.78,0.04,1.497,0.829,0.817
			c3.2-2.748,3.21-5.9,1.162-8.041c-0.686-0.714-1.415-1.174-2.061-1.694C242.328,239.48,241.799,241.971,241.859,242.094
			L241.859,242.094z"/>
		<path id="path1554" class="st8" d="M249.844,235.546c1.901,0.79,2.557,1.791,2.487,3.105c-0.037,0.724,0.439,0.994,0.706,0.153
			c2.327-5.403-0.087-6.417-3.573-6.22C249.265,233.525,249.761,235.51,249.844,235.546L249.844,235.546z"/>
		<path id="path1560" class="st9" d="M233.462,223.513c1.252-0.727,1.329-1.538,0.999-2.081c-0.696-1.154-1.395-0.597-2.707,0.467"
			/>
		<path id="path1562" class="st9" d="M231.842,221.754c1.252-0.73,1.328-1.541,1.002-2.084c-0.699-1.151-1.398-0.597-2.71,0.467"/>
		<path id="path1564" class="st10" d="M230.019,220.077c1.382-0.947,1.465-2.001,1.102-2.711c-0.766-1.497-1.538-0.777-2.983,0.607"
			/>
		<path id="path1566" class="st11" d="M228.056,217.968c1.465-1.074,1.555-2.261,1.172-3.065c-0.816-1.694-1.635-0.877-3.17,0.687"
			/>
		<path id="path1568" class="st12" d="M225.991,215.731c1.365-1.137,1.791-2.265,1.172-3.255c-0.976-1.551-1.635-0.93-3.17,0.73"/>
		<path id="path1572" class="st3" d="M218.757,201.067l-0.186-5.246c2.108-1.067,7.299,0.03,9.49,4.873
			c2.73,6.04,5.317,9.255,8.594,12.087c-4.751,0.887-8.774-0.05-11.367-3.535C221.788,204.546,219.917,201.701,218.757,201.067
			L218.757,201.067z"/>
		<path id="path1574" class="st3" d="M214.893,201.754l5.667-2.388c2.324,4.739,3.906,7.938,4.565,9.676
			c1.292,3.408,1.645,6.62,1.046,9.395c-2.301-0.59-4.958-2.231-6.752-5.603C217.614,209.445,216.502,205.487,214.893,201.754
			L214.893,201.754z"/>
		<path id="path1576" class="st3" d="M213.264,201.751l6.077-0.93c1.099,5.163,1.855,8.655,2.068,10.499
			c0.423,3.622-0.017,6.82-1.272,9.365c-2.091-1.131-4.269-3.375-5.188-7.084C214.027,209.873,213.913,205.767,213.264,201.751
			L213.264,201.751z"/>
		<path id="path1578" class="st3" d="M212.355,193.476l-3.623-0.027c-2.114,1.051-4.338,5.873-1.771,10.529
			c3.2,5.803,4.229,9.802,4.538,14.127c3.546-3.285,5.201-7.08,3.962-11.246C213.79,201.243,212.165,194.786,212.355,193.476
			L212.355,193.476z"/>
		<path id="path1580" class="st3" d="M210.746,190.954l5.794-2.058c2.051,4.859,3.446,8.148,4.006,9.922
			c1.095,3.479,1.262,6.7,0.506,9.435c-2.264-0.717-5.131-2.198-6.733-5.67C212.71,199.095,212.137,194.773,210.746,190.954
			L210.746,190.954z"/>
		<path id="path1582" class="st3" d="M214.689,186.905l1.269-7.888c1.335-0.36,3.103,2.755,4.831,4.572
			c0.4,0.42,0.859,0.814,1.209,1.331c0.726,1.077,1.315,2.365,1.642,3.825c1.448,6.467,3.559,9.832,6.19,13.274
			c-4.831-0.1-8.577-1.841-10.408-5.779C216.95,190.928,215.698,187.759,214.689,186.905L214.689,186.905z"/>
		<path id="path1586" class="st26" d="M219.722,125.511v52.188c0,9.332-3.619,17.806-9.456,23.946
			c-5.837,6.137-13.894,9.945-22.768,9.945h-0.003c-8.873,0-16.928-3.809-22.765-9.945c-5.837-6.14-9.456-14.614-9.456-23.946
			v-52.188H219.722z"/>
		<path id="path1604" class="st27" d="M219.722,125.511v52.188c0,9.332-3.619,17.806-9.456,23.946
			c-5.837,6.137-13.894,9.945-22.768,9.945h-0.003c-8.873,0-16.928-3.809-22.765-9.945c-5.837-6.14-9.456-14.614-9.456-23.946
			v-52.188H219.722z"/>
		<path id="path1588" class="st28" d="M219.718,157.52v13.451h-25.512v39.875c-2.168,0.487-4.412,0.744-6.713,0.744h-0.003
			c-2.297,0-4.545-0.257-6.709-0.744V170.97h-25.512V157.52h25.512v-32.01h13.425v32.01H219.718z"/>
		<path id="path1590" class="st3" d="M176.428,133.144v18.907c-4.115,1.107-14.134,5.106-14.657-3.659
			c-0.24-4.052,5.021-6.724,6.44-3.145c0.669,1.694-0.06,2.892-1.049,3.282c-1.069,0.417-2.128-0.447-1.848-1.738
			c-4.259,2.231,3.809,6.964,7.448,0.804c1.062-1.798-1.788-3.665-1.791-4.996c-0.003-1.331,2.8-3.322,1.791-4.996
			c-3.686-6.13-11.707-1.427-7.448,0.8c-0.28-1.287,0.779-2.154,1.848-1.738c0.989,0.39,1.718,1.588,1.049,3.282
			c-1.418,3.579-6.679,0.907-6.44-3.145C162.294,128.041,172.313,132.037,176.428,133.144L176.428,133.144z"/>
		<path id="path1592" class="st3" d="M198.565,133.144v18.907c4.115,1.107,14.134,5.106,14.657-3.659
			c0.243-4.052-5.021-6.724-6.436-3.145c-0.676,1.694,0.057,2.892,1.046,3.282c1.069,0.417,2.131-0.447,1.848-1.738
			c4.259,2.231-3.806,6.964-7.448,0.804c-1.062-1.798,1.791-3.665,1.795-4.996c0.003-1.331-2.804-3.322-1.795-4.996
			c3.686-6.13,11.707-1.427,7.448,0.8c0.283-1.287-0.779-2.154-1.848-1.738c-0.989,0.39-1.721,1.588-1.046,3.282
			c1.415,3.579,6.679,0.907,6.436-3.145C212.699,128.041,202.68,132.037,198.565,133.144L198.565,133.144z"/>
		<path id="path1594" class="st3" d="M176.428,195.36v-18.91c-4.115-1.107-14.134-5.103-14.657,3.662
			c-0.24,4.052,5.021,6.724,6.44,3.145c0.669-1.694-0.06-2.895-1.049-3.282c-1.069-0.417-2.128,0.447-1.848,1.738
			c-4.259-2.228,3.809-6.964,7.448-0.804c1.062,1.794-1.788,3.665-1.791,4.996c-0.003,1.331,2.8,3.322,1.791,4.996
			c-3.686,6.133-11.707,1.427-7.448-0.8c-0.28,1.287,0.779,2.151,1.848,1.734c0.989-0.387,1.718-1.588,1.049-3.282
			c-1.418-3.579-6.679-0.904-6.44,3.145C162.294,200.466,172.313,196.467,176.428,195.36L176.428,195.36z"/>
		<path id="path1596" class="st3" d="M198.565,195.36v-18.91c4.115-1.107,14.134-5.103,14.657,3.662
			c0.243,4.052-5.021,6.724-6.436,3.145c-0.676-1.694,0.057-2.895,1.046-3.282c1.069-0.417,2.131,0.447,1.848,1.738
			c4.259-2.228-3.806-6.964-7.448-0.804c-1.062,1.794,1.791,3.665,1.795,4.996c0.003,1.331-2.804,3.322-1.795,4.996
			c3.686,6.133,11.707,1.427,7.448-0.8c0.283,1.287-0.779,2.151-1.848,1.734c-0.989-0.387-1.721-1.588-1.046-3.282
			c1.415-3.579,6.679-0.904,6.436,3.145C212.699,200.466,202.68,196.467,198.565,195.36L198.565,195.36z"/>
	</g>
</g>
</svg>
