<?xml version="1.0" encoding="utf-8"?>
<!-- Generator: Adobe Illustrator 25.0.1, SVG Export Plug-In . SVG Version: 6.00 Build 0)  -->
<svg version="1.1" id="Layer_1" xmlns="http://www.w3.org/2000/svg" xmlns:xlink="http://www.w3.org/1999/xlink" x="0px" y="0px"
	 viewBox="0 0 525 350" style="enable-background:new 0 0 525 350;" xml:space="preserve">
<style type="text/css">
	.st0{fill:#E21F26;}
	.st1{fill:#FFFFFF;}
</style>
<g id="Turkey">
	<path class="st0" d="M0,0h525v350H0V0z"/>
	<path class="st1" d="M243.542,175l79.147-25.713l-48.918,67.322v-83.218l48.918,67.322L243.542,175z M248.938,221.789
		c-25.841,40.836-79.893,52.991-120.728,27.15s-52.991-79.893-27.15-120.728s79.893-52.991,120.728-27.15
		c10.949,6.928,20.222,16.202,27.15,27.15c-25.841-28.755-70.1-31.117-98.854-5.276s-31.117,70.1-5.276,98.854
		s70.1,31.117,98.854,5.276C245.513,225.401,247.274,223.64,248.938,221.789z"/>
</g>
</svg>
