<?xml version="1.0" encoding="utf-8"?>
<!-- Generator: Adobe Illustrator 25.0.1, SVG Export Plug-In . SVG Version: 6.00 Build 0)  -->
<svg version="1.1" id="Layer_1" xmlns="http://www.w3.org/2000/svg" xmlns:xlink="http://www.w3.org/1999/xlink" x="0px" y="0px"
	 viewBox="0 0 525 350" style="enable-background:new 0 0 525 350;" xml:space="preserve">
<style type="text/css">
	.st0{fill:#FFFFFF;}
	.st1{fill:#263779;}
	.st2{fill:#CE2027;}
	.st3{fill:#FEDB46;}
	.st4{fill:#333333;}
</style>
<g id="United">
	
		<rect x="87.5" y="-87.5" transform="matrix(-1.836970e-16 1 -1 -1.836970e-16 437.5 -87.5)" class="st0" width="350" height="525"/>
	<rect x="262.5" class="st1" width="262.5" height="175"/>
	<rect y="175" class="st1" width="262.5" height="175"/>
	<rect x="262.5" y="240.626" class="st2" width="262.5" height="43.748"/>
	
		<rect x="306.25" y="240.626" transform="matrix(-1.836970e-16 1 -1 -1.836970e-16 656.25 -131.25)" class="st2" width="175" height="43.748"/>
	<rect y="65.626" class="st2" width="262.5" height="43.748"/>
	
		<rect x="43.75" y="65.626" transform="matrix(-1.836970e-16 1 -1 -1.836970e-16 218.75 -43.75)" class="st2" width="175" height="43.748"/>
	<polygon class="st0" points="393.75,113.79 485.566,175 525,175 525,148.71 433.185,87.5 525,26.29 525,0 485.566,0 393.75,61.21 
		301.935,0 262.5,0 262.5,26.29 354.316,87.5 262.5,148.71 262.5,175 301.935,175 	"/>
	<g>
		<g>
			<path class="st3" d="M145.922,216.522c9.462-2.502,33.485,2.886,31.775-8.275l6.559,0.656
				C181.379,222.526,159.304,219.271,145.922,216.522z"/>
			<path class="st4" d="M165.484,219.266c-7.642,0-15.554-1.626-19.62-2.461l-1.203-0.247l1.187-0.314
				c3.09-0.817,7.626-0.802,12.427-0.788c7.574,0.022,15.408,0.047,18.186-3.179c0.892-1.036,1.203-2.34,0.951-3.986l-0.056-0.367
				l7.249,0.724l-0.066,0.315C182.824,217.083,174.336,219.266,165.484,219.266z M147.327,216.515
				c9.662,1.952,33.352,6.141,36.577-7.358l-5.874-0.587c0.175,1.635-0.205,3.007-1.131,4.082
				c-2.952,3.427-10.919,3.402-18.625,3.38C154.168,216.016,150.26,216.006,147.327,216.515z"/>
		</g>
		<g>
			<path class="st3" d="M180.003,210.748l-5.388-1.012c-1.248-0.738-1.784-4.335,0.796-5.126l6.475-0.394L180.003,210.748z"/>
			<path class="st4" d="M180.207,211.08l-5.739-1.095c-0.8-0.473-1.307-1.854-1.153-3.144c0.148-1.246,0.881-2.159,2.012-2.505
				l0.067-0.012l6.883-0.418L180.207,211.08z M174.722,209.463l5.077,0.953l1.697-5.886l-6.032,0.366
				c-1.209,0.387-1.507,1.425-1.576,2.013C173.754,208.033,174.205,209.118,174.722,209.463z"/>
		</g>
		<g>
			<path class="st3" d="M138.443,328.918c1.72-0.271,3.576-1.654,5.899-4.988c1.685-2.419,1.709-3.52,3.632-6.317
				c1.116-1.623,2.848-2.95,5.392-3.635l31.88-103.46l-4.407,3.393L138.443,328.918z"/>
			<path class="st4" d="M138.002,329.28l0.17-0.461l42.426-115.086l5.191-3.997l-32.194,104.479l-0.153,0.041
				c-2.287,0.616-4.046,1.801-5.229,3.521c-0.974,1.415-1.454,2.39-1.918,3.333c-0.453,0.919-0.881,1.788-1.716,2.986
				c-2.215,3.179-4.15,4.802-6.091,5.109L138.002,329.28z M181.081,214.089l-42.185,114.433c1.618-0.47,3.288-2,5.209-4.757
				c0.809-1.161,1.228-2.011,1.671-2.91c0.474-0.961,0.963-1.955,1.96-3.405c1.236-1.797,3.052-3.044,5.4-3.708L184.704,211.3
				L181.081,214.089z"/>
		</g>
		<g>
			<path class="st3" d="M177.243,216.527l-40.581,90.535c1.295,2.168,1.749,5.424,1.813,9.184l2.02,10.049l1.698-2.579
				c1.621-2.462,2.045-5.75,3.968-8.546c1.116-1.623,2.747-3.074,5.436-4.084l31.351-98.584L177.243,216.527z"/>
			<path class="st4" d="M140.351,327.039l-2.164-10.789c-0.072-4.265-0.635-7.137-1.772-9.041l-0.077-0.129l0.061-0.137
				l40.614-90.606l0.065-0.046l6.407-4.52l-31.654,99.535l-0.131,0.049c-2.327,0.874-4.061,2.174-5.3,3.977
				c-0.995,1.447-1.586,3.041-2.157,4.583c-0.527,1.423-1.025,2.768-1.808,3.958L140.351,327.039z M138.763,316.214l1.877,9.337
				l1.313-1.994c0.747-1.135,1.234-2.45,1.749-3.841c0.583-1.575,1.187-3.204,2.222-4.71c1.285-1.869,3.066-3.224,5.442-4.14
				l31.049-97.634l-4.94,3.485l-40.488,90.328C138.123,309.032,138.688,311.953,138.763,316.214z"/>
		</g>
		<g>
			<path class="st3" d="M139.827,321.045l41.997-107.998l-2.434,2.278l-41.935,101.071L139.827,321.045z"/>
			<path class="st4" d="M139.862,321.749l-2.724-5.341l0.051-0.123l41.959-101.128l3.404-3.186L139.862,321.749z M137.772,316.383
				l2.019,3.958l41.305-106.218l-1.464,1.37L137.772,316.383z"/>
		</g>
		<g>
			<path class="st0" d="M172.525,217.486l-1.954,0.212l1.693,15.573c0.951,1.244,1.688,0.222,1.954-0.212L172.525,217.486z
				 M166.206,219.635l-1.921,0.215l2.868,25.246c0.801,0.95,1.413,0.615,1.954-0.212L166.206,219.635z M159.014,222.036
				l-1.921,0.215l4.259,37.458c0.597,0.478,1.188,1.005,1.954-0.212L159.014,222.036z M151.909,225.259l-1.921,0.215l5.562,48.847
				c0.51,0.308,1.044,1.277,1.954-0.212L151.909,225.259z M144.737,227.798l-1.921,0.215l6.932,60.921
				c0.559,0.337,1.024,1.082,1.954-0.212L144.737,227.798z M137.169,230.907l-1.921,0.215l8.484,74.573
				c0.599,0.453,1.186,1.023,1.954-0.212L137.169,230.907z M127.872,232.301l-1.921,0.215l11.509,86.728l1.954-0.212
				L127.872,232.301z"/>
			<path class="st4" d="M137.212,319.561l-0.037-0.279l-11.548-87.02l2.494-0.279l0.037,0.28l11.582,87.025L137.212,319.561z
				 M126.276,232.769l11.433,86.158l1.381-0.15l-11.467-86.159L126.276,232.769z M144.741,306.518c-0.412,0-0.762-0.269-1.075-0.51
				l-0.206-0.157l-0.014-0.123l-8.516-74.86l2.494-0.279l0.033,0.286l8.529,74.676l-0.053,0.085c-0.321,0.517-0.655,0.8-1.021,0.867
				C144.853,306.513,144.796,306.518,144.741,306.518z M144.005,305.541l0.013,0.01c0.285,0.219,0.554,0.427,0.79,0.384
				c0.179-0.033,0.374-0.208,0.581-0.521l-8.473-74.189l-1.347,0.151L144.005,305.541z M150.723,289.743
				c-0.354,0-0.639-0.212-0.873-0.387c-0.083-0.062-0.166-0.124-0.251-0.175l-0.121-0.073l-6.981-61.349l2.494-0.279l7.011,61.321
				l-0.065,0.09c-0.373,0.518-0.714,0.786-1.076,0.842C150.814,289.739,150.768,289.743,150.723,289.743z M150.02,288.766
				c0.059,0.041,0.117,0.084,0.176,0.128c0.247,0.184,0.41,0.293,0.578,0.268c0.174-0.027,0.391-0.206,0.63-0.52l-6.92-60.526
				l-1.348,0.151L150.02,288.766z M156.55,275.205c-0.368,0-0.656-0.241-0.892-0.439c-0.088-0.074-0.172-0.146-0.256-0.197
				l-0.122-0.074l-5.611-49.275l2.493-0.279l5.639,49.234l-0.052,0.085c-0.352,0.576-0.689,0.873-1.061,0.933
				C156.641,275.201,156.595,275.205,156.55,275.205z M155.822,274.157c0.068,0.051,0.137,0.108,0.207,0.166
				c0.202,0.169,0.391,0.333,0.568,0.301c0.122-0.02,0.325-0.139,0.61-0.582l-5.551-48.464l-1.348,0.151L155.822,274.157z
				 M162.349,260.532c-0.434,0-0.801-0.296-1.13-0.56l-0.141-0.113l-4.305-37.862l2.494-0.279l4.336,37.848l-0.054,0.086
				c-0.329,0.522-0.67,0.806-1.042,0.869C162.454,260.528,162.401,260.532,162.349,260.532z M161.624,259.558
				c0.284,0.228,0.548,0.432,0.788,0.393c0.183-0.031,0.383-0.207,0.595-0.524l-4.248-37.073l-1.348,0.151L161.624,259.558z
				 M168.08,245.96c-0.387,0-0.763-0.223-1.148-0.678l-0.056-0.067l-2.911-25.62l2.494-0.279l2.946,25.639l-0.057,0.087
				c-0.386,0.591-0.781,0.89-1.207,0.916C168.121,245.96,168.101,245.96,168.08,245.96z M167.429,244.974
				c0.253,0.283,0.482,0.422,0.678,0.408c0.212-0.013,0.448-0.205,0.702-0.571l-2.857-24.858l-1.348,0.151L167.429,244.974z
				 M173.178,234.155c-0.399,0-0.784-0.238-1.144-0.709l-0.049-0.064l-1.733-15.94l2.527-0.274l1.735,15.958l-0.051,0.084
				c-0.37,0.603-0.785,0.921-1.233,0.944C173.213,234.154,173.196,234.155,173.178,234.155z M172.541,233.158
				c0.173,0.211,0.413,0.423,0.659,0.42c0.161-0.009,0.413-0.12,0.72-0.588l-1.652-15.187l-1.381,0.15L172.541,233.158z"/>
		</g>
		<g>
			<path class="st3" d="M130.188,234.867c8.791-6.314,14.42-1.803,22.432-4.698c4.702-1.699,11.472-7.431,11.472-7.431
				l-13.312,2.309l-27.022,0.806L130.188,234.867z"/>
			<path class="st4" d="M130.121,235.27l-6.912-9.69l27.562-0.823l14.316-2.485l-0.809,0.685c-0.278,0.235-6.863,5.785-11.56,7.482
				c-3.306,1.195-6.232,1.147-9.062,1.102c-4.193-0.069-8.159-0.132-13.3,3.56L130.121,235.27z M124.306,226.125l5.95,8.341
				c5.186-3.634,9.365-3.566,13.41-3.501c2.779,0.044,5.651,0.091,8.856-1.067c3.631-1.312,8.582-5.117,10.539-6.688l-12.231,2.121
				L124.306,226.125z"/>
		</g>
		<g>
			<path class="st3" d="M125.097,231.788c0,0,4.818-1.671,8.162-2.53c13.354-3.431,19.826,2.655,28.627-1.853
				c4.45-2.28,8.824-7.635,8.824-7.635l-13.403,1.702l-27.031-0.421l-8.568,6.596L125.097,231.788z"/>
			<path class="st4" d="M125.001,232.127l-3.704-4.527l8.884-6.839l0.101,0.001l27.031,0.421l14.078-1.791l-0.457,0.559
				c-0.18,0.221-4.464,5.429-8.916,7.71c-4.588,2.35-8.533,1.873-13.1,1.321c-4.279-0.518-9.128-1.105-15.587,0.555
				c-3.294,0.846-8.091,2.507-8.139,2.524L125.001,232.127z M122.12,227.695l3.073,3.756c0.929-0.318,5.052-1.716,7.994-2.472
				c6.564-1.686,11.471-1.093,15.8-0.569c4.474,0.541,8.336,1.009,12.768-1.262c3.5-1.793,7.001-5.57,8.252-6.998l-12.662,1.608
				l-26.971-0.417L122.12,227.695z"/>
		</g>
		<g>
			<path class="st3" d="M122.569,299.591c-8.04-8.921-10.54-15.87-12.877-23.386c1.2-0.971,1.78-2.1,2.027-3.191l-16.155-3.137
				C96.737,278.48,106.19,294.838,122.569,299.591L122.569,299.591z"/>
			<path class="st4" d="M123.461,300.15l-0.972-0.282c-17.018-4.938-26.119-21.945-27.21-29.953l-0.054-0.398l16.842,3.271
				l-0.066,0.29c-0.286,1.264-0.95,2.348-1.975,3.226c2.418,7.756,4.931,14.409,12.759,23.094L123.461,300.15z M95.91,270.237
				c1.287,7.87,9.9,23.646,25.76,28.776c-7.43-8.466-9.868-15.05-12.253-22.723l-0.058-0.187l0.152-0.123
				c0.926-0.749,1.548-1.671,1.853-2.742L95.91,270.237z"/>
		</g>
		<g>
			<path class="st3" d="M125.247,228.761c0,0,6.372-2.839,9.773-3.434c10.147-1.774,21.543,2.219,31.519-0.347
				c4.842-1.245,8.584-6.747,8.584-6.747l-13.403,1.702l-28.974-2.288l-10.18,7.5L125.247,228.761z"/>
			<path class="st4" d="M125.153,229.119l-2.991-4.033l10.499-7.735l0.107,0.009l28.944,2.286l14.008-1.779l-0.36,0.529
				c-0.155,0.229-3.859,5.606-8.75,6.864c-5.356,1.378-11.187,0.876-16.826,0.39c-4.918-0.423-10.004-0.862-14.715-0.038
				c-3.327,0.581-9.642,3.385-9.706,3.413L125.153,229.119z M122.97,225.208l2.371,3.197c1.151-0.504,6.541-2.821,9.629-3.361
				c4.785-0.836,9.909-0.395,14.864,0.031c5.591,0.481,11.372,0.979,16.633-0.374c3.798-0.977,6.952-4.7,8.024-6.097l-12.765,1.621
				l-0.03-0.002l-28.867-2.28L122.97,225.208z"/>
		</g>
		<g>
			<path class="st3" d="M182.44,210.044c0,0-0.251,2.488-3.642,4.433c-10.419,5.979-31.772-1.812-44.888,1.11
				c-11.474,2.556-11.479,10.846-11.479,10.846s6.461-5.637,14.947-5.542c13.884,0.155,32.617,3.689,44.033-3.754
				c3.609-2.353,4.892-7.347,4.892-7.347s0.256-2.039-0.19-2.898c-1.002-1.93-2.288-2.609-3.988-2.762
				c-1.305-0.117-2.486,0.062-3.386,1.225c-0.844,1.091-1.202,2.987-0.412,4.117C179.661,211.381,181.695,210.986,182.44,210.044
				L182.44,210.044z"/>
			<path class="st4" d="M122.143,227.068l0-0.634c0-0.086,0.139-8.551,11.705-11.128c5.794-1.29,13.255-0.5,20.471,0.265
				c9.127,0.968,18.564,1.969,24.336-1.344c2.038-1.17,2.898-2.546,3.254-3.399c-0.391,0.197-0.849,0.301-1.314,0.287
				c-0.968-0.029-1.857-0.553-2.503-1.477c-0.888-1.271-0.474-3.304,0.42-4.459c1.067-1.378,2.506-1.436,3.639-1.336
				c1.988,0.178,3.249,1.05,4.218,2.916c0.474,0.912,0.248,2.849,0.22,3.066c-0.06,0.244-1.361,5.166-5.021,7.552
				c-8.911,5.81-22.333,4.987-34.174,4.258c-3.54-0.217-6.883-0.423-10.019-0.458c-0.069-0.001-0.138-0.001-0.207-0.001
				c-8.173,0-14.484,5.417-14.547,5.472L122.143,227.068z M141.173,215.197c-2.578,0-5.015,0.185-7.2,0.672
				c-9.378,2.089-10.942,7.957-11.202,9.924c1.728-1.321,7.485-5.285,14.61-5.19c3.15,0.035,6.501,0.241,10.048,0.459
				c11.753,0.722,25.073,1.54,33.824-4.166c3.47-2.262,4.758-7.128,4.771-7.177c0.061-0.507,0.165-2.055-0.167-2.693
				c-0.878-1.691-1.967-2.447-3.758-2.607c-1.489-0.136-2.424,0.199-3.132,1.114c-0.772,0.998-1.118,2.753-0.404,3.775
				c0.691,0.988,1.495,1.215,2.048,1.231c0.634,0.031,1.264-0.245,1.602-0.673l0.612-0.774l-0.099,0.982
				c-0.011,0.108-0.306,2.658-3.785,4.655c-5.934,3.405-15.465,2.394-24.683,1.417C149.836,215.676,145.322,215.197,141.173,215.197
				z"/>
		</g>
		<g>
			<path class="st3" d="M110.211,245.075c-0.285,1.425,1.161,4.373,2.688,4.597c1.656-0.445,2.397-2.232,2.292-3.508
				c0.122,1.371,1.5,3.299,3.034,3.13c1.49-0.849,1.755-2.765,1.356-3.915c0.625,1.303,2.587,2.631,3.967,1.939
				c1.102-1.315,0.683-3.203-0.07-4.178c0.835,1.146,2.981,2.152,4.235,1.252c0.883-1.471,0.174-3.27-0.689-4.071
				c1.255,0.802,3.621,0.932,4.448-0.371c0.269-1.694-1.062-3.098-2.142-3.507c1.462,0.368,3.746-0.263,4.114-1.761
				c-0.285-1.691-1.993-2.599-3.136-2.574c1.478-0.329,3.149-2.009,2.726-3.493c-1.086-1.327-3.02-1.268-4.042-0.771
				c1.365-0.648,2.782-2.547,2.154-3.956c-1.263-1.161-3.168-0.829-4.102-0.068c0,0,0.216-1.202,0.749-1.662
				c4-3.458,10.571-2.96,15.172-5.566c3.124-1.724,4.293-3.399,4.742-6.946c0,0-1.856,1.76-3.028,2.171
				c-8.921,3.123-18.13,1.804-25.445,7.125c-2.231,1.663-5.465,6.311-5.465,6.311s7.138,0.834,9.339,3.295
				c1.391,1.556,2.045,4.11,1.414,6.1c-0.751,2.364-3.244,4.049-5.554,4.954c-2.657,1.041-8.56,0.156-8.56,0.156L110.211,245.075z"
				/>
			<path class="st4" d="M112.917,249.966l-0.059-0.009c-0.632-0.093-1.294-0.589-1.862-1.396c-0.794-1.127-1.242-2.602-1.071-3.519
				l0.206-5.621l0.319,0.048c0.058,0.009,5.858,0.86,8.412-0.14c1.329-0.521,4.513-2.027,5.385-4.772
				c0.585-1.842,0.015-4.29-1.354-5.821c-2.102-2.351-9.087-3.192-9.158-3.2l-0.478-0.056l0.275-0.395
				c0.133-0.192,3.287-4.706,5.53-6.378c4.5-3.273,9.627-4.054,15.055-4.882c3.435-0.524,6.987-1.065,10.468-2.284
				c1.1-0.385,2.906-2.091,2.924-2.108l0.586-0.555l-0.101,0.801c-0.459,3.633-1.647,5.373-4.888,7.162
				c-2.053,1.163-4.511,1.722-6.888,2.263c-2.972,0.676-6.045,1.375-8.235,3.269c-0.199,0.172-0.356,0.499-0.467,0.813
				c1.147-0.541,2.728-0.524,3.828,0.486l0.068,0.095c0.52,1.168-0.147,2.533-1.089,3.465c1.016-0.052,2.159,0.248,2.936,1.198
				l0.054,0.104c0.172,0.604,0.058,1.269-0.33,1.92c-0.372,0.624-0.965,1.179-1.619,1.545c1.048,0.359,2.132,1.247,2.365,2.633
				l0.01,0.059l-0.014,0.058c-0.144,0.586-0.55,1.094-1.173,1.469c-0.591,0.355-1.337,0.567-2.068,0.608
				c0.807,0.707,1.483,1.843,1.273,3.168l-0.041,0.109c-0.323,0.509-0.869,0.862-1.579,1.02c-0.694,0.154-1.498,0.111-2.22-0.098
				c0.529,0.969,0.765,2.313,0.044,3.513l-0.079,0.086c-1.017,0.73-2.451,0.386-3.523-0.303c0.272,1.005,0.216,2.219-0.589,3.18
				l-0.092,0.073c-0.547,0.274-1.206,0.293-1.906,0.054c-0.623-0.213-1.247-0.629-1.734-1.13c-0.02,1.161-0.552,2.409-1.668,3.045
				l-0.111,0.036c-0.611,0.066-1.241-0.147-1.819-0.621c-0.449-0.367-0.841-0.876-1.118-1.421c-0.331,1.088-1.136,2.087-2.345,2.412
				L112.917,249.966z M110.683,240.084l-0.188,5.048c-0.153,0.762,0.266,2.094,0.973,3.098c0.458,0.649,0.959,1.054,1.417,1.148
				c1.519-0.448,2.105-2.158,2.02-3.19l0.574-0.049c0.072,0.807,0.629,1.806,1.324,2.375c0.307,0.252,0.785,0.532,1.332,0.499
				c1.355-0.815,1.505-2.585,1.173-3.539l0.532-0.219c0.374,0.779,1.244,1.531,2.117,1.829c0.371,0.127,0.91,0.227,1.408,0.002
				c0.958-1.199,0.547-2.86-0.073-3.713c-0.016-0.021-0.032-0.042-0.047-0.063l0.461-0.346c0.015,0.02,0.03,0.04,0.046,0.061
				c0.759,0.982,2.643,1.889,3.744,1.167c0.771-1.357,0.064-2.979-0.669-3.659l0.351-0.454c0.761,0.486,1.925,0.683,2.832,0.483
				c0.375-0.083,0.878-0.275,1.185-0.717c0.209-1.549-1.042-2.781-1.968-3.132l0.172-0.549c0.883,0.221,2.056,0.043,2.854-0.438
				c0.329-0.198,0.745-0.54,0.895-1.056c-0.289-1.498-1.859-2.316-2.834-2.274l-0.069-0.57c0.848-0.188,1.769-0.873,2.24-1.665
				c0.206-0.345,0.417-0.865,0.286-1.411c-0.994-1.157-2.737-1.081-3.634-0.657c-0.007,0.003-0.015,0.007-0.022,0.011l-0.25-0.52
				c0.008-0.004,0.015-0.008,0.022-0.011c1.178-0.571,2.512-2.27,2.017-3.515c-1.163-1.02-2.877-0.67-3.68-0.016l-0.604,0.492
				l0.138-0.767c0.024-0.133,0.252-1.317,0.844-1.829c2.299-1.988,5.443-2.703,8.484-3.395c2.336-0.532,4.752-1.081,6.734-2.204
				c2.806-1.549,3.976-3.057,4.48-5.947c-0.66,0.568-1.729,1.414-2.529,1.695c-3.532,1.236-7.111,1.782-10.572,2.31
				c-5.356,0.816-10.416,1.587-14.8,4.776c-1.793,1.336-4.296,4.709-5.122,5.855c1.663,0.237,7.106,1.161,9.042,3.325
				c1.496,1.673,2.116,4.356,1.473,6.379c-0.946,2.982-4.318,4.584-5.724,5.134C116.701,240.795,111.966,240.255,110.683,240.084z"
				/>
		</g>
		<g>
			<path class="st3" d="M134.088,320.251c-2.443-1.717-4.934,0.119-5.6,2.079c-0.789,2.322,0.597,5.714,3.12,4.829"/>
			<path class="st4" d="M130.812,327.591c-0.621,0-1.196-0.242-1.674-0.715c-1.066-1.056-1.463-3.05-0.923-4.638
				c0.436-1.284,1.522-2.375,2.765-2.781c0.773-0.251,1.968-0.36,3.274,0.558l-0.332,0.471c-0.879-0.618-1.835-0.786-2.763-0.482
				c-1.06,0.346-2.024,1.317-2.398,2.418c-0.466,1.371-0.122,3.147,0.783,4.043c0.378,0.374,1.027,0.751,1.969,0.422l0.191,0.544
				C131.401,327.538,131.102,327.591,130.812,327.591z"/>
		</g>
		<path class="st3" d="M95.487,212.633c-2.308-0.196-4.897,0.288-7.105,1.867c-1.914,1.72-2.121,3.673-2.112,6.198
			c0.074,0.317,0.333,0.64,0.648,0.98c-0.881,1.792-1.737,4.016-1.504,4.869c0.213,0.416,1.225,0.164,1.914,0.191
			c0.178,0.218-0.022,1.035-0.091,1.585c-0.045,0.362,1.098,0.211,1.098,0.211c0.001,0.192-0.704,0.626-0.672,0.95
			c0.042,0.422,0.866,0.833,0.866,0.833l0.524,2.223c1.94,0.453,4.267-0.045,5.003-0.517c0.098,1.531-0.232,2.017,0.551,5.345
			c-0.353,0.51-0.726,0.919-0.782,2.058c-2.507,2.324-3.378,4.819-4.022,7.33c-2.411,1.424-4.981,4.336-5.382,6.685
			c-1.179,0.681-0.939,1.624,0.188,1.85c0.516,1.399,1.922,2.893,4.748,3.73c2.372,12.697,6.971,21.795,12.427,28.677
			c14.31,18.05,35.119,21.74,36.317,33.948c-2.64-2.416-4.984-1.382-6.017-0.195c-1.87,2.15-1.523,4.696-0.131,6.396
			c1.457,1.779,4.428,2.574,6.779,1.051c1.671-1.083,2.727-3.122,2.83-5.245c0.225-4.611-2.793-10.593-6.608-12.937
			c0.29-0.546,1.857,0.721,3.163,0.248c-2.293-4.01-4.871-2.274-5.265-3.646c0.857,0.044,1.541,0.107,2.397-0.574
			c-2.653-3.938-7.16-3.355-10.768-4.909c0.499-0.777,5.817,1.638,5.909-3.818c-2.348,2.504-2.781-0.729-4.926,0.423
			c0.002-0.762,1.504-0.657,1.699-1.729c-1.58-0.011-3.073-0.918-4.352-1.249c-1.023-0.264-3.123,0.366-3.123,0.366
			s-0.66-0.833-1.135-0.86c-1.378-0.077-2.739-0.245-3.996-0.739c-2.761-1.086-4.99-3.126-5.775-4.647
			c6.841,3.939,9.538,3.202,10.382,3.005c-0.724-0.837-2.177-2.171-1.867-2.696c0,0,1.283,1.102,2.078,1.259
			c0.952,0.188,1.956-0.812,2.861-0.46c0.783,0.304,1.344,1.178,1.565,1.988c0.154,0.563-0.496,1.214-0.242,1.739
			c0.26,0.537,1.538,0.9,1.538,0.9s-0.566-0.834-0.547-1.309c0.026-0.673,0.882-1.135,0.927-1.806
			c0.076-1.153-0.424-2.386-1.202-3.24c-1.488-1.635-2.753-1.727-4.845-1.061c-0.947-0.86,1.107-0.873,1.766-1.383
			c0,0-1.27-1.126-2.243-1.309c-1.927-0.364-4.277,0.766-6.228,0.564c-5.955-0.615-7.555-4.146-7.555-4.146
			c4.177,2.514,7.651,3.185,9.683,0.154c-1.071-0.669-2.237-1.081-3.663-0.671c1.174-1.094,0.848-1.909,0.269-2.686
			c-5.959,3.947-10.987-2.733-11.594-4.449c5.356,3.424,7.895,3.168,10.436,2.468c2.652-0.731,4.699-1.316,6.437-0.611
			c1.117,0.453,1.706,2.511-0.517,2.458c1.357,1.462,2.601,1.199,3.22,0.356c0.591-0.804,0.592-2.124-0.416-2.958
			c1.481,0.278,1.495-0.795,2.998-0.48c-1.059-3.127-2.785-3.668-5.581-3.542c3.408-2.099,6.379-4.157,3.126-9.895
			c-0.75,4.276-5.158,5.75-5.708,5.534c3.172-2.598,0.587-3.602,1.118-7.451c-1.602,0.232-1.287,1.166-1.414,1.927
			c-1.203-1.698-3.561-1.974-4.237-0.356c1.587,0.263,2.244,1.002,2.273,2.703c0.018,1.087-0.457,1.94-1.336,2.512
			c-1.708-1.891-3.36-3.708-3.603-6.702c-0.342-4.224,0.926-6.742,1.961-9.774l2.353-6.92c0.098-0.286,0.181-0.582,0.255-0.856
			c0.082-0.004,0.119-0.009,0.205-0.013c0.82,1.819,1.717,1.98,2.565-0.218c1.806,2.364,2.57,1.571,2.935-0.521
			c3.006,2.896,2.541,0.183,3.045-0.95c1.629,1.099,3.246,2.24,2.72-1.424c2.202,1.104,3.139,0.689,2.075-2.099
			c2.877-0.133,2.963-1.161,1.098-2.841c1.605-1.049,3.089-1.924,0.033-3.388c1.483-1.582,2.118-2.503-0.927-2.602
			c1.675-2.058,0.151-2.223-1.575-1.887c0.806-2.584-0.807-1.639-1.937-1.313c0.207-1.327-0.301-1.94-1.988-0.809
			c0.095-1.63-1.152-1.641-2.324-0.504c-0.527-0.099-0.454-0.113-0.766-0.144s-0.473-0.013-0.473-0.013l-3.112,3.996
			c0,0,3.408-0.235,5.036,0.164c2.948,0.722,5.297,2.596,3.949,5.956c-0.784,1.953-3.566,2.779-5.671,2.79
			c-1.958,0.01-4.006-2.37-5.963-2.427c-1.273-0.037-2.235,0.342-2.931,0.826c-1.501-0.494-3.125-0.849-4.039-1.998
			c-1.976-2.483-1.31-5.557-1.31-5.557c1.397-5.018,1.197-10.276-1.041-12.652C99.821,213.685,97.795,212.829,95.487,212.633z"/>
		<path class="st4" d="M89.655,219.748c-0.789-0.107-1.664,0.019-2.377,0.712c0.453,1.068,0.523-1.318,4.325,0.5
			C91.15,220.226,90.443,219.855,89.655,219.748z M88.723,221.657c-0.936,0.304-1.297,0.286-1.297,0.286
			c0.174,0.184,0.576,0.473,1.205,0.246c0.064,0.343,0.092,0.733,0.504,1.068l0.064,0.04l0.101,0.01
			c0.591,0.009,1.313-0.177,2.058-0.913l0.265-0.279C90.505,221.573,89.625,221.363,88.723,221.657L88.723,221.657z M89.96,222.119
			c0.266,0.035,0.504,0.078,0.695,0.171c-0.316,0.333-0.896,0.501-1.269,0.484c-0.175-0.182-0.236-0.462-0.272-0.672
			C89.401,222.079,89.694,222.084,89.96,222.119L89.96,222.119z M98.134,258.069c-1.517,0.28-3.068-0.074-4.012-0.571
			c-0.776-0.408-1.755-1.282-2.391-2.545c-0.636-1.263-0.94-2.914-0.603-4.994c-0.867,2.054-0.551,3.847,0.14,5.219
			c0.691,1.373,1.714,2.337,2.602,2.804c1.063,0.559,2.691,0.91,4.348,0.604c0.973-0.18,1.958-0.593,2.814-1.346
			c0.072,0.6,0.318,1.051,0.604,1.417c0.382,0.488,0.817,0.866,1.074,1.464c0.28,0.652,0.321,1.394,0.47,2.082
			c0.109,0.505,0.371,0.94,0.786,1.299c-0.608,0.282-1.195,0.528-1.8,0.363c-0.756-0.207-1.629-0.874-2.612-2.364
			c-0.059-0.09-0.112-0.234-0.201-0.359c-0.09-0.126-0.222-0.242-0.41-0.312l-0.393-0.141l0.027,0.41
			c0.412,4.528,3.792,6.981,6.699,7.283c2.267,0.235,4.98-0.567,6.107-2.408l-0.48-0.285c-0.957,1.562-3.48,2.373-5.574,2.156
			c-2.392-0.249-5.093-2.183-5.91-5.678c0.901,1.249,1.749,1.995,2.592,2.226c0.94,0.257,1.823-0.033,2.663-0.514l0.47-0.292
			l-0.487-0.218c-0.625-0.255-0.822-0.659-0.957-1.283s-0.165-1.421-0.494-2.186c-0.308-0.715-0.789-1.134-1.132-1.571
			c-0.332-0.424-0.552-0.859-0.514-1.645c0.386-0.437,0.74-0.948,0.794-1.667C101.139,256.903,99.651,257.789,98.134,258.069z
			 M96.72,252.535l-0.282,0.107c-0.284,0.124,0.192,0.594-0.547,1.064c-0.069,0.044-0.264,0.054-0.44-0.01
			c-0.175-0.064-0.347-0.397-0.645-0.336l-0.312,0.07c0.184,0.397,0.474,0.646,0.772,0.755c0.299,0.11,0.585,0.099,0.813,0.013
			C96.578,254.011,96.984,253.363,96.72,252.535L96.72,252.535z M95.743,261.967c0.362,2.474,1.735,4.804,3.895,6.494
			c2.16,1.69,5.12,2.758,8.955,2.353c-3.742-0.143-6.583-1.156-8.643-2.763S96.599,264.223,95.743,261.967z M97.859,268.622
			c1.215,1.974,3.884,3.549,6.977,4.157s6.621,0.245,9.536-2.099c-3.071,1.781-6.437,2.153-9.415,1.568
			C101.979,271.663,99.403,270.126,97.859,268.622z M101.237,281.303c2.2,2.725,4.708,4.782,7.397,6.064
			c2.689,1.282,5.562,1.772,8.616,0.997c-3.027,0.239-5.788-0.236-8.398-1.484C106.243,285.632,103.783,283.627,101.237,281.303z
			 M134.129,323.931c-0.135,0.247-0.157,0.626-0.077,0.907c0.08,0.28,0.233,0.577,0.46,0.826c0.453,0.498,1.21,0.848,2.109,0.618
			c0.932-0.239,1.56-0.892,1.837-1.749c0.277-0.858,0.211-1.909-0.108-2.995h0l-0.524,0.151c0.295,1.008,0.339,1.938,0.108,2.656
			s-0.702,1.219-1.464,1.414c-0.705,0.181-1.237-0.085-1.581-0.463c-0.172-0.189-0.292-0.422-0.346-0.611
			c-0.054-0.19-0.009-0.303,0.003-0.373c0.107-0.59,0.198-0.593,0.63-0.821C134.819,323.346,134.405,323.426,134.129,323.931
			L134.129,323.931z"/>
		<path class="st4" d="M135.989,330.006c-1.696,0-3.296-0.799-4.258-1.974c-1.286-1.571-2.022-4.287,0.136-6.769
			c0.332-0.382,1.267-1.28,2.76-1.365c1.044-0.062,2.081,0.295,3.092,1.055c-1.005-5.976-7.001-9.906-14.515-14.832
			c-7.01-4.595-14.955-9.803-21.646-18.243c-6.223-7.85-10.297-17.217-12.453-28.631c-3.131-0.975-4.288-2.68-4.71-3.709
			c-0.575-0.157-0.956-0.503-1.028-0.947c-0.078-0.476,0.21-0.955,0.794-1.329c0.492-2.458,3.084-5.291,5.392-6.692
			c0.589-2.274,1.45-4.88,3.991-7.275c0.072-1.028,0.403-1.494,0.724-1.945l0.029-0.042c-0.544-2.347-0.528-3.276-0.513-4.175
			c0.004-0.217,0.007-0.426,0.003-0.653c-1.065,0.441-3.089,0.74-4.799,0.34l-0.174-0.041l-0.535-2.27
			c-0.279-0.157-0.856-0.534-0.902-0.997c-0.025-0.248,0.131-0.466,0.315-0.662c-0.247-0.015-0.482-0.07-0.615-0.203
			c-0.098-0.097-0.142-0.225-0.125-0.361c0.017-0.135,0.041-0.285,0.066-0.439c0.037-0.228,0.1-0.613,0.095-0.822
			c-0.138,0.004-0.286,0.014-0.43,0.024c-0.633,0.045-1.289,0.09-1.525-0.373l-0.021-0.055c-0.303-1.109,0.927-3.836,1.437-4.895
			c-0.267-0.302-0.505-0.624-0.584-0.964l-0.008-0.065c-0.009-2.416,0.151-4.565,2.207-6.413c2.072-1.485,4.662-2.166,7.322-1.94
			c2.311,0.197,4.431,1.047,5.534,2.219c2.173,2.306,2.619,7.501,1.109,12.926c-0.002,0.013-0.606,2.959,1.258,5.3
			c0.723,0.908,1.938,1.287,3.224,1.687c0.182,0.057,0.364,0.114,0.545,0.172c0.861-0.562,1.862-0.823,2.984-0.797
			c1.04,0.031,2.075,0.653,3.077,1.254c0.965,0.58,1.972,1.185,2.877,1.174c2.103-0.011,4.692-0.832,5.405-2.61
			c0.479-1.193,0.491-2.247,0.037-3.131c-0.572-1.113-1.917-1.979-3.787-2.437c-1.567-0.384-4.914-0.16-4.948-0.157l-0.644,0.044
			l3.584-4.601l0.121-0.013c0.02-0.003,0.202-0.02,0.534,0.013c0.198,0.02,0.255,0.033,0.379,0.062
			c0.061,0.014,0.139,0.032,0.267,0.058c0.742-0.676,1.502-0.929,2.051-0.678c0.217,0.099,0.546,0.352,0.634,0.985
			c0.709-0.399,1.238-0.476,1.609-0.241c0.31,0.198,0.457,0.583,0.438,1.147c0.028-0.01,0.056-0.02,0.085-0.029
			c0.673-0.233,1.37-0.475,1.779-0.077c0.275,0.267,0.323,0.728,0.144,1.468c1.125-0.164,1.806-0.023,2.076,0.427
			c0.225,0.375,0.112,0.889-0.347,1.562c1.1,0.086,1.66,0.32,1.84,0.755c0.229,0.554-0.265,1.221-0.995,2.021
			c1.045,0.548,1.552,1.07,1.589,1.625c0.049,0.742-0.741,1.307-1.629,1.889c0.896,0.867,1.223,1.534,1.026,2.084
			c-0.2,0.56-0.899,0.875-2.187,0.98c0.436,1.267,0.433,2.048-0.005,2.444c-0.403,0.365-1.084,0.327-2.122-0.126
			c0.122,1.216-0.031,1.895-0.481,2.177c-0.608,0.379-1.489-0.151-2.436-0.785c-0.041,0.157-0.075,0.33-0.108,0.5
			c-0.132,0.67-0.27,1.363-0.842,1.543c-0.49,0.155-1.137-0.15-2.068-0.982c-0.238,1.01-0.592,1.544-1.098,1.668
			c-0.548,0.132-1.169-0.232-1.939-1.149c-0.405,0.878-0.848,1.319-1.349,1.345c-0.48,0.029-0.921-0.318-1.372-1.045
			c-0.022,0.063-0.044,0.127-0.065,0.192l-0.044,0.131l-2.353,6.92c-0.165,0.482-0.335,0.952-0.504,1.416
			c-0.887,2.442-1.725,4.749-1.442,8.242c0.227,2.799,1.731,4.539,3.358,6.343c0.683-0.522,1.02-1.235,1.005-2.124
			c-0.026-1.544-0.558-2.178-2.032-2.423l-0.359-0.06l0.14-0.336c0.298-0.712,0.894-1.152,1.678-1.238
			c0.886-0.097,1.864,0.291,2.595,0.997c0.054-0.606,0.26-1.309,1.603-1.504l0.379-0.055l-0.052,0.38
			c-0.196,1.417,0.044,2.421,0.256,3.306c0.302,1.264,0.548,2.297-0.761,3.671c0.425-0.146,0.979-0.397,1.572-0.788
			c1.129-0.744,2.558-2.106,2.953-4.362l0.139-0.791l0.396,0.699c3.166,5.582,0.518,7.907-2.351,9.738
			c2.293,0.069,3.852,0.868,4.828,3.749l0.162,0.478l-0.494-0.104c-0.661-0.138-0.97,0.021-1.329,0.207
			c-0.255,0.132-0.533,0.275-0.926,0.315c0.617,0.909,0.514,2.058-0.035,2.805c-0.356,0.484-0.862,0.769-1.425,0.801
			c-0.516,0.029-1.321-0.143-2.239-1.132l-0.465-0.501l0.683,0.016c0.402,0.009,1.091-0.053,1.201-0.58
			c0.098-0.473-0.29-1.116-0.8-1.322c-1.617-0.657-3.602-0.108-6.116,0.585l-0.136,0.037c-2.439,0.671-4.879,0.978-9.776-1.951
			c0.867,1.369,2.748,3.473,5.12,4.267c1.891,0.633,3.768,0.346,5.579-0.853l0.227-0.151l0.163,0.219
			c0.498,0.668,0.883,1.464,0.256,2.423c1.28-0.115,2.291,0.382,3.06,0.863l0.252,0.158l-0.166,0.247
			c-1.772,2.644-4.704,2.836-8.939,0.576c0.939,1.049,2.913,2.588,6.6,2.968c0.873,0.092,1.877-0.109,2.847-0.301
			c1.145-0.227,2.33-0.461,3.405-0.259c1.039,0.197,2.326,1.329,2.381,1.377l0.26,0.23l-0.275,0.213
			c-0.269,0.208-0.687,0.333-1.091,0.453c-0.275,0.082-0.731,0.218-0.81,0.325c0.005,0.002,0.016,0.019,0.041,0.049
			c1.975-0.602,3.372-0.566,4.975,1.195c0.865,0.951,1.355,2.274,1.276,3.453c-0.028,0.422-0.292,0.757-0.525,1.054
			c-0.202,0.256-0.392,0.499-0.401,0.744c-0.01,0.262,0.285,0.822,0.498,1.137l0.443,0.656l-0.761-0.217
			c-0.234-0.066-1.417-0.43-1.718-1.051c-0.188-0.388-0.04-0.782,0.09-1.13c0.093-0.248,0.181-0.482,0.133-0.659
			c-0.177-0.647-0.647-1.505-1.391-1.795c-0.375-0.146-0.82,0.023-1.29,0.202c-0.488,0.186-0.994,0.377-1.522,0.273
			c-0.443-0.088-0.991-0.415-1.432-0.723c0.315,0.409,0.758,0.884,0.961,1.103c0.195,0.209,0.38,0.408,0.533,0.586l0.312,0.361
			l-0.464,0.109c-0.916,0.216-3.48,0.822-9.543-2.45c1.028,1.27,2.832,2.7,4.976,3.543c1.306,0.514,2.707,0.652,3.906,0.719
			c0.465,0.026,0.975,0.54,1.22,0.819c0.549-0.151,2.179-0.554,3.094-0.317c0.459,0.119,0.932,0.304,1.433,0.5
			c0.919,0.36,1.869,0.733,2.849,0.74l0.343,0.002l-0.061,0.338c-0.112,0.618-0.573,0.923-0.975,1.135
			c0.507,0.025,0.918,0.254,1.277,0.454c0.737,0.411,1.269,0.708,2.43-0.532l0.511-0.546l-0.013,0.747
			c-0.024,1.41-0.397,2.459-1.108,3.118c-1.077,0.998-2.645,0.905-3.791,0.837c-0.031-0.002-0.063-0.004-0.096-0.006
			c0.825,0.261,1.686,0.452,2.527,0.639c2.661,0.592,5.414,1.204,7.278,3.972l0.149,0.221l-0.209,0.166
			c-0.653,0.519-1.234,0.646-1.812,0.66c0.136,0.036,0.306,0.067,0.519,0.104c1.088,0.185,2.731,0.464,4.232,3.088l0.17,0.297
			l-0.322,0.117c-0.793,0.289-1.647,0.015-2.277-0.19c3.486,2.683,6.128,8.202,5.912,12.621c-0.11,2.264-1.245,4.361-2.961,5.473
			C137.96,329.745,136.959,330.006,135.989,330.006z M134.85,320.469c-0.063,0-0.126,0.001-0.19,0.005
			c-1.274,0.072-2.073,0.841-2.357,1.168c-1.923,2.211-1.269,4.628-0.125,6.025c1.322,1.614,4.144,2.453,6.399,0.991
			c1.563-1.013,2.598-2.935,2.699-5.017c0.219-4.501-2.805-10.425-6.471-12.677l-0.231-0.142l0.127-0.239
			c0.246-0.464,0.805-0.282,1.397-0.089c0.474,0.154,1.042,0.339,1.57,0.282c-1.303-2.077-2.639-2.304-3.627-2.472
			c-0.651-0.11-1.266-0.215-1.464-0.904l-0.112-0.388l0.495,0.025c0.716,0.037,1.253,0.065,1.893-0.358
			c-1.729-2.383-4.178-2.928-6.766-3.503c-1.245-0.277-2.533-0.564-3.718-1.074l-0.312-0.135l0.184-0.286
			c0.23-0.358,0.764-0.327,1.575-0.278c1.042,0.061,2.469,0.146,3.365-0.684c0.472-0.437,0.765-1.105,0.875-1.989
			c-1.152,0.926-1.908,0.504-2.585,0.127c-0.57-0.318-1.063-0.593-1.867-0.161l-0.426,0.229l0.001-0.483
			c0.001-0.535,0.458-0.765,0.862-0.968c0.279-0.14,0.547-0.275,0.706-0.494c-0.936-0.09-1.834-0.442-2.638-0.757
			c-0.484-0.189-0.941-0.369-1.367-0.479c-0.775-0.203-2.405,0.194-2.967,0.363l-0.187,0.056l-0.122-0.153
			c-0.234-0.295-0.691-0.738-0.925-0.751c-1.245-0.07-2.703-0.215-4.085-0.758c-2.98-1.171-5.161-3.3-5.926-4.782l-0.449-0.872
			l0.85,0.489c5.754,3.314,8.501,3.276,9.689,3.076c-0.061-0.066-0.124-0.133-0.188-0.202c-0.891-0.957-1.732-1.86-1.378-2.462
			l0.175-0.296l0.261,0.224c0.341,0.293,1.356,1.079,1.947,1.196c0.367,0.071,0.774-0.082,1.205-0.246
			c0.552-0.209,1.123-0.427,1.704-0.2c0.944,0.367,1.526,1.404,1.738,2.18c0.097,0.357-0.033,0.706-0.149,1.014
			c-0.099,0.262-0.192,0.511-0.111,0.676c0.078,0.161,0.341,0.332,0.642,0.476c-0.115-0.256-0.208-0.538-0.199-0.771
			c0.016-0.433,0.286-0.776,0.524-1.079c0.199-0.253,0.387-0.492,0.403-0.736c0.068-1.028-0.364-2.188-1.128-3.027
			c-1.457-1.599-2.626-1.592-4.545-0.98l-0.159,0.05l-0.123-0.112c-0.101-0.091-0.407-0.37-0.327-0.723
			c0.094-0.413,0.61-0.567,1.208-0.745c0.186-0.055,0.387-0.115,0.56-0.182c-0.423-0.33-1.176-0.86-1.777-0.974
			c-0.966-0.182-2.094,0.043-3.186,0.259c-1.012,0.201-2.056,0.408-3.019,0.309c-6.05-0.625-7.72-4.164-7.788-4.314l-0.382-0.843
			l0.793,0.477c4.446,2.676,7.355,2.835,9.119,0.489c-1.12-0.638-2.108-0.787-3.168-0.482l-1.156,0.332l0.88-0.82
			c0.944-0.88,0.777-1.502,0.389-2.084c-1.894,1.174-3.859,1.433-5.845,0.769c-3.228-1.081-5.529-4.337-5.945-5.513l-0.279-0.791
			l0.706,0.452c5.302,3.389,7.758,3.106,10.204,2.433l0.136-0.038c2.619-0.722,4.688-1.291,6.486-0.563
			c0.765,0.311,1.301,1.233,1.148,1.974c-0.055,0.263-0.269,0.809-1.104,0.984c0.454,0.365,0.907,0.544,1.326,0.519
			c0.388-0.022,0.741-0.224,0.993-0.567c0.508-0.691,0.509-1.84-0.368-2.565l-0.86-0.711l1.097,0.206
			c0.636,0.12,0.94-0.038,1.292-0.22c0.315-0.163,0.661-0.338,1.22-0.322c-1.014-2.594-2.552-3.022-5.135-2.909l-1.111,0.05
			l0.947-0.583c3.079-1.896,5.993-3.692,3.385-8.841c-0.695,2.383-2.472,3.698-3.534,4.293c-0.98,0.549-2.007,0.849-2.387,0.7
			l-0.457-0.18l0.38-0.311c1.82-1.491,1.618-2.341,1.281-3.748c-0.193-0.809-0.43-1.799-0.312-3.119
			c-0.702,0.195-0.724,0.587-0.754,1.142c-0.009,0.16-0.018,0.319-0.044,0.472l-0.115,0.691l-0.405-0.572
			c-0.62-0.875-1.634-1.4-2.527-1.299c-0.438,0.048-0.795,0.248-1.032,0.572c1.47,0.354,2.09,1.22,2.118,2.903
			c0.02,1.167-0.488,2.121-1.467,2.758l-0.206,0.134l-0.165-0.183c-1.774-1.964-3.427-3.794-3.676-6.871
			c-0.293-3.618,0.566-5.982,1.475-8.486c0.168-0.461,0.337-0.927,0.5-1.405l2.396-7.046c0.086-0.26,0.175-0.528,0.344-0.797
			l0.27-0.431l0.231,0.453c0.556,1.093,0.931,1.249,1.109,1.234c0.147-0.008,0.542-0.162,1.032-1.432l0.186-0.481l0.312,0.409
			c0.968,1.267,1.45,1.372,1.651,1.324c0.184-0.045,0.528-0.328,0.771-1.719l0.093-0.535l0.391,0.377
			c1.219,1.174,1.696,1.256,1.875,1.201c0.246-0.077,0.354-0.623,0.449-1.105c0.066-0.334,0.134-0.678,0.257-0.956l0.14-0.314
			l0.356,0.241c0.761,0.514,1.708,1.151,2.05,0.938c0.126-0.079,0.393-0.445,0.151-2.13l-0.078-0.546l0.493,0.247
			c1.418,0.711,1.84,0.544,1.957,0.439c0.123-0.111,0.342-0.547-0.28-2.177l-0.142-0.372l0.398-0.018
			c1.626-0.076,1.989-0.422,2.06-0.623c0.069-0.194,0.013-0.675-1.142-1.716l-0.278-0.251l0.438-0.286
			c0.778-0.507,1.582-1.032,1.552-1.488c-0.017-0.257-0.31-0.694-1.611-1.317l-0.355-0.17l0.269-0.287
			c0.415-0.443,1.28-1.365,1.145-1.689c-0.046-0.112-0.322-0.378-1.871-0.428l-0.582-0.019l0.367-0.451
			c0.767-0.942,0.676-1.265,0.63-1.342c-0.113-0.188-0.685-0.322-1.926-0.079l-0.474,0.092l0.144-0.461
			c0.332-1.063,0.167-1.294,0.13-1.329c-0.155-0.152-0.777,0.066-1.189,0.208c-0.179,0.062-0.356,0.123-0.523,0.171l-0.434,0.125
			l0.07-0.447c0.084-0.536,0.034-0.92-0.132-1.026c-0.08-0.05-0.417-0.165-1.41,0.501l-0.482,0.323l0.034-0.58
			c0.017-0.294-0.001-0.808-0.314-0.952c-0.281-0.128-0.859,0.03-1.521,0.672l-0.107,0.104l-0.147-0.028
			c-0.23-0.044-0.348-0.071-0.433-0.091c-0.1-0.023-0.147-0.034-0.307-0.05c-0.13-0.013-0.23-0.017-0.3-0.017l-2.641,3.39
			c1.077-0.047,3.252-0.097,4.489,0.207c1.44,0.353,3.331,1.114,4.163,2.734c0.534,1.04,0.529,2.254-0.015,3.61
			c-0.812,2.024-3.647,2.959-5.937,2.971c-0.005,0-0.009,0-0.014,0c-1.07,0-2.133-0.638-3.163-1.256
			c-0.938-0.563-1.908-1.145-2.797-1.171c-1.048-0.038-1.974,0.23-2.758,0.775l-0.118,0.082l-0.137-0.045
			c-0.222-0.073-0.446-0.143-0.671-0.213c-1.313-0.409-2.67-0.832-3.504-1.88c-2.038-2.56-1.394-5.667-1.366-5.798
			c1.462-5.254,1.071-10.228-0.969-12.392c-0.995-1.057-3.021-1.857-5.163-2.039c-2.523-0.215-4.977,0.429-6.913,1.814
			c-1.848,1.663-1.998,3.588-1.991,5.927c0.074,0.259,0.329,0.559,0.572,0.821l0.135,0.145l-0.088,0.178
			c-1.04,2.114-1.634,3.957-1.494,4.626c0.106,0.103,0.678,0.064,0.959,0.044c0.235-0.016,0.478-0.033,0.697-0.025l0.129,0.005
			l0.082,0.1c0.203,0.248,0.149,0.689,0.036,1.385c-0.017,0.107-0.035,0.213-0.049,0.312c0.15,0.033,0.473,0.033,0.76-0.005
			l0.324-0.042l0.002,0.326c0.001,0.203-0.156,0.359-0.355,0.556c-0.098,0.097-0.303,0.299-0.318,0.381
			c0.015,0.137,0.386,0.429,0.708,0.591l0.12,0.06l0.514,2.177c1.873,0.377,4.008-0.132,4.608-0.517l0.412-0.264l0.031,0.489
			c0.028,0.436,0.022,0.793,0.016,1.138c-0.015,0.88-0.03,1.789,0.528,4.159l0.029,0.125l-0.18,0.256
			c-0.31,0.437-0.578,0.815-0.625,1.758l-0.006,0.117l-0.086,0.08c-2.535,2.351-3.363,4.944-3.939,7.19l-0.03,0.116l-0.103,0.061
			c-2.213,1.307-4.847,4.157-5.244,6.485l-0.023,0.133l-0.117,0.068c-0.436,0.252-0.671,0.554-0.629,0.807
			c0.038,0.232,0.318,0.429,0.73,0.512l0.158,0.032l0.056,0.152c0.34,0.923,1.385,2.613,4.559,3.553l0.169,0.05l0.032,0.173
			c2.129,11.399,6.175,20.738,12.37,28.551c6.633,8.367,14.537,13.548,21.51,18.119c7.942,5.206,14.214,9.318,14.868,15.98
			l0.074,0.749l-0.555-0.508C136.898,320.937,135.871,320.469,134.85,320.469z M88.061,228.465L88.061,228.465L88.061,228.465z"/>
		<g>
			<path class="st3" d="M86.801,216.313c0,0,0.89-1.45,2.878-0.247c2.158,1.305,0.557,3.271,2.491,3.697
				c0.198,0.656,0.454,1.257,1,1.679c0.496,0.384,1.828,0.45,1.828,0.45s0.154,0.916,0.406,1.289
				c0.358,0.53,1.261,0.618,1.483,1.218c0.446,1.202-0.469,2.541-0.469,2.541c0.849,0.188,2.578-0.434,3.026-2.408
				c1.294-0.046,2.134,2.01,2.408,3.005c1.213,0.39,2.454-2.072,2.103-3.535c-0.171-0.711-0.2-2.249,0.132-2.216
				c0.102,0.01,0.339,1.227,1.212,1.125c1.107-0.129,1.13-1.31,0.937-3.13c-0.17-1.6-0.645-4.326-1.31-5.792
				c-0.536-1.181-0.898-2.43-2.164-2.145c-0.523,0.118-0.538,0.957-0.538,0.957c-0.393-0.156-0.47-0.984-1.037-1.385
				c-0.507-0.359-1.373-0.579-1.854-0.185c-0.366,0.3-0.279,1.135-0.279,1.135s-2.031-1.218-3.17-1.298
				c-3.268-0.229-4.493,0.557-6.559,1.283c-0.604,0.212-1.553,0.206-1.591,0.845c-0.018,0.304,0.75,0.521,0.75,0.521
				C87.153,214.148,86.944,214.958,86.801,216.313L86.801,216.313z"/>
			<path class="st4" d="M102.112,227.866c-0.117,0-0.233-0.018-0.346-0.055l-0.148-0.048l-0.042-0.15
				c-0.253-0.917-0.96-2.587-1.911-2.777c-0.551,1.888-2.271,2.614-3.308,2.384l-0.415-0.092l0.239-0.352
				c0.008-0.012,0.825-1.234,0.437-2.278c-0.083-0.225-0.34-0.364-0.637-0.525c-0.287-0.155-0.612-0.332-0.814-0.632
				c-0.205-0.303-0.343-0.863-0.409-1.179c-0.43-0.039-1.327-0.157-1.762-0.494c-0.58-0.449-0.856-1.059-1.051-1.667
				c-0.995-0.289-1.111-1.031-1.215-1.689c-0.109-0.693-0.221-1.41-1.198-2.001c-1.706-1.031-2.453,0.105-2.484,0.153l-0.659,1.04
				l0.128-1.223c0.12-1.139,0.294-2.025,1.256-2.571c-0.189-0.131-0.335-0.306-0.322-0.534c0.041-0.69,0.739-0.847,1.3-0.973
				c0.169-0.038,0.337-0.075,0.483-0.127c0.359-0.126,0.691-0.254,1.014-0.378c1.556-0.597,2.9-1.114,5.66-0.92
				c0.874,0.061,2.189,0.722,2.865,1.092c0.031-0.301,0.126-0.656,0.38-0.865c0.59-0.481,1.575-0.27,2.203,0.174
				c0.353,0.25,0.541,0.622,0.691,0.921c0.008,0.016,0.016,0.033,0.025,0.049c0.113-0.271,0.309-0.515,0.63-0.588
				c1.355-0.305,1.862,0.869,2.312,1.904c0.058,0.133,0.117,0.269,0.178,0.403c0.734,1.616,1.194,4.553,1.334,5.88
				c0.146,1.379,0.346,3.268-1.19,3.447c-0.622,0.071-0.988-0.339-1.206-0.711c-0.023,0.427,0.01,1.036,0.109,1.448
				c0.261,1.086-0.247,2.678-1.108,3.477C102.806,227.711,102.455,227.866,102.112,227.866z M102.081,227.289
				c0.254,0.008,0.492-0.148,0.656-0.3c0.702-0.651,1.15-2.043,0.939-2.919c-0.13-0.544-0.255-2.026,0.097-2.428
				c0.09-0.104,0.214-0.157,0.345-0.143c0.192,0.019,0.262,0.177,0.342,0.36c0.175,0.396,0.396,0.809,0.807,0.766
				c0.734-0.086,0.9-0.769,0.684-2.813c-0.191-1.804-0.675-4.357-1.286-5.703c-0.062-0.137-0.122-0.275-0.181-0.412
				c-0.491-1.131-0.811-1.761-1.656-1.572c-0.248,0.056-0.311,0.559-0.313,0.681l-0.008,0.416l-0.387-0.153
				c-0.291-0.115-0.436-0.403-0.589-0.708c-0.134-0.267-0.273-0.543-0.509-0.71c-0.453-0.319-1.165-0.476-1.505-0.197
				c-0.168,0.137-0.203,0.607-0.174,0.882l0.06,0.574l-0.495-0.297c-0.02-0.012-1.985-1.184-3.041-1.257
				c-2.631-0.184-3.921,0.31-5.413,0.883c-0.328,0.126-0.666,0.256-1.03,0.384c-0.172,0.06-0.363,0.103-0.548,0.145
				c-0.504,0.113-0.836,0.206-0.85,0.445c0.035,0.026,0.302,0.159,0.541,0.227l0.913,0.26l-0.903,0.292
				c-0.914,0.295-1.223,0.748-1.382,1.584c0.533-0.314,1.405-0.5,2.635,0.243c1.206,0.73,1.352,1.658,1.469,2.404
				c0.107,0.68,0.171,1.09,0.935,1.258l0.165,0.036l0.049,0.162c0.171,0.568,0.399,1.146,0.9,1.534
				c0.309,0.239,1.186,0.366,1.666,0.391l0.231,0.011l0.038,0.229c0.056,0.33,0.203,0.942,0.361,1.176
				c0.124,0.183,0.361,0.311,0.612,0.448c0.349,0.189,0.744,0.404,0.903,0.832c0.335,0.903,0,1.848-0.26,2.378
				c0.798-0.076,1.93-0.73,2.266-2.209l0.049-0.216l0.222-0.008C100.992,224.189,101.858,226.569,102.081,227.289z"/>
		</g>
		<g>
			<path class="st3" d="M111.058,230.344c3.438,1.021,4.608-4.394,6.767-7.289c4.027-5.399,10.45-7.283,16.89-9.104
				c-7.449,0.546-15.714,3.179-20.834,7.425C110.366,224.291,108.817,228.604,111.058,230.344z"/>
			<path class="st4" d="M111.893,230.761c-0.288,0-0.593-0.045-0.918-0.141l-0.095-0.049c-0.74-0.575-1.141-1.436-1.158-2.491
				c-0.035-2.177,1.525-4.896,3.974-6.927c4.856-4.027,12.902-6.898,20.997-7.491l0.099,0.565
				c-6.247,1.767-12.706,3.593-16.738,8.999c-0.613,0.822-1.159,1.88-1.687,2.903C115.192,228.411,113.979,230.761,111.893,230.761z
				 M111.192,230.082c2.176,0.605,3.386-1.739,4.665-4.217c0.539-1.044,1.095-2.122,1.737-2.983c3.442-4.615,8.54-6.677,13.797-8.27
				c-6.796,1.023-13.226,3.584-17.325,6.985c-2.284,1.894-3.797,4.496-3.766,6.474C110.314,228.936,110.614,229.613,111.192,230.082
				z"/>
		</g>
		<path class="st4" d="M182.658,207.037c-0.388-0.22-0.883-0.261-1.249-0.057c-0.655,0.365-0.608,0.874-0.386,1.148
			c0,0,0.106-0.121,0.232-0.282c0.126-0.161,0.286-0.349,0.342-0.373c0.235-0.099,0.581-0.102,0.779,0.01
			c0.282,0.16,0.519,0.572,0.554,0.903c0.012,0.113-0.004,0.341-0.094,0.601c-0.09,0.26-0.252,0.541-0.386,0.809
			c-0.269,0.537-0.541,0.997-0.541,0.997l0.48,0.285c0,0,0.262-0.467,0.544-1.031c0.141-0.282,0.291-0.581,0.393-0.876
			s0.183-0.598,0.154-0.866C183.425,207.784,183.122,207.3,182.658,207.037L182.658,207.037z"/>
	</g>
</g>
</svg>
