<?xml version="1.0" encoding="utf-8"?>
<!-- Generator: Adobe Illustrator 25.0.1, SVG Export Plug-In . SVG Version: 6.00 Build 0)  -->
<svg version="1.1" id="Layer_1" xmlns="http://www.w3.org/2000/svg" xmlns:xlink="http://www.w3.org/1999/xlink" x="0px" y="0px"
	 viewBox="0 0 525 350" style="enable-background:new 0 0 525 350;" xml:space="preserve">
<style type="text/css">
	.st0{fill:#FED401;}
	.st1{fill:#921A1C;}
</style>
<g id="Voronozh">
	<g id="Rusland_2_">
		<g id="Rusland_6_">
			<rect x="0" y="0" class="st0" width="525" height="350"/>
		</g>
	</g>
	<polygon class="st1" points="525,50 525,0 262.5,0 0,0 0,50 0,100 0,150 0,200 0,250 0,300 0,350 262.5,350 525,350 525,300 
		350,300 350,250 525,250 525,200 350,200 350,150 525,150 525,100 350,100 350,50 	"/>
	<polygon class="st0" points="300,175 287.133,147.427 189.07,160.93 202.574,62.868 175,50 147.426,62.868 160.93,160.93 
		62.868,147.427 50,175 62.868,202.573 160.93,189.07 147.426,287.133 175,300 202.574,287.133 189.07,189.07 287.133,202.573 	"/>
</g>
</svg>
