<?xml version="1.0" encoding="utf-8"?>
<!-- Generator: Adobe Illustrator 25.0.1, SVG Export Plug-In . SVG Version: 6.00 Build 0)  -->
<svg version="1.1" id="Layer_1" xmlns="http://www.w3.org/2000/svg" xmlns:xlink="http://www.w3.org/1999/xlink" x="0px" y="0px"
	 viewBox="0 0 525 350" style="enable-background:new 0 0 525 350;" xml:space="preserve">
<style type="text/css">
	.st0{fill:#FFFFFF;}
	.st1{fill:#C7373D;}
	.st2{fill:#184276;}
	.st3{fill-rule:evenodd;clip-rule:evenodd;fill:#AF1F23;stroke:#010101;stroke-width:0.3528;}
	.st4{fill-rule:evenodd;clip-rule:evenodd;fill:#010101;stroke:#010101;stroke-width:0.3528;}
	.st5{fill-rule:evenodd;clip-rule:evenodd;fill:#FFFFFF;stroke:#010101;stroke-width:0.3528;}
	.st6{fill:none;stroke:#FFFFFF;stroke-width:0.3528;}
</style>
<g id="Walachia">
	<rect class="st0" width="525" height="350"/>
	<rect y="0.002" class="st1" width="525" height="58.291"/>
	<rect y="291.709" class="st2" width="525" height="58.291"/>
	<g>
		<polygon id="_129337552" class="st3" points="241.046,71.645 246.948,72.209 247.607,80.027 253.623,80.541 253.964,85.725 
			248.011,85.238 248.417,90.78 259.613,91.696 260.101,98.778 248.949,97.827 249.779,108.845 243.994,108.704 243.107,97.35 
			232.445,96.429 231.923,89.487 242.552,90.248 242.143,84.758 237.174,84.359 236.749,79.143 241.717,79.561 		"/>
		<path id="_20612504" class="st4" d="M250.772,232.705c-0.615,4.875-2.459,8.52-5.533,10.934c2.317,1.373,4.919,5.68,7.803,12.922
			c0,0.899-2.27,0.947-6.81,0.142c-2.459,2.272-3.405,4.544-2.838,6.816c0.575-1.099,1.683-0.987,3.322,0.335
			c0.687-3.885,2.986-5.14,6.898-3.766c5.673,0.478,7.883,2.51,6.629,6.097c1.314-1.046,2.508-1.195,3.583-0.448
			c1.224-3.228-0.239-5.619-4.389-7.173c2.269-3.257,4.419-3.347,6.45-0.269c-0.149-1.883,0.119-3.108,0.806-3.676
			c-2.031-2.929-5.375-2.51-10.033,1.255c-2.508-4.304-4.061-7.531-4.658-9.683c1.911-1.942,3.942-6.455,6.092-13.538
			C255.04,231.44,252.599,231.458,250.772,232.705L250.772,232.705z"/>
		<path id="_129361120" class="st4" d="M270.89,230.206c-1.589,5.481-3.745,8.861-6.47,10.139
			c-0.397,1.676,3.065,6.021,10.385,13.036c-5.306,1.448-7.378,3.749-6.214,6.901c0.965-0.795,2.27-0.682,3.916,0.341
			c-0.199-2.726,1.362-4.317,4.682-4.771c2.355,0.028,4.767,2.272,7.236,6.731c0.738-1.392,1.816-1.818,3.235-1.278
			c0.057-2.272-1.703-3.863-5.278-4.771c2.298-3.323,5.675-2.84,10.13,1.448c0.397-0.937,0.908-1.25,1.532-0.937
			c-3.944-5.708-8.853-7.157-14.727-4.345c-4.483-2.414-7.945-6.134-10.385-11.161c3.462-1.903,6.356-5.453,8.683-10.65
			C274.636,229.524,272.394,229.297,270.89,230.206L270.89,230.206z"/>
		<path id="_129345456" class="st4" d="M255.019,109.264c4.069-2.841,8.329-3.031,12.777-0.568
			c8.328,2.084,13.249,7.578,14.764,16.481c3.502,15.06,8.328,29.174,14.48,42.34c0.189,1.326,4.164,2.652,11.925,3.978
			c3.313,0.852,4.543-0.758,3.691-4.831c-4.353-18.376,0-29.174,13.06-32.395c11.262-1.137,21.578,10.23,30.947,34.1
			c8.612,63.084,17.035,102.299,25.269,117.644c-6.625,3.41-14.764-16.671-24.417-60.243c0.852,19.797,5.3,37.131,13.344,52.002
			c-11.83-3.789-22.335-33.721-31.515-89.795c-3.123,7.009-0.379,26.143,8.234,57.401c-3.596,2.084-9.464-17.05-17.603-57.401
			c-1.798,7.767,0.757,22.733,7.666,44.898c-4.448,2.747-9.843-9.472-16.183-36.657c-0.378,7.293,1.514,15.913,5.678,25.859
			c-4.732,2.747-8.707-6.441-11.925-27.564c-0.956,2.989-2.497,5.151-4.624,6.485c-1.528-1.835-2.27-4.021-2.227-6.555
			c-0.786,2.36-2.096,3.846-3.93,4.457c-1.31-1.223-1.747-3.146-1.31-5.768c-0.699,1.923-1.921,3.321-3.668,4.195
			c-1.441-1.136-2.27-2.622-2.489-4.457c-1.533,4.485-6.335,12.421-14.404,23.808c-2.555,2.936-2.271,8.714,0.852,17.334
			c-1.686,0.68-3.587,0.207-5.703-1.418c-0.96,0.393-1.572,1.748-1.834,4.064c-1.048-2.272-2.271-3.846-3.668-4.72
			c-1.354,0.437-2.62,1.223-3.799,2.36c2.052-4.72,2.27-8.216,0.655-10.488c4.249-7.988,6.638-13.898,7.169-17.73
			c-1.057-1.597-1.95-1.481-2.679,0.35c-0.608,5.395-4.215,13.305-10.821,23.73c-0.468,3.16-0.056,5.854,1.235,8.083
			c-1.797,0.71-3.973-0.379-6.526-3.266c-0.993,2.367-2.27,3.787-3.831,4.26c-1.135-0.615-1.703-2.272-1.703-4.97
			c-1.371,1.657-3.783,2.651-7.236,2.982c0.426-2.272,1.513-3.787,3.263-4.544c1.844-2.745,2.459-5.112,1.844-7.1
			c-5.643,2.061-14.591,8.179-26.843,18.353c-5.489,5.968-12.493,9.093-21.01,9.377c0.272-1.661,1.036-3.562,2.291-5.702
			c8.452-1.831,14.381-4.798,17.787-8.901c-5.614,1.957-13.372,5.555-23.275,10.795c0,0.884,0,0,0-2.651
			c14.886-7.26,22.96-11.868,24.221-13.825c-15.58,7.575-25.482,11.868-29.708,12.878c-0.252-0.82,0.252-2.525,1.514-5.113
			c16.652-7.07,25.23-11.616,25.735-13.636c-10.597,4.798-19.679,8.838-27.249,12.121c-3.532,1.01-6.055,0.758-7.569-0.758
			c-0.631,1.073,0,0,1.892-3.22c16.021-5.05,25.735-9.091,29.141-12.121c-6.875,2.083-17.409,6.06-31.601,11.931
			c-3.406,0.063-5.803-0.505-7.191-1.704c8.389-5.492,21.95-11.363,40.684-17.613c1.766-4.482,6.56-9.596,14.381-15.34
			c0.746-14.298,2.13-25.379,4.153-33.242c-0.175,2.35-0.884,3.729-2.127,4.136c-1.222-0.044-2.62-1.224-4.192-3.54
			c0.393,3.015-0.175,5.069-1.703,6.162c-1.834-1.224-2.969-3.146-3.406-5.768c-0.917,2.622-2.096,4.195-3.537,4.72
			c-1.703-0.568-2.794-2.098-3.275-4.589c-3.013,2.056-5.585,6.473-7.715,13.251c-2.432,5.517-5.512,7.95-9.241,7.301
			c8.146-13.102,11.672-23.04,10.578-29.814c-7.693,24.196-16.789,38.135-27.288,41.817c14.128-18.19,21.014-32.685,20.659-43.485
			c-14.554,32.898-25.842,49.17-33.864,48.814c19.31-25.509,28.114-42.349,26.41-50.52c-16.15,37.944-30.14,56.38-41.969,55.309
			c13.993-11.732,25.405-30.389,34.235-55.971c-16.472,36.177-32.428,55.609-47.867,58.296
			c13.856-8.323,27.562-32.224,41.118-71.703c7.848-19.599,16.395-28.026,25.641-25.282c7.193,0,14.007,9.472,20.442,28.416
			c4.206-0.683,8.468-0.49,12.785,0.579c3.848-6.755,8.831-9.343,14.949-7.765c5.803-2.146,7.065-5.555,3.785-10.227
			c-3.97-2.824-6.239-4.775-6.808-5.853c-7.183,1.799-12.038,0.125-14.566-5.022c7.454,2.06,12.211,1.989,14.27-0.213
			c-7.596-4.476-12.211-5.684-13.844-3.624C240.343,106.404,245.148,105.271,255.019,109.264L255.019,109.264z"/>
		<path id="_20537752" class="st3" d="M244.235,111.793c0.294,6.06,0.919,12.691,1.543,19.837c0.681,0.757,2.724,2.12,6.129,4.089
			c-0.485-5.325-1.297-12.792-1.743-21.763C247.328,112.553,245.602,111.989,244.235,111.793L244.235,111.793z"/>
		<polygon id="_20548576" class="st3" points="227.414,95.135 231.937,103.313 241.552,101.288 236.255,109.143 242.835,115.958 
			233.014,115.636 229.978,124.475 225.456,116.298 215.84,118.322 221.137,110.467 214.558,103.652 224.378,103.975 		"/>
		<ellipse id="_130009904" class="st5" cx="262.758" cy="112.8" rx="2.033" ry="2.102"/>
		<path id="_130006624" class="st6" d="M269.627,233.271c0.606-0.484,1.466-0.928,2.58-1.332c1.403,1.019,2.437,2.217,3.104,3.596"
			/>
	</g>
</g>
</svg>
